<?xml version="1.0" encoding="UTF-8"?><svg id="Layer_1" xmlns="http://www.w3.org/2000/svg" viewBox="0 0 1000 1000"><defs><style>.cls-1{fill:#e8e8e8;}</style></defs><g><path class="cls-1" d="M268.89,821.62c0-17.21,13.18-29.65,30.88-29.65,9.39,0,17.46,3.38,22.81,9.64l-6.92,6.51c-4.2-4.53-9.39-6.75-15.4-6.75-11.94,0-20.59,8.4-20.59,20.26s8.65,20.26,20.59,20.26c6.01,0,11.2-2.22,15.4-6.84l6.92,6.59c-5.35,6.26-13.42,9.64-22.9,9.64-17.62,0-30.8-12.44-30.8-29.65Z"/><path class="cls-1" d="M386.3,837.1h-28.82l-5.68,13.34h-11.04l25.94-57.65h10.54l26.03,57.65h-11.2l-5.77-13.34Zm-3.54-8.4l-10.87-25.2-10.79,25.2h21.66Z"/><path class="cls-1" d="M474.8,813.3c0,12.68-9.39,20.51-24.54,20.51h-13.01v16.64h-10.71v-57.65h23.72c15.15,0,24.54,7.74,24.54,20.51Zm-10.79,0c0-7.25-4.86-11.45-14.25-11.45h-12.52v22.9h12.52c9.39,0,14.25-4.2,14.25-11.45Z"/><path class="cls-1" d="M501.7,792.79h10.71v57.65h-10.71v-57.65Z"/><path class="cls-1" d="M556.41,801.85h-19.11v-9.06h48.92v9.06h-19.11v48.59h-10.71v-48.59Z"/><path class="cls-1" d="M645.5,837.1h-28.82l-5.68,13.34h-11.04l25.94-57.65h10.54l26.03,57.65h-11.2l-5.77-13.34Zm-3.54-8.4l-10.87-25.2-10.79,25.2h21.66Z"/><path class="cls-1" d="M685.76,792.79h10.71v48.59h30.14v9.06h-40.85v-57.65Z"/></g><g><path class="cls-1" d="M125.99,711.6c-2.97-.95-5.85-2.18-8.64-3.71-.32-.21-.79-.47-1.42-.79l-2.29-1.26c-1.05-.63-1.85-1.06-2.4-1.3-.55-.24-1.12-.36-1.7-.36-.89,0-1.71,.45-2.44,1.34-.89,1.1-1.84,1.92-2.84,2.44-1,.53-1.92,.79-2.76,.79-1,0-1.81-.35-2.45-1.06-.63-.71-.89-1.62-.79-2.72,.1-1.42,.16-3.6,.16-6.54,0-2.68-.12-5.52-.36-8.52-.24-3-.49-5.73-.75-8.2-.42-4.31-.63-6.99-.63-8.04,0-1.31,.38-2.31,1.14-3,.76-.68,1.67-1.03,2.72-1.03,1,0,1.88,.29,2.64,.87,.76,.58,1.27,1.39,1.54,2.44,.47,2.05,1.12,4.26,1.93,6.62,.82,2.37,2.14,5.52,3.98,9.46,1.79,3.79,4.11,6.95,6.98,9.5,2.86,2.55,5.91,4.43,9.15,5.64,3.23,1.21,6.32,1.81,9.27,1.81,5.68,0,10.38-1.39,14.12-4.18,3.73-2.79,5.6-7.7,5.6-14.75,0-5.26-2.24-9.9-6.7-13.92-4.47-4.02-10.54-7.98-18.22-11.87-6.26-3.21-11.47-6.28-15.65-9.23-4.18-2.94-7.68-6.61-10.49-11-2.81-4.39-4.22-9.61-4.22-15.65,0-6.57,1.64-12.04,4.93-16.4,3.28-4.36,7.42-7.56,12.42-9.58,4.99-2.02,10.09-3.04,15.3-3.04,3.89,0,7.19,.3,9.9,.91,2.71,.61,5.37,1.38,8,2.33,1.58,.53,2.58,.79,3,.79,.84,0,1.48-.1,1.93-.32,.45-.21,.89-.5,1.34-.87,.45-.37,.85-.68,1.22-.95,.58-.37,1.29-.55,2.13-.55,1.05,0,2.04,.3,2.96,.91,.92,.61,1.38,1.3,1.38,2.09,0,2.37,.1,4.67,.32,6.9,.21,2.23,.5,4.96,.87,8.16,.58,4.31,.87,7.44,.87,9.38,0,1.52-.39,2.64-1.18,3.35s-1.76,1.06-2.92,1.06c-.79,0-1.55-.18-2.29-.55-.74-.37-1.13-.79-1.18-1.26-.95-5.47-2.64-10.09-5.09-13.88-2.45-3.79-5.39-6.61-8.83-8.48-3.44-1.87-7.14-2.8-11.08-2.8-12.51,0-18.77,6.34-18.77,19,0,3.15,1.14,6.14,3.43,8.95,2.29,2.81,5.09,5.36,8.4,7.65,3.31,2.29,7.65,5.01,13.01,8.16,.42,.26,.83,.51,1.22,.75,.39,.24,.75,.43,1.06,.59,6.05,3.52,11.01,6.69,14.9,9.5,3.89,2.81,7.24,6.24,10.05,10.29,2.81,4.05,4.22,8.67,4.22,13.88,0,6.68-1.53,12.39-4.57,17.15-3.05,4.76-7.19,8.36-12.42,10.8-5.23,2.44-11.11,3.67-17.62,3.67-4.63,0-8.42-.47-11.39-1.42Z"/><path class="cls-1" d="M204.28,709.37c-.5-.95-.75-1.81-.75-2.6,0-.89,.18-1.58,.55-2.05,.37-.47,1.05-.76,2.05-.87,3.15-.26,5.85-.78,8.08-1.54,2.23-.76,3.35-1.93,3.35-3.51l.08-85.32c0-2.05-.61-3.6-1.81-4.65-1.21-1.05-2.54-1.73-3.98-2.05-1.45-.32-3.51-.63-6.19-.95-1.16-.1-1.92-.33-2.29-.67-.37-.34-.55-1.09-.55-2.25,0-.79,.25-1.66,.75-2.6,.5-.95,1.14-1.42,1.93-1.42h17.59c3.36,0,7.89-.16,13.56-.47,5.78-.32,10.51-.47,14.19-.47,6.62,0,12.76,1.12,18.41,3.35,5.65,2.23,10.24,5.84,13.76,10.8,3.52,4.97,5.28,11.32,5.28,19.04,0,6.94-1.73,13.13-5.21,18.57-3.47,5.44-8.31,9.69-14.51,12.74-6.2,3.05-13.2,4.57-20.98,4.57h-13.72v29.18c0,2.05,.83,3.62,2.48,4.69,1.66,1.08,3.54,1.79,5.64,2.13,2.1,.34,4.7,.62,7.81,.83,1.16,.11,1.92,.33,2.29,.67,.37,.34,.55,1.09,.55,2.25,0,.79-.25,1.66-.75,2.6-.5,.95-1.14,1.42-1.93,1.42h-43.77c-.79,0-1.43-.47-1.93-1.42Zm52.32-51.85c3.63-1.81,6.82-4.78,9.58-8.91,2.76-4.13,4.14-9.4,4.14-15.81,0-9.99-2.43-17.12-7.29-21.41-4.86-4.28-10.95-6.43-18.26-6.43h-10.8l-.08,55.28h13.48c2.52,0,5.6-.91,9.23-2.72Z"/><path class="cls-1" d="M316.7,709.24c-.5-.95-.75-1.81-.75-2.6,0-.89,.18-1.58,.55-2.05,.37-.47,1.05-.76,2.05-.87,3.15-.26,5.85-.78,8.08-1.54,2.23-.76,3.35-1.93,3.35-3.51l.08-85.32c0-2.1-.55-3.68-1.66-4.73-1.1-1.05-2.34-1.72-3.71-2.01-1.37-.29-3.31-.59-5.84-.91-1.16-.1-1.92-.33-2.29-.67-.37-.34-.55-1.09-.55-2.25,0-.79,.25-1.66,.75-2.6,.5-.95,1.14-1.42,1.93-1.42l14.67-.08c4.52,0,9.25-.1,14.19-.32,.68-.05,2.27-.13,4.77-.24,2.5-.1,5.45-.13,8.87-.08,12.09,.11,21.76,2.51,29.02,7.22,7.25,4.71,10.88,12.24,10.88,22.59,0,16.03-8.46,26.34-25.39,30.91,4.63,.47,8.4,1.75,11.32,3.82,2.92,2.08,5.18,4.52,6.78,7.33,1.6,2.81,3.38,6.61,5.32,11.39,1.31,3.21,2.39,5.74,3.23,7.61,.84,1.87,1.84,3.69,3,5.48,2.89,5.63,6.86,8.7,11.91,9.23,1.1,.11,1.85,.4,2.25,.87,.39,.47,.59,1.31,.59,2.52,0,.74-.25,1.53-.75,2.37-.5,.84-1.14,1.26-1.93,1.26h-21.06c-1.95,0-3.65-.87-5.13-2.6-1.47-1.73-2.76-3.9-3.86-6.51-1.1-2.6-2.47-6.24-4.1-10.92-2.16-6.2-4.13-11.25-5.91-15.14-1.79-3.89-4.11-7.22-6.98-9.98-2.87-2.76-6.32-4.14-10.37-4.14h-14.04v34.7c0,2.1,.67,3.68,2.01,4.73,1.34,1.05,2.92,1.75,4.73,2.09,1.81,.34,4.09,.62,6.82,.83,1.16,.11,1.92,.33,2.29,.67,.37,.34,.55,1.09,.55,2.25,0,.79-.25,1.66-.75,2.6-.5,.95-1.14,1.42-1.93,1.42h-41.08c-.79,0-1.43-.47-1.93-1.42Zm67.3-78.94c0-9.04-2.34-15.42-7.02-19.12-4.68-3.71-11.17-5.56-19.48-5.56h-11.36l-.08,48.97h13.25c16.45,0,24.68-8.09,24.68-24.29Z"/><path class="cls-1" d="M445.76,704.58c.37-.47,1.05-.76,2.05-.87,3.15-.26,5.86-.78,8.12-1.54,2.26-.76,3.39-1.93,3.39-3.51v-85.32c0-2.05-.61-3.6-1.81-4.65-1.21-1.05-2.54-1.73-3.98-2.05-1.45-.32-3.51-.63-6.19-.95-1.16-.1-1.92-.33-2.29-.67-.37-.34-.55-1.09-.55-2.25,0-.79,.25-1.66,.75-2.6,.5-.95,1.14-1.42,1.93-1.42l77.28-.08,2.76,25.63c.05,.84-.24,1.5-.87,1.97-.63,.47-1.31,.71-2.05,.71-1.1,0-2.08-.17-2.92-.51-.84-.34-1.55-1.04-2.13-2.09l-2.76-5.28c-1.68-3.36-3.05-5.86-4.1-7.49-1.05-1.63-2.31-2.89-3.79-3.79-1.47-.89-3.34-1.34-5.6-1.34l-26.81,.08v42.74l18.45-.08c1.26-.16,2.47-1.08,3.63-2.76,1.16-1.68,2.13-3.59,2.92-5.72,.79-2.13,1.26-3.8,1.42-5.01,.21-1.68,1.42-2.52,3.63-2.52,.74,0,1.46,.24,2.17,.71,.71,.47,1.06,1.13,1.06,1.97v34.93c0,.84-.35,1.5-1.06,1.97-.71,.47-1.43,.71-2.17,.71-1,0-1.87-.2-2.6-.59-.74-.4-1.16-1.06-1.26-2.01-.11-1.31-.55-3.12-1.34-5.4-.79-2.29-1.79-4.31-3-6.07-1.21-1.76-2.5-2.64-3.86-2.64l-17.98,.08v38.25c0,4.63,2.34,7.15,7.02,7.57l22.47-.08c4.99,0,9.2-1.67,12.62-5.01,3.42-3.34,6.05-8.82,7.89-16.44,.21-.89,.88-1.55,2.01-1.97,1.13-.42,2.25-.63,3.35-.63s1.93,.22,2.64,.67c.71,.45,1.12,1.12,1.22,2.01l-3.94,29.33-83.59,.08c-.79,0-1.43-.47-1.93-1.42-.5-.95-.75-1.81-.75-2.6,0-.89,.18-1.58,.55-2.05Z"/><path class="cls-1" d="M652.76,674.89c.76,.5,1.09,1.14,.99,1.93l-3.94,30.6c-.95,2.1-2.18,3.18-3.71,3.23h-77.67c-.68,0-1.17-.13-1.46-.39-.29-.26-.43-.76-.43-1.5v-1.26c0-.53,.21-1.24,.63-2.13,.42-.89,1.31-2.36,2.68-4.42l55.59-85.01,7.26-10.65h-39.82c-2.1,0-4.37,1.68-6.78,5.05-2.42,3.36-4.56,7.15-6.43,11.36-1.87,4.21-2.91,7.07-3.11,8.6-.11,1-.4,1.68-.87,2.05-.47,.37-1.16,.55-2.05,.55-.68,0-1.27-.24-1.77-.71-.5-.47-.72-1.13-.67-1.97l2.29-28.23c.95-2.1,2.18-3.18,3.71-3.23h74.28c.68,0,1.17,.13,1.46,.39,.29,.26,.43,.76,.43,1.5v2.13c0,.58-.26,1.31-.79,2.21l-56.3,86.11-8.75,13.01h39.74c2.1,0,4.69-1.88,7.77-5.64,3.08-3.76,5.9-7.97,8.48-12.62,2.58-4.65,3.94-7.69,4.1-9.11,.11-1,.4-1.68,.87-2.05,.47-.37,1.16-.55,2.05-.55,.74,0,1.48,.25,2.25,.75Z"/><path class="cls-1" d="M766.5,674.89c.76,.5,1.09,1.14,.99,1.93l-3.94,30.6c-.95,2.1-2.18,3.18-3.71,3.23h-77.67c-.68,0-1.17-.13-1.46-.39-.29-.26-.43-.76-.43-1.5v-1.26c0-.53,.21-1.24,.63-2.13,.42-.89,1.31-2.36,2.68-4.42l55.59-85.01,7.26-10.65h-39.82c-2.1,0-4.37,1.68-6.78,5.05-2.42,3.36-4.56,7.15-6.43,11.36-1.87,4.21-2.91,7.07-3.11,8.6-.11,1-.4,1.68-.87,2.05-.47,.37-1.16,.55-2.05,.55-.68,0-1.27-.24-1.77-.71-.5-.47-.72-1.13-.67-1.97l2.29-28.23c.95-2.1,2.18-3.18,3.71-3.23h74.28c.68,0,1.17,.13,1.46,.39,.29,.26,.43,.76,.43,1.5v2.13c0,.58-.26,1.31-.79,2.21l-56.3,86.11-8.75,13.01h39.74c2.1,0,4.69-1.88,7.77-5.64,3.08-3.76,5.9-7.97,8.48-12.62,2.58-4.65,3.94-7.69,4.1-9.11,.11-1,.4-1.68,.87-2.05,.47-.37,1.16-.55,2.05-.55,.74,0,1.48,.25,2.25,.75Z"/><path class="cls-1" d="M898.26,704.39c.37,.34,.55,1.09,.55,2.25,0,.79-.25,1.66-.75,2.6-.5,.95-1.14,1.42-1.93,1.42h-39.51c-.79,0-1.43-.47-1.93-1.42-.5-.95-.75-1.81-.75-2.6,0-.89,.18-1.58,.55-2.05,.37-.47,1.05-.76,2.05-.87l3.23-.16c2.68-.05,4.61-.21,5.8-.47,1.18-.26,1.77-.84,1.77-1.73,0-.37-.08-.74-.24-1.1l-9.54-28.55h-37.85l-9.62,28.55c-.11,.26-.16,.58-.16,.95,0,.95,.58,1.55,1.73,1.81,1.16,.26,3.13,.45,5.91,.55,.79,0,2.08,.05,3.86,.16,1,.11,1.68,.39,2.05,.87,.37,.47,.55,1.16,.55,2.05,0,.79-.25,1.66-.75,2.6-.5,.95-1.14,1.42-1.93,1.42h-33.36c-.84,0-1.5-.39-1.97-1.18-.47-.79-.71-1.74-.71-2.84s.18-1.91,.55-2.25c.37-.34,1.13-.56,2.29-.67,.47-.05,1.18-.08,2.13-.08,1.68-.05,3.08-.18,4.18-.39,1.1-.21,2.18-.75,3.23-1.62,1.05-.87,1.89-2.19,2.52-3.98l36.12-100.62h12.62l35.09,100.62c.63,1.79,1.46,3.1,2.48,3.94,1.03,.84,2.08,1.38,3.15,1.62,1.08,.24,2.46,.38,4.14,.43,1,0,1.71,.03,2.13,.08,1.16,.11,1.92,.33,2.29,.67Zm-58.83-87.33l-17.27,47.87h33.2l-15.93-47.87Z"/></g><path class="cls-1" d="M649.81,186.93h-175.91c-50.53,0-91.63,33.78-91.63,75.3,0,16.44,7.13,32.91,19.71,45.97-7.34,16.06-8.94,32.87-4.37,48.74,3.71,12.91,11.23,24.17,21.83,33.15l-72.4,60.34v17.1s175.91,0,175.91,0c50.53,0,91.63-33.78,91.63-75.3,0-16.17-6.75-32.25-19.02-45.29h0s-.03-.03-.05-.05c-.02-.02-.04-.05-.06-.07h0c-22.51-23.25-63.04-25.45-102.24-27.58-29.94-1.62-58.33-3.17-72.65-14.05,1.53-2.4,3.19-4.76,5-7.04,.02-.03,.05-.06,.07-.09,11.19-14.06,27.53-25.73,46.48-33.11,.16-.06,.32-.12,.48-.18,1.44-.55,2.89-1.07,4.36-1.58,.32-.11,.64-.23,.96-.34,1.69-.56,3.39-1.1,5.12-1.6,1.85-.53,3.7-1.02,5.55-1.46,1.61-.39,3.22-.72,4.83-1.04,.23-.05,.45-.1,.68-.15,23.91-4.6,47.86-2.01,66.57,7.32,.08,.04,.16,.08,.24,.11,1.03,.52,2.04,1.07,3.04,1.63h9.53l76.36-63.63v-17.11Zm-65.02,184.03c.07-.08,.14-.16,.21-.23,1.01-1.1,1.99-2.21,2.95-3.35,.39-.46,.75-.92,1.13-1.38,.48-.59,.97-1.17,1.44-1.76,5.99,8.67,9.21,18.36,9.21,27.99,0,33.33-34.44,60.45-76.77,60.45h-155.39l64.42-53.68,.17-.06c1.57,.89,3.18,1.73,4.83,2.54,.12,.06,.25,.11,.38,.18,1.4,.68,2.83,1.33,4.3,1.96,.5,.22,1.02,.42,1.53,.62,.74,.3,1.46,.62,2.22,.9,.39,.15,.8,.28,1.2,.42,.58,.21,1.17,.42,1.76,.62,1.21,.42,2.44,.82,3.67,1.2,.45,.14,.9,.27,1.35,.4,1.51,.44,3.03,.84,4.56,1.22,.19,.05,.37,.09,.56,.14,9.01,2.16,18.45,3.27,28.12,3.27,8.39,0,16.93-.83,25.48-2.46,.33-.06,.66-.13,.99-.2,1.58-.31,3.15-.65,4.73-1.02,.47-.11,.93-.21,1.4-.33,1.9-.46,3.8-.96,5.7-1.5,1.77-.51,3.53-1.06,5.27-1.63,.38-.12,.74-.26,1.12-.39,1.39-.47,2.77-.95,4.14-1.47,.32-.12,.63-.25,.95-.37,1.44-.55,2.86-1.11,4.27-1.71,.21-.09,.43-.19,.64-.28,1.53-.65,3.04-1.32,4.53-2.02,.1-.04,.19-.09,.29-.14,15.03-7.09,28.26-16.63,38.67-27.93Zm-92.39-36.88c33.59,1.82,68.22,3.71,87.85,19.04-.43,.59-.87,1.19-1.32,1.78-.45,.59-.92,1.16-1.39,1.74-.44,.55-.89,1.09-1.35,1.63-.6,.7-1.22,1.4-1.85,2.09-.35,.38-.69,.76-1.05,1.14-.76,.81-1.54,1.62-2.34,2.41-.23,.23-.47,.46-.7,.7-.93,.9-1.87,1.79-2.84,2.66-.12,.11-.24,.21-.36,.32-1.08,.96-2.18,1.91-3.32,2.84-.01,.01-.03,.02-.04,.03-7.18,5.88-15.36,11-24.24,15.16-.03,.01-.06,.03-.09,.04-1.43,.67-2.88,1.31-4.35,1.93-.25,.1-.5,.2-.75,.3-1.27,.53-2.54,1.04-3.83,1.53-.62,.23-1.25,.44-1.88,.67-.95,.34-1.89,.69-2.85,1.01-1.61,.53-3.25,1.04-4.89,1.52-1.76,.51-3.52,.96-5.29,1.39-.45,.11-.89,.2-1.34,.31-1.39,.32-2.79,.62-4.18,.9-.39,.08-.79,.15-1.18,.23-1.64,.3-3.28,.58-4.91,.82-.1,.01-.2,.03-.3,.05-11.33,1.62-22.53,1.62-33.08,.07-.1-.02-.2-.03-.3-.05-1.47-.22-2.92-.48-4.36-.76-.53-.1-1.05-.22-1.57-.33-.99-.21-1.97-.44-2.95-.68-.69-.17-1.38-.34-2.06-.52-.78-.21-1.55-.44-2.32-.67-.77-.23-1.55-.45-2.31-.7-.67-.22-1.33-.47-1.99-.7-.67-.24-1.35-.46-2.01-.71-.61-.23-1.2-.49-1.8-.73-.84-.34-1.68-.69-2.51-1.05-.52-.23-1.03-.47-1.54-.71-1-.47-1.99-.96-2.96-1.46-.32-.17-.64-.33-.96-.5-1.34-.72-2.65-1.48-3.93-2.27h-.02c-12.63-7.87-21.35-18.78-25.06-31.68-3.17-11.01-2.46-22.73,1.86-34.24,18.26,12.21,47.7,13.81,78.64,15.49Zm75.51-81.13c-.15-.08-.31-.14-.46-.22-12.35-6.19-26.55-9.85-41.53-10.87-.09,0-.19-.01-.28-.02-1.74-.12-3.49-.19-5.25-.24-.24,0-.48-.01-.72-.02-1.64-.03-3.29-.03-4.95,0-.38,0-.77,.02-1.15,.03-1.54,.04-3.09,.1-4.64,.2-.53,.03-1.06,.07-1.59,.11-1.43,.1-2.86,.22-4.29,.37-.69,.07-1.38,.16-2.07,.24-1.29,.16-2.59,.31-3.88,.51-.89,.13-1.77,.29-2.65,.44-1.12,.19-2.24,.37-3.36,.58-1.18,.23-2.35,.49-3.52,.75-.85,.19-1.7,.35-2.54,.56-2.04,.49-4.08,1.02-6.11,1.6-1.77,.51-3.53,1.05-5.27,1.63-.82,.27-1.63,.57-2.44,.85-.89,.31-1.78,.61-2.65,.93-1.08,.4-2.14,.83-3.2,1.25-.58,.23-1.16,.45-1.73,.69-1.24,.51-2.46,1.05-3.68,1.6-.36,.16-.73,.32-1.09,.48-1.36,.62-2.7,1.27-4.03,1.93-.19,.09-.38,.19-.57,.28-1.46,.74-2.9,1.5-4.32,2.28-.04,.02-.08,.04-.11,.06-15.86,8.75-29.18,20.3-38.81,33.8-.44,.61-.89,1.21-1.31,1.82-8.06-9.66-12.56-21.08-12.56-32.36,0-33.33,34.44-60.44,76.77-60.44h155.39l-61.39,51.16Z"/></svg>