<?xml version="1.0" encoding="UTF-8"?><svg id="Layer_1" xmlns="http://www.w3.org/2000/svg" xmlns:xlink="http://www.w3.org/1999/xlink" viewBox="0 0 1000 1000"><defs><style>.cls-1{fill:#fff;}.cls-2{fill:url(#linear-gradient);}</style><linearGradient id="linear-gradient" x1="500" y1="1061.14" x2="500" y2="473.21" gradientUnits="userSpaceOnUse"><stop offset="0" stop-color="#e64f5f"/><stop offset=".52" stop-color="#f55465"/><stop offset="1" stop-color="#ff5869"/></linearGradient></defs><g><rect class="cls-2" x="267.24" y="156.74" width="465.53" height="465.53" rx="107.8" ry="107.8"/><g><path class="cls-1" d="M580.35,285.84l-35.82,26.97c-19.51,14.69-30.98,37.69-31,62.1v25.59s81.25-61.19,81.25-61.19c10.31-7.76,12.04-22.54,3.85-32.52-5.95-7.24-12.1-14.25-18.29-20.95Z"/><path class="cls-1" d="M468.92,518.63l-120.55-90.78c.6,77.97,65.15,124.39,138.14,129.45v-3.39c0-13.87-6.51-26.94-17.59-35.28Z"/><path class="cls-1" d="M550.08,258.32c-13.36-12.6-49.93-36.6-49.93-36.6,0,0-36.67,23.92-50.12,36.6-2.27,2.14-3.34,5.03-3.24,7.87-.1,2.84,.96,5.73,3.24,7.87,13.45,12.68,50.12,36.6,50.12,36.6,0,0,36.57-24,49.93-36.6,2.27-2.14,3.33-5.03,3.23-7.87,.1-2.84-.96-5.73-3.23-7.87Z"/><path class="cls-1" d="M629.05,347.66l-85.41,63.81c-18.74,14.11-29.47,34.74-30.34,58.09l-.1,.14v87.61h0c62.9-4.12,117.71-39.18,134-96.11,15.12-52.84-13.03-105.75-18.16-113.53Z"/><path class="cls-1" d="M486.59,374.87c0-.68,0-1.35-.03-2.03v-.05s0,0,0,0c-.62-23.67-12-45.81-30.97-60.09l-35.24-26.54c-33.99,31.84-53.27,65.17-59.7,84.07-5.53,16.25-1.54,32.59,12.84,43.42l5.45,4.28h0l107.56,78.96,.03-111.41,.05-10.6Z"/></g></g><g><path class="cls-1" d="M321.98,810.09c-5.83,1.46-11.34,2.11-16.52,2.11-24.46,0-38.23-15.87-38.23-40.98s13.93-40.98,37.58-40.98c19.44,0,31.26,9.72,31.26,25.76,0,12.47-7.61,19.6-23.81,22.03l-25.43,3.89c1.78,8.59,8.26,13.93,18.47,13.93,4.54,0,9.39-.49,12.8-1.62l7.13-1.78c1.13-.32,1.94,.16,2.27,1.3l3.24,12.15c.32,1.13-.16,1.94-1.3,2.27l-7.45,1.94Zm-12.47-46c5.67-.97,8.75-3.56,8.75-7.78,0-6.48-5.02-9.88-13.77-9.88-10.69,0-17.98,6.64-19.28,21.54l24.3-3.89Z"/><path class="cls-1" d="M367.18,739.95c.97,1.94,1.94,1.78,3.73,.16,6.32-7.13,14.42-9.88,22.35-9.88,18.47,0,29.64,11.5,29.64,30.61v47.78c0,1.13-.65,1.78-1.78,1.78h-14.42c-1.13,0-1.78-.65-1.78-1.78v-45.84c0-10.2-5.35-16.36-14.09-16.36-11.99,0-18.95,8.75-18.95,24.46v37.74c0,1.13-.65,1.78-1.78,1.78h-14.42c-1.13,0-1.78-.65-1.78-1.78v-75c0-1.13,.65-1.78,1.78-1.78h8.1c1.13,0,1.78,.49,1.94,1.62l1.46,6.48Z"/><path class="cls-1" d="M513.28,808.63c0,1.13-.65,1.78-1.78,1.78h-8.1c-1.13,0-1.78-.49-1.94-1.46l-1.78-6.8c-.49-1.46-1.62-1.78-3.24,0-5.83,6.48-13.61,10.04-22.52,10.04-21.22,0-34.02-15.87-34.02-41.14s13.61-40.82,36.28-40.82c5.51,0,9.88,.65,14.42,2.75l4.7,2.11v-39.04c0-1.13,.65-1.78,1.78-1.78h14.42c1.13,0,1.78,.65,1.78,1.78v112.58Zm-22.68-59.45c-3.89-1.78-8.26-2.75-13.28-2.75-12.31,0-19.76,9.23-19.6,24.62,0,15.39,7.13,24.78,19.11,24.78s18.63-10.2,18.63-23.81v-20.57l-4.86-2.27Z"/><path class="cls-1" d="M558.64,808.63c0,1.13-.65,1.78-1.78,1.78h-14.42c-1.13,0-1.78-.65-1.78-1.78v-60.74l-.02-14.25c0-1.13,.65-1.78,1.78-1.78h14.44c1.13,0,1.78,.65,1.78,1.78v75Z"/><path class="cls-1" d="M558.64,703.19c0,5.81-3.25,9.19-8.92,9.19s-9.06-3.38-9.06-9.19,3.38-9.06,9.06-9.06,8.92,3.38,8.92,9.06Z"/><path class="cls-1" d="M637.2,772.18c-4.86,12.47-9.72,26.4-12.47,36.77-.32,.97-.97,1.46-2.11,1.46h-17.17c-1.13,0-1.78-.49-2.11-1.46-2.75-10.37-7.61-24.14-12.47-36.77l-16.04-38.23c-.49-1.3,.16-2.11,1.46-2.11h15.06c.97,0,1.62,.49,2.11,1.3l11.5,27.21c3.56,9.56,6.48,19.44,7.78,26.73,.32,1.78,2.11,1.78,2.59,0,1.13-7.29,4.05-17.33,7.78-26.73l11.5-27.21c.49-.81,1.13-1.3,2.11-1.3h15.06c1.3,0,1.94,.81,1.46,2.11l-16.04,38.23Z"/><path class="cls-1" d="M718.67,810.09c-5.83,1.46-11.34,2.11-16.52,2.11-24.46,0-38.23-15.87-38.23-40.98s13.93-40.98,37.58-40.98c19.44,0,31.26,9.72,31.26,25.76,0,12.47-7.61,19.6-23.81,22.03l-25.43,3.89c1.78,8.59,8.26,13.93,18.47,13.93,4.54,0,9.39-.49,12.8-1.62l7.13-1.78c1.13-.32,1.94,.16,2.27,1.3l3.24,12.15c.32,1.13-.16,1.94-1.3,2.27l-7.45,1.94Zm-12.47-46c5.67-.97,8.75-3.56,8.75-7.78,0-6.48-5.02-9.88-13.77-9.88-10.69,0-17.98,6.64-19.28,21.54l24.3-3.89Z"/></g></svg>