<?xml version="1.0" encoding="UTF-8"?><svg id="Layer_1" xmlns="http://www.w3.org/2000/svg" viewBox="0 0 1000 1000"><defs><style>.cls-1{fill:#fff;}.cls-2{fill:#00d1b2;}</style></defs><g><path class="cls-2" d="M176.04,758.95c-4.52,0-10.68-1.26-12.72-1.7l.69-5.26c2.04,.26,8.06,.99,11.56,.99,4.36,0,6.75-2.02,6.75-5.7,0-2.81-1.62-4.04-7.55-5.74-8.85-2.55-11.99-5.56-11.99-11.51,0-7.3,4.64-11.31,13.07-11.31,4.39,0,10.53,1.09,12.56,1.48l-.54,5.37c-1.71-.19-8.25-.88-11.19-.88-5.73,0-6.93,2.59-6.93,4.76,0,2.91,1.74,3.85,8.64,6.03,8.65,2.76,10.89,5.08,10.89,11.28,0,7.64-4.96,12.19-13.25,12.19Z"/><path class="cls-2" d="M209.12,758.95c-8.58,0-12.08-4.18-12.08-14.42s4.18-15.24,12.43-15.24,12.25,4.16,12.25,12.72l-.54,4.92h-17.31v.38c.08,4.06,2.01,5.8,6.47,5.8,4.03,0,8.96-.37,10.33-.48l.1,4.8c-1.43,.32-7.1,1.53-11.66,1.53Zm.35-24.29c-3.99,0-5.57,1.91-5.64,6.81v.19s.24,.31,.24,.31l10.98,.05v-.37c0-5.09-1.51-6.98-5.58-6.98Z"/><path class="cls-2" d="M248.37,758.25v-15.13c0-4.15-.38-7.87-4.93-7.87-2.67,0-5.24,.98-5.53,1.09l-.06,.02-.15,.1-.11,.17-.03,21.62h-6.79v-28.26h6.73v2.05l.81-.48c.16-.09,3.97-2.27,7.06-2.27,8.12,0,9.79,5.44,9.79,13.6v15.36h-6.79Z"/><path class="cls-2" d="M265.55,758.25v-28.26h6.79v28.26h-6.79Zm0-33.09v-6.9h6.79v6.9h-6.79Z"/><path class="cls-2" d="M294.46,758.95c-8.72,0-12.96-4.87-12.96-14.89s4.24-14.77,12.96-14.77,12.96,4.83,12.96,14.77-4.24,14.89-12.96,14.89Zm0-24.05c-5.02,0-6.05,3.66-6.05,9.16s1.03,9.28,6.05,9.28,6.05-3.71,6.05-9.28-1.03-9.16-6.05-9.16Z"/><path class="cls-2" d="M316.58,758.25v-28.26h6.73v3.52l.81-.48c.47-.27,4.62-2.66,8.58-3.61v6.81c-4.35,.87-7.93,2.04-8.93,2.38l-.05,.02-.16,.08-.15,.18-.04,19.35h-6.79Z"/><path class="cls-2" d="M354.94,758.25v-38.82h14.13c9.06,0,13.66,4.48,13.66,13.31s-4.72,13.89-13.66,13.89h-7.1v11.62h-7.03Zm7.03-17.46h7.05c4.43,0,6.58-2.63,6.58-8.05s-2.03-7.46-6.58-7.46h-7.05v15.5Z"/><polygon class="cls-2" points="398.1 770.57 401.32 758.25 395.53 758.25 388.58 729.99 395.21 729.99 400.55 752.63 402.75 752.63 408.09 729.99 414.72 729.99 404.67 770.57 398.1 770.57"/><path class="cls-2" d="M432.6,758.95c-6.6,0-8.62-2.48-8.62-10.61v-12.74h-3.46v-5.61h3.46v-8.15h6.79v8.15h7.22v5.61h-7.22v12.56c0,3,0,4.82,3,4.82,1.21,0,3.05-.06,3.95-.1l.3,5.29c-1.05,.22-3.87,.77-5.42,.77Z"/><path class="cls-2" d="M464.1,758.25v-15.18c0-4.12-.38-7.81-4.94-7.81-2.58,0-5.39,.93-5.51,.97l-.06,.02-.16,.1-.11,.17-.03,21.74h-6.79v-39.99h6.79v13.49l.78-.41s4-2.05,7.03-2.05c8.12,0,9.79,5.44,9.79,13.6v15.36h-6.79Z"/><path class="cls-2" d="M492.72,758.95c-8.72,0-12.96-4.87-12.96-14.89s4.24-14.77,12.96-14.77,12.96,4.83,12.96,14.77-4.24,14.89-12.96,14.89Zm0-24.05c-5.02,0-6.05,3.66-6.05,9.16s1.03,9.28,6.05,9.28,6.05-3.71,6.05-9.28-1.03-9.16-6.05-9.16Z"/><path class="cls-2" d="M532.43,758.25v-15.13c0-4.15-.38-7.87-4.93-7.87-2.72,0-5.26,.98-5.54,1.1l-.06,.02-.15,.1-.11,.17-.03,21.61h-6.79v-28.26h6.73v2.05l.81-.48c.4-.23,4.04-2.27,7.06-2.27,8.12,0,9.79,5.44,9.79,13.6v15.36h-6.79Z"/><path class="cls-2" d="M565.57,758.25v-38.82h12.9c13.88,0,16.42,6.28,16.42,18.65,0,13.38-2.54,20.17-16.42,20.17h-12.9Zm7.02-5.96h5.87c8.54,0,9.16-5.37,9.16-14.21s-.83-12.68-9.16-12.68h-5.87v26.89Z"/><path class="cls-2" d="M615.25,758.95c-8.58,0-12.08-4.18-12.08-14.42s4.18-15.24,12.43-15.24,12.25,4.16,12.25,12.72l-.54,4.92h-17.3v.37c.07,4.07,2,5.81,6.47,5.81,3.92,0,8.68-.35,10.33-.48l.1,4.8c-1.43,.32-7.1,1.53-11.66,1.53Zm.35-24.29c-3.99,0-5.57,1.91-5.64,6.81v.19s.24,.31,.24,.31l10.98,.05v-.37c0-5.09-1.51-6.98-5.58-6.98Z"/><polygon class="cls-2" points="640.72 758.25 633.93 729.99 641.03 729.99 645.72 752.63 648.24 752.63 653.16 729.99 660.03 729.99 653.24 758.25 640.72 758.25"/><path class="cls-2" d="M678.3,758.95c-8.58,0-12.08-4.18-12.08-14.42s4.18-15.24,12.43-15.24,12.25,4.16,12.25,12.72l-.54,4.92h-17.31v.38c.08,4.06,2.01,5.8,6.47,5.8,4.03,0,8.96-.37,10.33-.48l.09,4.8c-1.76,.4-7.13,1.53-11.65,1.53Zm.35-24.29c-3.99,0-5.57,1.91-5.64,6.81v.19s.24,.31,.24,.31l10.98,.05v-.37c0-5.09-1.51-6.98-5.58-6.98Z"/><rect class="cls-2" x="700.3" y="718.26" width="6.79" height="39.99"/><path class="cls-2" d="M729.57,758.95c-8.72,0-12.96-4.87-12.96-14.89s4.24-14.77,12.96-14.77,12.96,4.83,12.96,14.77-4.24,14.89-12.96,14.89Zm0-24.05c-5.02,0-6.05,3.66-6.05,9.16s1.03,9.28,6.05,9.28,6.05-3.71,6.05-9.28-1.03-9.16-6.05-9.16Z"/><path class="cls-2" d="M751.69,770.57v-40.58h6.73v2l.81-.49s3.72-2.21,6.41-2.21c7.72,0,11.02,4.37,11.02,14.6,0,12.6-4.69,15.07-12.78,15.07-1.99,0-4.49-.41-4.77-.46l-.63-.11v12.19h-6.79Zm12.43-35.32c-2.41,0-5.02,1.09-5.31,1.22l-.05,.02-.14,.1-.1,.17-.03,16.05,.16,.02c.84,.11,3.13,.4,4.66,.4,5.43,0,6.46-3.28,6.46-9.34s-1.84-8.63-5.64-8.63Z"/><path class="cls-2" d="M796.55,758.95c-8.58,0-12.08-4.18-12.08-14.42s4.18-15.24,12.43-15.24,12.25,4.16,12.25,12.72l-.54,4.92h-17.31v.38c.08,4.06,2.01,5.8,6.47,5.8,4.03,0,8.96-.37,10.33-.48l.1,4.8c-1.43,.32-7.1,1.53-11.66,1.53Zm.35-24.29c-3.94,0-5.58,1.97-5.64,6.81v.19s.24,.31,.24,.31l10.98,.05v-.37c0-5.09-1.51-6.98-5.58-6.98Z"/><path class="cls-2" d="M818.2,758.25v-28.26h6.73v3.52l.81-.48c.47-.27,4.62-2.66,8.58-3.61v6.81c-4.49,.9-8.23,2.14-8.94,2.39l-.05,.02-.16,.09-.14,.18-.04,19.35h-6.79Z"/></g><g><path class="cls-1" d="M87.26,673.75c-.69,0-1.1-.4-1.1-1.09v-76.78c0-.69,.4-1.09,1.1-1.09h54.07c.35,0,.62,.1,.76,.28,.17,.21,.21,.54,.11,.96l-3.59,13.02c-.18,.63-.6,.97-1.22,.97h-33.76v15.57h27.91c.69,0,1.1,.4,1.1,1.09v12.93c0,.69-.4,1.09-1.1,1.09h-27.91v17.94h37.13c.69,0,1.1,.4,1.1,1.09v12.93c0,.69-.4,1.09-1.1,1.09h-53.51Z"/><path class="cls-1" d="M164.03,673.75c-.69,0-1.09-.4-1.09-1.09v-76.78c0-.69,.4-1.09,1.09-1.09h27.88c21.96,0,35.61,15.15,35.61,39.54s-13.98,39.43-35.61,39.43h-27.88Zm16.39-15.12h11.49c11.28,0,18.02-9.09,18.02-24.31s-6.73-24.31-18.02-24.31h-11.49v48.63Z"/><path class="cls-1" d="M278.92,674.98c-20.06,0-31.56-12.32-31.56-33.81v-45.3c0-.69,.4-1.09,1.09-1.09h15.29c.69,0,1.1,.4,1.1,1.09v45.3c0,11.67,5.13,18.36,14.08,18.36s14.08-6.69,14.08-18.36v-45.3c0-.69,.4-1.09,1.1-1.09h15.18c.7,0,1.1,.4,1.1,1.09v45.3c0,21.48-11.46,33.81-31.45,33.81Z"/><path class="cls-1" d="M385.26,673.75c-.66,0-1.08-.28-1.35-.9l-3.45-9.67h-33.57l-3.46,9.69c-.26,.61-.68,.88-1.34,.88h-15.85c-.42,0-.72-.11-.87-.31-.14-.2-.15-.51-.02-.9l15.85-42.93c3.59-9.9,7.67-21.66,10.69-33.88,.18-.64,.62-.96,1.33-.96h20.91c.71,0,1.15,.32,1.33,.97,3.02,12.2,7.1,23.97,10.69,33.86l15.85,42.95c.12,.37,.11,.69-.03,.88-.15,.2-.45,.31-.87,.31h-15.85Zm-21.58-58.68c-.64,0-1.17,.51-1.37,1.29-1.22,6.1-3.98,15.08-8.2,26.72l-1.75,4.99h22.62l-1.74-4.99c-4.42-12.04-7.1-20.78-8.19-26.7-.2-.8-.74-1.31-1.37-1.31Z"/><path class="cls-1" d="M469.01,673.75c-.73,0-1.06-.22-1.35-.9l-4.94-12.03c-3.85-9.31-7.36-15.4-20.46-15.4h-3.52v27.24c0,.69-.4,1.09-1.09,1.09h-15.29c-.69,0-1.1-.4-1.1-1.09v-76.78c0-.69,.4-1.09,1.1-1.09h31.37c17.51,0,27.96,8.98,27.96,24.03,0,13-9.99,18.43-13.05,19.79-.95,.47-1.36,.88-1.37,1.38-.02,.48,.35,.9,1.22,1.41,4.95,3.04,7.75,8.12,9.63,12.2l7.86,18.98c.13,.38,.11,.69-.03,.89-.17,.24-.5,.28-.75,.28h-16.19Zm-30.27-43.45h12.62c8.68,0,12.73-3.22,12.73-10.15,0-6.07-4.17-10.15-10.37-10.15h-14.98v20.3Z"/><path class="cls-1" d="M507,673.75c-.69,0-1.1-.4-1.1-1.09v-76.78c0-.69,.4-1.09,1.1-1.09h27.88c21.96,0,35.61,15.15,35.61,39.54s-13.98,39.43-35.61,39.43h-27.88Zm16.38-15.12h11.49c11.28,0,18.02-9.09,18.02-24.31s-6.73-24.31-18.02-24.31h-11.49v48.63Z"/><path class="cls-1" d="M622.9,673.75c-.69,0-1.1-.4-1.1-1.09v-76.78c0-.69,.4-1.09,1.1-1.09h54.07c.35,0,.62,.1,.76,.28,.17,.21,.21,.54,.11,.96l-3.59,13.02c-.18,.63-.6,.97-1.22,.97h-33.76v15.57h27.91c.69,0,1.1,.4,1.1,1.09v12.93c0,.69-.4,1.09-1.1,1.09h-27.91v17.94h37.13c.69,0,1.1,.4,1.1,1.09v12.93c0,.69-.4,1.09-1.1,1.09h-53.51Z"/><path class="cls-1" d="M748.03,673.75c-.73,0-1.06-.22-1.35-.9l-4.94-12.02c-3.85-9.31-7.36-15.4-20.46-15.4h-3.52v27.24c0,.69-.4,1.09-1.09,1.09h-15.29c-.69,0-1.1-.4-1.1-1.09v-76.78c0-.69,.4-1.09,1.1-1.09h31.37c17.51,0,27.96,8.98,27.96,24.03,0,13-9.99,18.43-13.05,19.79-.95,.47-1.36,.88-1.37,1.38-.02,.48,.35,.9,1.22,1.41,4.95,3.04,7.75,8.12,9.63,12.2l7.86,18.98c.13,.38,.11,.69-.03,.89-.17,.24-.5,.28-.75,.28h-16.19Zm-30.27-43.45h12.62c8.69,0,12.73-3.22,12.73-10.15,0-6.07-4.17-10.15-10.37-10.15h-14.98v20.3Z"/><path class="cls-1" d="M794.43,674.98c-4.53,0-8.06-.66-12.57-2.34l-3.15-1.13c-.66-.17-.86-.59-.67-1.36l4.6-12.33c.14-.54,.4-.79,.81-.79,.15,0,.33,.04,.51,.11l3.27,1.13c2.34,.89,4.43,1.26,7.2,1.26,5.31,0,8.24-4.2,8.24-11.83v-51.83c0-.69,.4-1.09,1.1-1.09h15.18c.69,0,1.1,.4,1.1,1.09v51.71c0,17.16-9.57,27.4-25.6,27.4Z"/><path class="cls-1" d="M894.92,673.75c-.66,0-1.08-.28-1.35-.9l-3.45-9.67h-33.57l-3.46,9.69c-.26,.61-.68,.88-1.34,.88h-15.85c-.42,0-.72-.11-.87-.31-.14-.2-.15-.51-.02-.9l15.85-42.93c3.59-9.9,7.67-21.67,10.69-33.88,.18-.64,.62-.96,1.33-.96h20.91c.71,0,1.15,.32,1.33,.97,3.02,12.2,7.1,23.97,10.69,33.86l15.85,42.95c.12,.37,.11,.69-.03,.88-.15,.2-.45,.31-.87,.31h-15.85Zm-21.58-58.68c-.64,0-1.17,.51-1.37,1.29-1.22,6.09-3.98,15.07-8.2,26.72l-1.75,4.99h22.62l-1.74-4.99c-4.42-12.03-7.1-20.76-8.19-26.7-.2-.8-.74-1.31-1.37-1.31Z"/></g><g><path class="cls-2" d="M478.6,530.92c-1.53,0-2.97-.6-4.05-1.68l-145.7-145.7c-1.08-1.08-1.67-2.52-1.67-4.05s.59-2.97,1.67-4.05l40.71-40.72,64.27-64.26c1.08-1.08,2.52-1.68,4.05-1.68s2.97,.6,4.05,1.68l40.68,40.68c1.11,1.08,1.72,2.53,1.72,4.08v65.4c0,2.53-2.06,4.59-4.6,4.59h-51.58l54.48,54.48c1.08,1.08,1.68,2.52,1.68,4.05v81.45c.01,2.32-1.38,4.4-3.52,5.29-.7,.29-1.43,.44-2.19,.44Zm-104.99-182.83c-.79,0-1.53,.31-2.09,.87l-28.43,28.44c-.56,.56-.87,1.3-.87,2.09s.31,1.54,.87,2.09l127.45,127.45c.27,.27,.59,.4,.95,.4s.7-.14,.96-.38c.28-.26,.42-.59,.42-.99v-59.81c0-1.38-.55-2.68-1.52-3.65l-95.65-95.65c-.56-.56-1.3-.87-2.09-.87Zm54.55,25.67h41.77c1.62,0,2.94-1.32,2.94-2.95v-41.78l-44.72,44.73Zm9.72-89.94c-.78,0-1.52,.3-2.07,.86l-52.03,52.02c-.55,.55-.86,1.29-.86,2.07s.3,1.52,.86,2.07l28.48,28.48c.55,.55,1.29,.86,2.07,.86s1.52-.31,2.07-.86l52.02-52.03c.55-.55,.86-1.29,.86-2.07s-.3-1.52-.86-2.07l-28.47-28.47c-.55-.55-1.29-.86-2.07-.86Z"/><path class="cls-2" d="M560.04,490.2c-1.53,0-2.97-.6-4.05-1.68l-40.67-40.69c-.28-.27-.54-.59-.76-.93l-.1-.18c-.15-.23-.3-.52-.42-.81-.03-.07-.05-.15-.07-.23-.1-.3-.19-.56-.24-.84-.03-.11-.03-.22-.04-.33l-.03-.28c-.02-.17-.04-.33-.04-.49v-128.65s-.19-81.49-.19-81.49c0-2.33,1.38-4.41,3.53-5.3,.7-.29,1.44-.44,2.2-.44,1.53,0,2.97,.6,4.05,1.68l105.18,105.17,40.71,40.72c1.08,1.08,1.67,2.52,1.67,4.05s-.6,2.97-1.68,4.05l-104.98,104.98c-1.08,1.08-2.52,1.68-4.05,1.68Zm23.56-100.9c-1.1,0-2.14,.43-2.92,1.21l-50.34,50.33c-1.61,1.61-1.61,4.23,0,5.84l26.78,26.78c.78,.78,1.82,1.21,2.92,1.21s2.14-.43,2.92-1.21l50.33-50.33c1.61-1.61,1.61-4.23,0-5.84l-26.78-26.78c-.78-.78-1.81-1.21-2.92-1.21Zm-57.95-59.42c-.25,0-.6,.18-.6,.6v98.03c0,.41,.35,.59,.6,.59l.38-.15,46.58-46.56c.77-.77,1.2-1.8,1.2-2.89s-.42-2.12-1.2-2.89l-46.6-46.6-.33-.12h-.03Zm-.05-81.43c-.19,0-.37,.08-.51,.21-.13,.13-.19,.3-.19,.49l.15,63.55,96.38,96.53c.77,.77,1.79,1.19,2.88,1.19s2.11-.42,2.88-1.19l26.85-26.85c.77-.77,1.19-1.79,1.19-2.88,0-1.09-.42-2.11-1.19-2.88l-127.96-127.96c-.14-.14-.3-.21-.48-.21Z"/></g></svg>