<?xml version="1.0" encoding="UTF-8"?><svg id="Layer_1" xmlns="http://www.w3.org/2000/svg" viewBox="0 0 1000 1000"><defs><style>.cls-1{fill:#e8e8e8;}</style></defs><g id="Color"><path class="cls-1" d="M721.82,466.01c-14.28-14.37-35.17-21.73-62.9-21.78-1.19-.07-2.38-.19-3.59-.19h-138.89l12.16,7.02c.35,.2,34.99,20,52.74,29.42l8.9,4.74-3.7-9.36c-1.85-4.7-2.96-9.11-3.37-13.11,4.46,0,8.43-.01,12.55-.02,27.38-.07,51.1-.12,64.66,2.1,26.61,7.67,28,24.88,26.24,39.04-.78,6.21-7.37,15.6-18.48,21.53-7.76,4.14-23.8,9.56-44.07-.63-77.52-38.99-143.59-47.69-171.05-49.62,10.88-10.76,17.26-23.52,17.58-24.18l2.58-4.83h-5.93c-74.43,0-109.69,32.81-114.24,37.4-50.61,11.38-93.28,33.33-122.55,64l-2.45,2.56,2.45,2.56c35.11,36.71,91.21,60.8,158.06,68.8l.23,.58s.37-.16,.94-.44c11.94,1.39,24.22,2.13,36.78,2.48,6,6.22,33.12,31.63,73.76,31.63h4.02l-.32-3.86c-.05-.68-1.34-14.77-14.5-28.04,65.56-2.64,176.9-14.3,225.87-61.75,16.08-15.59,24.31-33.99,24.31-54.7,0-.94,.11-23.32-17.8-41.34Zm-177.31-13.59h32.08c-1.39,4.19-1.31,11.32,.22,18.02-10.38-5.67-23.11-13.83-32.3-18.02Zm-83.61,.26c-3.56,5.88-10.1,15.34-18.7,21.94-1.74-.04-2.7-.02-2.78-.02-25-.18-49.05,1.85-71.69,5.91,14.26-10.16,44.55-26.49,93.16-27.83Zm34.82,195.75c-27.39-1.43-48-15.54-58.06-24.05,.39,0,.77,.01,1.16,.01,1.28,.04,6.97,.2,15.94,.2,6.41,0,14.49-.08,23.84-.35,11.39,8.67,15.6,18.69,17.11,24.18Zm214.34-91.68c-67.86,65.78-268.98,60.29-271.13,60.22-13.31,0-26.31-.26-38.95-1.43,10.94-8.18,25.94-24.8,25.94-49.95h-7.43c0,31.44-22.11,44.8-29.89,48.72-63.22-7.69-116.33-30.19-150.24-64.07,34.29-34.41,86.61-56.61,148.34-64.49,5.41,3.12,31.79,19.08,31.79,50.51h7.43c0-27.25-16.59-43.83-27.54-51.89,13.33-1.28,27.04-2.17,41.08-2.08,.81-.02,81.06-1.15,181.27,49.25,23.26,11.7,41.88,5.3,50.9,.49,11.96-6.38,21.15-17.59,22.35-27.2,3.09-24.76-7.31-40.2-31.78-47.18l-.42-.1c-14.15-2.36-38.24-2.31-66.09-2.24-4.05,0-7.95,.43-12.33,.43,.23-1.32,.55-1.22,1.01-3.32h70.94c28.8,0,52.23,21.03,52.23,47.16s-23.43,47.16-52.23,47.16H376.16c-.74-8.38-10.3-13.18-22.84-13.18s-22.91,5.88-22.91,13.83,9.85,13.51,22.91,13.51c9.15,0,16.71-3.68,20.42-7.87h281.6c32.9,0,59.66-24.19,59.66-54.41,0-16.58-8.07-31.28-20.78-41.34,8.78,3.22,16.35,7.88,22.24,13.79,15.75,15.78,15.57,36.02,15.57,36.24,0,18.65-7.39,35.32-21.97,49.46Zm-341.26-9.46c0,2.59-6.17,6.5-15.48,6.5s-15.48-3.91-15.48-6.5,6.17-6.5,15.48-6.5,15.48,3.91,15.48,6.5Z"/><g><path class="cls-1" d="M128.17,473.56l-16.29-24.47,7.45-4.96,19.18,14.11c4.61-1.15,9.71-3.58,15.3-7.3,6.03-4.01,10.53-8.54,13.51-13.59,2.97-5.05,3.08-9.66,.3-13.83-.65-.98-1.38-1.83-2.19-2.57-.81-.74-1.75-1.33-2.81-1.77-1.06-.44-2.08-.82-3.06-1.13-.98-.31-2.25-.49-3.81-.53s-2.91-.05-4.03,0c-1.12,.05-2.73,.18-4.81,.42-2.08,.23-5.7,.72-10.84,1.45l-6.29,.93c-11.61,1.59-20.88,1.32-27.79-.8-6.91-2.12-12.64-6.59-17.18-13.42-4.84-7.27-5.71-15.11-2.6-23.51,3.11-8.4,9.45-15.79,19.03-22.17,10.73-7.14,21.31-12.2,31.74-15.18l16.29,24.47-7.45,4.96-18.38-13.49c-4.17,1.62-7.94,3.56-11.3,5.8-5.23,3.48-9.11,7.37-11.62,11.67-2.52,4.3-2.62,8.17-.32,11.63,2.07,3.1,5.28,4.71,9.63,4.82,4.36,.11,11.47-.69,21.34-2.4l3.46-.57c11.76-1.94,21.42-1.84,28.98,.29,7.56,2.14,13.7,6.75,18.43,13.84,4.43,6.65,6.38,13.19,5.86,19.61-.52,6.43-2.88,12.35-7.08,17.77-4.2,5.42-9.76,10.43-16.67,15.03-11,7.32-22.98,12.29-35.95,14.91Z"/><path class="cls-1" d="M246.14,413.29c-5.54,2.48-11.15,3.83-16.84,4.04-5.68,.21-11.04-.6-16.06-2.44-5.02-1.83-9.62-4.68-13.8-8.52-4.17-3.85-7.53-8.59-10.05-14.23-2.52-5.64-3.82-11.27-3.89-16.9-.07-5.63,.88-10.93,2.86-15.9,1.98-4.97,4.94-9.48,8.91-13.53,3.96-4.05,8.71-7.32,14.26-9.8,5.54-2.48,11.12-3.84,16.73-4.08,5.61-.24,10.95,.55,16.03,2.36,5.07,1.81,9.66,4.63,13.77,8.45,4.1,3.82,7.42,8.55,9.94,14.19,2.48,5.54,3.79,11.14,3.94,16.8,.14,5.66-.79,11-2.79,16.04-2,5.04-4.95,9.6-8.84,13.68-3.89,4.08-8.61,7.36-14.15,9.84Zm-33.27-31.67c4.09,9.14,8.64,15.71,13.65,19.71,5,4,10.13,4.83,15.38,2.48,5.25-2.35,8.05-6.73,8.39-13.13,.34-6.4-1.53-14.17-5.63-23.31-4.05-9.04-8.57-15.54-13.55-19.49-4.98-3.95-10.1-4.76-15.35-2.4-5.25,2.35-8.06,6.7-8.42,13.05-.37,6.35,1.48,14.04,5.53,23.09Z"/><path class="cls-1" d="M267.71,323.27l-2.16-8.19,36.92-9.75,14.07,53.3c1.39,5.25,2.99,8.71,4.81,10.38,1.82,1.67,4.68,1.99,8.6,.95,2.99-.79,5.87-2.38,8.66-4.76,2.78-2.39,4.81-5.13,6.09-8.22l-12.52-47.43-10.86-.44-2.16-8.19,33.99-8.97,17.34,65.66,12.05-3.18,1.76,6.64c-1.86,2.14-3.4,3.73-4.61,4.77-1.21,1.04-2.58,2.12-4.1,3.23-1.52,1.12-3.15,2.07-4.87,2.85-1.72,.78-3.35,1.38-4.9,1.79-7.42,1.96-13.5-.02-18.26-5.92-5.55,8.63-13.62,14.34-24.23,17.14-15.76,4.16-25.77-1.84-30.04-18.01l-11.63-44.03-13.95,.38Z"/><path class="cls-1" d="M379.95,298.91l-.85-6.33,24.34-22.79,5.86-.79,2.05,15.2,19.53-3.44,1.49,11.09-19.64,2.64,6.1,45.29c.7,5.17,1.77,8.74,3.21,10.69,1.45,1.96,3.96,2.69,7.55,2.21,2.64-.36,6.05-1.78,10.22-4.28l3.73,8.53c-5.88,4.23-12.36,6.82-19.43,7.78-17.53,2.36-27.38-4.59-29.57-20.85l-6.21-46.08-8.39,1.13Z"/><path class="cls-1" d="M443.9,358.24l-.14-8.47,13.53-3.41-1.62-101.61-13.58,.22-.13-8.47,25.47-6.48,12.62-.2,.89,55.76c6.39-6.92,14.38-10.46,23.96-10.61,4.16-.07,7.92,.49,11.29,1.66,3.38,1.17,6.22,2.86,8.55,5.06,2.32,2.2,4.15,4.84,5.48,7.9,1.33,3.07,2.02,6.41,2.08,10.03l.72,45.53,13.63,2.98,.14,8.47-48.57,.77-.13-8.47,10.33-3.36-.65-41.06c-.09-5.32-.76-9.23-2.02-11.71-1.27-2.48-3.92-3.69-7.97-3.63-2.13,.03-4.63,.61-7.48,1.72-2.86,1.11-5.92,2.97-9.18,5.58l.79,49.53,10.44,3.03,.13,8.47-48.57,.77Z"/><path class="cls-1" d="M583.83,359.17l1.47-8.83,15.08-1.05,14.31-85.74-13.92-5.89,1.47-8.83,83.69,13.97-5.39,32.31-9.3-1.55-2.91-21.38-27.9-4.65-6.13,36.72,29.76,2.21-2.6,15.6-28.92-7.26-6.52,39.09,28.21,4.71,14.4-20.28,9.3,1.55-10.41,33.25-83.69-13.97Z"/><path class="cls-1" d="M684.78,356.8c2.89-8.8,8.71-14.32,17.46-16.55,8.75-2.22,21.22-.68,37.41,4.64l1.5-4.55c1-3.04,1.7-5.25,2.1-6.63,.39-1.38,.71-3.1,.94-5.16,.23-2.05,.09-3.61-.4-4.67-.49-1.06-1.39-2.17-2.69-3.32-1.3-1.16-3.07-2.1-5.29-2.83l-24.77,10.36c-5.58-6.21-7.01-13.46-4.29-21.76l5.2-.48c2.19-.18,6.29-.03,12.31,.43,6.01,.46,11.65,1.56,16.92,3.29,21.76,7.15,29.77,19.43,24.05,36.84l-13.37,40.68,11.84,3.89-2.15,6.53c-.67,.34-1.59,.77-2.77,1.27-1.18,.51-3.5,.93-6.97,1.24-3.47,.32-6.82-.06-10.06-1.12-7.69-2.53-12.56-6.99-14.61-13.38-8.48,2.93-16.71,3.08-24.71,.46-6.98-2.29-12.24-5.99-15.79-11.08-3.54-5.09-4.16-11.12-1.87-18.11Zm24.89,6.67c-.97,2.94-.74,5.59,.67,7.96,1.41,2.37,3.53,4.02,6.36,4.95,4.55,1.5,8.9,1.08,13.03-1.27l6.84-20.8c-5.67-1.86-11.17-2.02-16.5-.46-5.34,1.56-8.8,4.76-10.4,9.62Z"/><path class="cls-1" d="M763.73,403.49l10.26-20.42,8,4.02-1.96,16.72c3.33,1.91,6,3.37,8,4.37,11.13,5.6,17.92,5.97,20.36,1.11,1-2,.88-4.24-.38-6.72-1.26-2.48-2.58-4.6-3.95-6.37-1.38-1.76-4.04-5.01-7.98-9.73-5.13-6.16-8.28-11.82-9.44-16.99-1.16-5.17-.28-10.66,2.64-16.47,3.59-7.14,9.19-11.12,16.82-11.94,7.62-.82,16.1,1.12,25.43,5.8,8.47,4.25,15.3,8.82,20.48,13.69l-9.75,19.42-7.43-3.73,1.89-14.79c-2.62-1.91-5.35-3.58-8.21-5.02-9.14-4.59-14.83-4.65-17.08-.17-.58,1.14-.74,2.55-.51,4.21,.23,1.67,1.16,3.68,2.78,6.04,1.61,2.36,4.32,5.81,8.13,10.34,6.7,8.25,10.65,14.98,11.86,20.17,1.2,5.2,.25,10.89-2.85,17.07-3.54,7.04-9.14,10.96-16.82,11.76-7.67,.8-16.32-1.22-25.93-6.05-9.04-4.54-17.16-9.99-24.34-16.34Z"/><path class="cls-1" d="M864.9,380.45l3.59-5.29,33.33-.74,4.89,3.32-8.61,12.69,16.84,10.47-6.28,9.25-16.39-11.13-25.67,37.81c-2.93,4.32-4.51,7.69-4.74,10.11-.23,2.42,1.16,4.65,4.15,6.68,2.2,1.49,5.69,2.71,10.47,3.63l-2.91,8.84c-7.21-.77-13.76-3.16-19.66-7.17-14.63-9.93-17.34-21.68-8.12-35.26l26.12-38.47-7.01-4.76Z"/></g><g><path class="cls-1" d="M332.2,749.44l2.09-8.74,2.81,.67,.79,6.98c1.37,.59,2.93,1.09,4.68,1.51,2.61,.62,4.53,.73,5.78,.31,1.24-.41,2.06-1.44,2.45-3.07,.3-1.26-.04-2.46-1.02-3.57-.98-1.12-2.78-2.59-5.41-4.43-2.46-1.79-4.26-3.66-5.39-5.59-1.13-1.93-1.41-4.1-.84-6.5,.65-2.73,2.3-4.54,4.95-5.44,2.65-.9,5.83-.9,9.54-.01,3.22,.77,6.04,1.85,8.47,3.25l-1.99,8.32-2.57-.61-.64-6.23c-1.11-.61-2.45-1.1-4.04-1.48-2.2-.53-3.82-.56-4.86-.09-1.04,.46-1.72,1.37-2.04,2.71-.19,.78-.07,1.54,.36,2.28,.42,.75,.95,1.4,1.57,1.96,.62,.56,1.64,1.37,3.07,2.45,3.34,2.44,5.63,4.63,6.86,6.59,1.23,1.96,1.56,4.18,.96,6.66-.71,2.98-2.46,4.96-5.24,5.96-2.78,.99-6.11,1.03-9.98,.1-3.83-.92-7.29-2.24-10.37-3.96Z"/><path class="cls-1" d="M362.96,757.02l.5-2.66,5.48-.26,4.1-22-5.25-.98,.5-2.66,10.33-.51,2.72,.51-5.03,27.01,5.02,2.21-.5,2.66-17.86-3.33Zm21.17-37.76c-.24,1.28-.88,2.28-1.93,3-1.05,.72-2.22,.96-3.49,.72-1.28-.24-2.28-.88-3-1.93-.72-1.05-.96-2.21-.72-3.49,.24-1.28,.88-2.28,1.93-3,1.05-.72,2.21-.96,3.49-.72,1.28,.24,2.28,.87,3,1.9,.72,1.03,.96,2.21,.72,3.52Z"/><path class="cls-1" d="M386.91,761.56l.34-2.68,5.46-.58,2.81-22.21-5.3-.67,.34-2.68,10.28-1.11,2.81,.36-.38,2.99c3.49-2.22,7.01-3.1,10.54-2.66,3.24,.41,5.68,1.65,7.32,3.72,1.64,2.07,2.28,4.53,1.91,7.4l-2.33,18.4,5.14,1.92-.34,2.68-16.78-2.13,.34-2.68,4.21-.73,2.19-17.28c.54-4.24-1-6.59-4.62-7.05-2.45-.31-5.13,.32-8.04,1.9l-2.63,20.77,3.9,1.76-.34,2.68-16.84-2.13Z"/><path class="cls-1" d="M432.72,751.23c.32-4.98,2.09-8.92,5.32-11.82,3.23-2.9,7-4.22,11.31-3.95,3.72,.24,7.01,1.33,9.87,3.27-.13,1.42-.63,2.7-1.5,3.84-.87,1.14-1.82,1.95-2.86,2.43l-5.66-6.09-.38-.02c-2.16,.24-4.04,1.48-5.65,3.7-1.61,2.23-2.54,5.23-2.77,8.99-.27,4.31,.52,7.53,2.38,9.66,1.86,2.13,4.42,3.3,7.68,3.51,2.55,.16,4.93-.27,7.14-1.31l.87,3.14c-3.63,1.66-7.27,2.37-10.91,2.14-4.52-.29-8.2-1.98-11.05-5.08-2.85-3.1-4.11-7.24-3.78-12.43Z"/><path class="cls-1" d="M464.51,752.61c.05-4.61,1.41-8.46,4.08-11.56,2.67-3.09,6.34-4.62,10.99-4.57,2.43,.03,4.55,.5,6.37,1.42,1.81,.92,3.25,2.18,4.3,3.79,1.05,1.6,1.82,3.39,2.3,5.37,.48,1.98,.71,4.12,.69,6.42l-21.25-.22c.26,3.42,1.38,6.34,3.37,8.76,1.99,2.42,4.72,3.65,8.2,3.68,2.22,.02,4.64-.41,7.24-1.31l1.04,2.97c-3.92,1.68-7.63,2.5-11.16,2.46-5.07-.05-9.05-1.75-11.92-5.09-2.88-3.34-4.29-7.38-4.24-12.12Zm7.51-2.5l13.46-.87c-.1-2.5-.66-4.67-1.69-6.51-1.03-1.84-2.51-2.77-4.44-2.79-2.1-.02-3.81,.94-5.15,2.88-1.34,1.94-2.07,4.37-2.18,7.29Z"/><path class="cls-1" d="M513.03,731.34l12.79-7.81,2.95-.19,2.56,40.03,5.41,.85,.17,2.7-20.2,1.29-.17-2.7,7.14-1.72-2.15-33.63-7.33,3.68-1.17-2.51Z"/><path class="cls-1" d="M540.4,736.15c-.48-4.08,.37-7.64,2.54-10.68,2.18-3.04,5.55-4.83,10.13-5.37,5.08-.6,9.19,.75,12.34,4.03,3.15,3.28,5.07,7.88,5.77,13.79,.86,7.37-.69,13.8-4.67,19.29-3.98,5.49-9.92,8.7-17.83,9.62l-.42-3.56c4.99-.63,8.84-2.76,11.56-6.41,2.72-3.64,4.19-8.1,4.41-13.38-2.49,2.87-5.57,4.51-9.23,4.94-4.12,.48-7.47-.44-10.04-2.78-2.57-2.34-4.1-5.5-4.56-9.5Zm7.62-1.97c.34,2.87,1.32,5.16,2.96,6.87,1.63,1.71,3.72,2.41,6.26,2.11,2.71-.32,5.05-1.39,7.03-3.23l-.2-1.75c-.53-4.5-1.69-8.15-3.5-10.95-1.81-2.8-4.04-4.05-6.7-3.74-2.08,.24-3.65,1.43-4.71,3.56-1.06,2.13-1.43,4.5-1.13,7.13Z"/><path class="cls-1" d="M576.75,731.73c-.74-4.04-.12-7.65,1.85-10.82,1.98-3.18,5.23-5.18,9.76-6.01,5.03-.92,9.22,.15,12.58,3.22,3.35,3.07,5.57,7.53,6.64,13.39,1.34,7.3,.2,13.81-3.41,19.55-3.61,5.73-9.34,9.32-17.17,10.76l-.65-3.53c4.94-.95,8.65-3.33,11.12-7.14,2.47-3.81,3.66-8.36,3.54-13.64-2.3,3.02-5.27,4.87-8.89,5.53-4.08,.75-7.48,.04-10.2-2.12-2.72-2.16-4.44-5.23-5.17-9.18Zm7.47-2.46c.52,2.84,1.65,5.07,3.4,6.66,1.74,1.6,3.87,2.17,6.39,1.7,2.68-.49,4.95-1.72,6.81-3.68l-.32-1.73c-.82-4.45-2.22-8.02-4.2-10.7-1.98-2.68-4.3-3.78-6.93-3.3-2.06,.38-3.55,1.66-4.47,3.86-.92,2.19-1.14,4.59-.66,7.19Z"/><path class="cls-1" d="M616.51,746.51l-.67-2.62,15.35-37.62,2.98-.77,7.68,29.97,4.81-1.23,1.09,4.26-4.81,1.23,2.39,9.32-6.52,1.67-2.39-9.32-19.91,5.1Zm5.48-5.95l13.34-3.42-4.56-17.78-8.78,21.2Z"/></g></g></svg>