<?xml version="1.0" encoding="UTF-8"?><svg id="Layer_1" xmlns="http://www.w3.org/2000/svg" viewBox="0 0 923.3 1000"><defs><style>.cls-1{fill:#291e33;}</style></defs><g id="Logo_Circle_1_expanded"><path class="cls-1" d="M603.77,623.87h-59.95v-125.15l-65.57,125.15h-38.22l-65.95-125.9v125.9h-59.95v-251.05h60.7l84.3,155.5,84.31-155.5h60.32v251.05Z"/><path class="cls-1" d="M449.29,905.75h19.23c0,12.24,25.27,37.51,37.51,37.51v19.23c-12.24,0-37.51,25.23-37.51,37.51h-19.23c0-12.28-25.23-37.51-37.51-37.51v-19.23c12.28,0,37.51-25.27,37.51-37.51Z"/><circle class="cls-1" cx="458.95" cy="43.86" r="43.86"/><g><path class="cls-1" d="M65.33,790.12c-12.96,0-25.48-3.86-36.2-11.17-7.11-4.85-8.95-14.55-4.1-21.67,4.85-7.11,14.55-8.95,21.67-4.1,6.11,4.16,13.31,6.14,20.79,5.68l.44-.03c8.59-.55,16.02,5.95,16.58,14.54,.56,8.54-5.87,15.93-14.39,16.57l-.29,.02c-1.51,.1-3.03,.16-4.51,.16Z"/><path class="cls-1" d="M105.78,768.67c-3.01,0-6.05-.87-8.73-2.69-7.13-4.83-8.99-14.53-4.16-21.66,3.73-5.5,5.7-11.91,5.7-18.55,0-.74-.02-1.48-.07-2.23l-.02-.33c-.56-8.6,5.95-16.02,14.55-16.58,8.57-.55,15.96,5.91,16.57,14.46v.16c.12,1.5,.17,3.02,.17,4.52,0,12.9-3.83,25.36-11.07,36.05-3.02,4.45-7.92,6.85-12.92,6.85Z"/><path class="cls-1" d="M65.31,661.33c12.96-.02,25.49,3.82,36.22,11.1,7.12,4.84,8.98,14.54,4.14,21.66-4.84,7.12-14.53,8.98-21.66,4.14-6.12-4.15-13.32-6.11-20.8-5.64l-.44,.03c-8.59,.56-16.03-5.92-16.61-14.51-.58-8.54,5.84-15.94,14.36-16.6l.29-.02c1.51-.11,3.03-.16,4.51-.17Z"/><path class="cls-1" d="M24.95,682.71c3.01,0,6.06,.86,8.74,2.67,7.14,4.82,9.02,14.51,4.2,21.65-3.72,5.51-5.67,11.92-5.66,18.56,0,.74,.03,1.48,.08,2.23l.02,.33c.58,8.59-5.92,16.03-14.51,16.6-8.57,.57-15.98-5.88-16.6-14.43v-.16c-.12-1.5-.17-3.02-.18-4.52-.02-12.9,3.78-25.37,11-36.07,3.01-4.45,7.91-6.86,12.91-6.87Z"/></g><g><g><path class="cls-1" d="M852.52,341.81c-8.61,0-15.59-6.98-15.59-15.59v-24.32c0-8.61,6.98-15.59,15.59-15.59s15.59,6.98,15.59,15.59v24.32c0,8.61-6.98,15.59-15.59,15.59Z"/><path class="cls-1" d="M852.52,255.76c-8.61,0-15.59-6.98-15.59-15.59v-24.32c0-8.61,6.98-15.59,15.59-15.59s15.59,6.98,15.59,15.59v24.32c0,8.61-6.98,15.59-15.59,15.59Z"/></g><g><path class="cls-1" d="M821.66,286.62h-24.32c-8.61,0-15.59-6.98-15.59-15.59s6.98-15.59,15.59-15.59h24.32c8.61,0,15.59,6.98,15.59,15.59s-6.98,15.59-15.59,15.59Z"/><path class="cls-1" d="M907.71,286.62h-24.32c-8.61,0-15.59-6.98-15.59-15.59s6.98-15.59,15.59-15.59h24.32c8.61,0,15.59,6.98,15.59,15.59s-6.98,15.59-15.59,15.59Z"/></g></g><path class="cls-1" d="M81.11,336.21h-31.19c0-15.86-34.06-49.92-49.92-49.92v-31.19c15.86,0,49.92-34.06,49.92-49.92h31.19c0,15.86,34.06,49.92,49.92,49.92v31.19c-15.86,0-49.92,34.05-49.92,49.92Zm-42.48-65.51c10.06,7.41,19.48,16.83,26.89,26.89,7.41-10.06,16.83-19.48,26.89-26.89-10.06-7.41-19.48-16.83-26.89-26.89-7.41,10.06-16.83,19.48-26.89,26.89Z"/><path class="cls-1" d="M900.17,769.4h-95.64c-5.57,0-10.72-2.97-13.5-7.8-2.79-4.82-2.79-10.77,0-15.59l47.82-82.83c2.79-4.82,7.93-7.8,13.5-7.8s10.72,2.97,13.5,7.8l47.82,82.83c2.79,4.82,2.79,10.77,0,15.59-2.79,4.82-7.93,7.8-13.5,7.8Zm-68.63-31.19h41.63l-20.81-36.05-20.81,36.05Z"/></g></svg>