<?xml version="1.0" encoding="UTF-8"?><svg id="Layer_1" xmlns="http://www.w3.org/2000/svg" viewBox="0 0 1000 1000"><defs><style>.cls-1{fill:#e8e8e8;}.cls-2{fill:#bfb5ac;}</style></defs><g id="white"><rect class="cls-1" x="838.56" y="649.42" width="24.27" height="22.94"/><g><path class="cls-1" d="M196.87,546.41h25.61v49.62h56.86v-49.62h25.61v123.61h-25.61v-50.51h-56.86v50.51h-25.61v-123.61Z"/><path class="cls-1" d="M376.7,576.25c27.55,0,49.09,21.01,49.09,47.86s-21.54,47.68-49.09,47.68-49.09-20.84-49.09-47.68,21.54-47.86,49.09-47.86Zm25.43,47.86c0-15.19-11.13-26.84-25.43-26.84s-25.43,11.65-25.43,26.84,11.13,26.67,25.43,26.67,25.43-11.83,25.43-26.67Z"/><path class="cls-1" d="M448.82,578.02h24.19v6.89c6.53-5.65,14.66-8.65,24.02-8.65,11.83,0,21.54,5.12,27.73,13.77,7.42-9.01,17.84-13.77,30.37-13.77,20.66,0,35.14,15.01,35.14,36.56v57.22h-24.19v-53.68c0-11.65-6.71-19.25-17.31-19.25-7.42,0-13.42,3.18-17.66,9.18,.35,2.12,.53,4.24,.53,6.53v57.22h-24.19v-53.68c0-11.65-6.71-19.25-17.31-19.25-7.24,0-12.89,2.83-17.13,8.3v64.63h-24.19v-92Z"/><path class="cls-1" d="M662.22,671.79c-27.9,0-49.45-20.84-49.45-47.68s20.66-47.68,47.33-47.68,45.56,21.19,45.56,49.45v6.36h-68.52c3.36,11.48,13.42,19.25,26.14,19.25,8.12,0,15.36-2.65,20.31-7.42l15.89,14.48c-11.3,9.18-22.6,13.24-37.26,13.24Zm-25.25-56.86h45.03c-3-10.95-11.83-18.54-22.43-18.54-11.13,0-19.6,7.24-22.6,18.54Z"/><path class="cls-1" d="M735.65,643c10.77,7.06,20.13,10.42,29.84,10.42,10.77,0,17.84-3.89,17.84-9.71,0-4.77-3.53-7.42-11.48-8.65l-17.66-2.65c-18.19-2.82-27.9-11.83-27.9-26.66,0-17.84,14.83-29.14,38.32-29.14,13.42,0,26.31,3.89,37.79,11.48l-11.65,15.54c-10.07-6-19.07-8.83-28.43-8.83-8.83,0-14.48,3.53-14.48,9.01,0,4.94,3.53,7.42,12.54,8.65l17.66,2.65c18.01,2.65,28.08,12.01,28.08,26.31,0,17.31-17.13,30.37-40.26,30.37-16.78,0-31.79-4.41-42.21-12.71l12.01-16.07Z"/></g><g><path class="cls-1" d="M355.02,446.68c0,11.83,7.59,19.43,19.07,19.43,8.3,0,14.83-3.18,19.07-9.18v-63.75h24.19v92h-24.19v-7.42c-7.06,6-15.89,9.18-25.96,9.18-21.37,0-36.38-15.19-36.38-36.73v-57.04h24.19v53.51Z"/><path class="cls-1" d="M511.62,477.59c-7.42,5.83-16.42,8.83-26.14,8.83-26.13,0-46.8-20.84-46.8-47.33s20.84-47.15,47.5-47.15c9.01,0,17.84,2.47,25.08,7.24v-37.61l24.19-5.3v128.91h-23.84v-7.59Zm-22.25-11.83c9.01,0,16.42-3.18,21.9-8.83v-35.85c-5.3-5.47-13.25-8.65-21.9-8.65-15.36,0-26.84,11.48-26.84,26.67s11.65,26.67,26.84,26.67Z"/><path class="cls-1" d="M570.02,458.16c10.77,7.06,20.13,10.42,29.84,10.42,10.77,0,17.84-3.89,17.84-9.71,0-4.77-3.53-7.42-11.48-8.65l-17.66-2.65c-18.19-2.82-27.9-11.83-27.9-26.66,0-17.84,14.83-29.14,38.32-29.14,13.42,0,26.31,3.89,37.79,11.48l-11.65,15.54c-10.07-6-19.07-8.83-28.43-8.83-8.83,0-14.48,3.53-14.48,9.01,0,4.94,3.53,7.42,12.54,8.65l17.66,2.65c18.01,2.65,28.08,12.01,28.08,26.31,0,17.31-17.13,30.37-40.26,30.37-16.78,0-31.79-4.41-42.21-12.71l12.01-16.07Z"/><path class="cls-1" d="M705.82,391.41c27.55,0,49.09,21.01,49.09,47.86s-21.54,47.68-49.09,47.68-49.09-20.84-49.09-47.68,21.54-47.86,49.09-47.86Zm25.43,47.86c0-15.19-11.13-26.84-25.43-26.84s-25.43,11.65-25.43,26.84,11.13,26.67,25.43,26.67,25.43-11.83,25.43-26.67Z"/><path class="cls-1" d="M776.42,393.18h24.19v7.24c7.06-5.83,15.72-9.01,25.78-9.01,21.37,0,36.38,15.01,36.38,36.56v57.22h-24.19v-53.68c0-11.65-7.42-19.25-19.07-19.25-8.12,0-14.66,3.18-18.89,9.18v63.75h-24.19v-92Z"/></g><g><g><polygon class="cls-2" points="181.34 376.63 197.39 361.4 222.26 362 222.98 411.57 263.41 411.57 263.41 377.28 209.87 326.08 137.73 394.75 137.73 485.27 181.34 485.27 181.34 376.63"/><rect class="cls-2" x="222.26" y="451.55" width="41.15" height="33.72"/></g><path class="cls-1" d="M197.39,361.4h25.48v49.38h56.59v-49.38h25.48v123.89h-25.48v-51.13h-56.59v51.11h-25.48v-123.86Z"/></g></g></svg>