<?xml version="1.0" encoding="UTF-8"?><svg id="Layer_1" xmlns="http://www.w3.org/2000/svg" viewBox="0 0 1000 1000"><defs><style>.cls-1{fill:#e8e8e8;}</style></defs><g><g><path class="cls-1" d="M290.18,840.41c0,.19,.1,.19,.1,.19,.19,0,.38,0,.67,.29l-.48,.58c-1.83,.77-3.27,2.02-5,3.17-.58,.48-1.63,.67-2.02,1.35-.48,.77-1.54,.77-2.11,1.44-.48,.48-1.25,.77-2.11,1.15l-4.23,1.92c-.38,0-.48,.19-.48,.19-1.34-.19-2.59,.48-3.84,.48-.48,0-.96,.19-1.35,.29h-.38c-1.15-.38-2.02-.29-3.07-.29-.29-.1-.67-.38-.77-.38-.38-.1-.77-.48-1.15-.48-2.5-.58-4.04-2.31-4.9-4.52-.29-.67-.86-1.44-.96-2.31-.48-.67-.87-1.35-.96-2.02-.77-2.21-1.25-3.56-.87-5.48,.29-1.82,.77-3.65,1.15-5.57,.19-1.44,.77-3.36,1.73-4.8,.38-.58,.38-1.54,.67-2.31l1.54-4.04c.1-.1,0-.19,0-.38l.86-1.06s.1-.29,0-.29c.1-.1,.29-.29,.29-.38l.48-.77c.1,0,.38,0,0-.29l.48-.77c.1,0,.1-.19,.1-.19,.29-.19,.29-.38,.29-.67l.38-.87c.38,0,.38-.38,.48-.48l1.15-1.92v-.1l.1-.29c0-.1,.19-.38,.48-.77,.19,0,.19-.1,.29-.38,.67-.1,.77-.87,1.06-1.35,.29-.58,.58-.96,1.25-.96,.29,0,.87-.19,.38-.96,0-.1,0-.29,.29-.29,.77-.96,1.35-2.4,2.4-3.27,.58-1.63,1.63-2.79,2.88-4.04,.77-.77,1.25-1.63,2.02-2.5l1.92-2.21c.87-1.25,2.02-2.11,3.17-3.27,.48-.58,1.15-1.06,1.54-1.63,.1-.38,.38-.77,.77-.87,.67-.29,.87-1.06,1.44-1.54,.48-.29,1.06-.77,1.44-1.44,.77-.87,1.63-1.35,2.59-2.31l1.54-1.35c1.92-1.73,4.13-3.46,6.63-4.71l.86-.58c.67-.67,1.06-1.44,2.02-1.44,0,0,.1-.1,.38-.1,1.92-1.92,4.23-3.07,6.63-4.23,.77-.38,1.34-1.25,2.21-1.15,.87-.48,1.54-.96,2.4-1.35,.67-.38,1.54-.48,2.31-1.15,1.25-.48,2.4-1.25,3.65-1.73l5.77-1.92c.87-.48,2.02-.48,2.98-1.25,.1,0,.38-.19,.67-.19,.87,0,1.73-.1,2.59-.19l1.63-.58c.29-.1,.96,0,1.25-.1,.67,0,1.25,0,1.63-.1,.48-.38,.86,.19,1.34,0l2.79,.19s.38,0,.38,.19c.38,.48,1.25,.58,2.02,.86,.77,.48,1.44,.77,2.02,1.25,1.92,1.25,3.17,3.08,4.04,5.09v.48c.19,.67,1.06,.87,1.06,1.73,0,.67,0,1.25,.29,1.83,0,.29,.1,.38,0,.48-.58,.87,0,1.63-.48,2.59,0,.19-.1,.77-.19,.96-.77,1.44-1.54,2.69-2.79,3.94l-3.56,3.56c-.96,1.25-2.31,1.73-3.75,2.02-.58,.29-.96-.1-1.54-.29-.1,0-.29-.48-.29-.48l1.15-1.83c.38-.29,.67-.48,.77-.87,1.54-1.83,3.07-3.55,4.13-5.38,1.06-1.63,2.21-3.55,1.92-5.48-.1-1.06,0-2.02,0-2.79-.29-2.11-1.15-3.75-2.5-5.19l-2.31-1.15c-.67,.38-1.63,.19-2.4,.67-.1,.1-.48,.1-.77,.1-1.54-.38-2.98,.19-4.23,.38-1.73,.48-3.75,.67-5.38,1.54-.77,.58-2.02,.38-2.79,.87-1.06,.48-2.02,.48-2.79,1.44-.48,.38-1.54,.58-2.31,.86-.96,.29-1.83,.87-2.59,1.25l-5.77,3.46c-1.15,.67-2.21,1.25-3.27,2.11l-1.44,.87c-.67,.29-1.44,.58-1.92,1.25-.29,.38-.58,.38-.96,.58-.38,0-.77,.19-1.15,.38-.77,.87-1.73,1.54-2.5,2.5-.48,.67-1.25,1.25-2.02,1.63-1.25,.96-2.4,2.21-3.65,3.08-.58,.19-.77,.77-1.25,.96-.77,1.15-1.83,2.02-2.6,2.98-.29,.48-.96,.87-1.54,1.25-.19,.38-.58,.87-1.06,1.54l-.96,1.25-.87,.77c-1.15,.58-1.92,1.63-2.59,2.79-.29,.48-.67,.77-1.06,1.25-.77,.38-1.25,.96-1.92,1.73,0,.96-.96,1.15-1.25,1.92-1.06,1.35-2.4,2.31-3.07,3.94-.48,1.35-1.92,2.69-2.79,3.94l-.96,.77c-.48,.1-.48,.86-.86,.96-.19,.29-.58,.38-.58,.48,.19,1.83-1.15,2.79-1.92,4.23-.29,.38-.96,.77-.86,1.63-.58,.77-1.06,1.73-1.92,2.4-.48,.38-.96,1.06-.86,1.83,0,.19-.1,.38-.38,.48l-.77,2.31c-.1,.58-.48,1.35-.96,1.73-1.06,.67-1.25,1.63-1.15,2.79,0,.67-.29,1.25-.48,2.02,0,.48-.29,1.25-.38,1.92,0,.67,0,1.54-.38,2.02-.29,.29-.29,.58-.29,.87v4.81c-.1,1.06,.67,2.31,.67,3.46,0,.1,.19,.48,.58,.67,.29,.19,.77,.48,1.44,.67,.96,.29,2.02,.58,3.17,.77,.19,.19,.96,.29,1.25,0,.77-.48,1.92-.19,2.88-.48,1.35-.48,2.79-.87,4.42-1.54,1.06-.29,2.31-.77,3.17-1.54,1.44-.38,2.79-1.35,4.32-2.02,.96-.58,2.02-.96,2.88-1.73l.67-.67c2.31-.87,4.32-2.69,6.25-4.04,.77-.38,1.44-.96,2.21-1.25,.87-.48,1.44-1.44,2.21-1.83l2.11-1.35,2.31-1.63c.1-.19,.48,0,.87-.19l-.87,1.34-4.9,3.36c-.96,.19-1.54,1.25-2.5,1.54-1.34,1.34-2.88,2.02-4.23,3.17-.77,0-.19,.77-.58,.87h-1.06c0,.19-.19,.19-.19,.19-.1,.29-.48,.48-.48,.58-.19,.67-.67,.48-1.15,.67-.1,0-.48,0-.67,.1-.96,1.15-2.5,1.54-3.65,2.69v.1q.29,.1,.38,.1c-.38,.38-.38,0-.38-.1l-.96,.38c-1.15,.48-2.31,1.25-3.36,1.63-.1,0-.1,.19,0,.29,.19,.1,.29,.38,.38,.38h.29c.29-.67,.96-.38,1.25-.48,1.92-.67,3.56-1.54,5.19-2.5,.58-.19,1.06-.58,1.54-.67l3.46-1.92c1.34-.77,2.59-1.83,4.23-2.31,.29-.1,.67-.77,.96-1.06,.67-.58,1.35-1.06,2.21-1.63,1.06-.58,2.02-1.44,3.36-2.21,.1-.19,.38-.19,.58-.19-.1,.38-.19,.67-.48,.77-.1,.58,.29,1.15-.38,1.44-.48,.1-.67,.48-1.06,.96-.38,.29-1.06,.1-1.44,.38l-.19,.29h-.1c0-.29-.29-.58-.29-.58-.48,.19-.86,.58-.86,.67-.67,1.63-.87,1.92-2.11,2.69l-2.31,1.44c0-.48-.38-.58-.67-.58l-.1,.1Zm6.34-3.75q0,.1-.1,.19c-.38-.19,0-.19,.1-.19Zm12.78-9.42s0,.19-.1,.19c-1.54,.87-2.79,2.02-4.32,2.88-.67,.77-1.35,1.35-2.21,1.63-.86,.48-1.34,.87-2.21,.87,.1-.77,.58-1.15,1.25-1.54l1.34-.48c1.73-1.73,3.75-2.5,5.67-4.04,0,.1,.19,.29,.58,.48Zm2.69-5.67c-1.44,.77-2.79,1.63-4.04,2.79-.29,.48-.67,.67-1.06,.48l-.48,.77-.58,.38c-1.44,.67-2.5,1.92-4.04,2.5h-.48c.38-1.06,1.63-1.44,2.59-2.02,.87-.67,1.63-.96,2.21-1.44,.29-.19,.48-.19,.67-.19,.1-.1,0-.58,.1-.77,1.25-.77,2.31-1.63,3.46-2.4,.58-.19,1.06-.87,1.63-.67v.58h.96q-.38,.67-.96,0Zm-.58,4.32c-.86,.48-1.44,.87-2.11,1.15,0-.19-.1-.29-.58-.29,.48-.29,.58-.87,.67-.87,.96-.38,2.02-.87,2.69-1.83,.38-.19,.77-.19,1.15-.48h.1c0,.29,.19,.38,0,.48-.48,.77-1.25,1.44-1.92,1.83Zm1.54-4.8v-.1h-.96c.77-.96,1.54-1.83,2.59-2.21h.67c-.29,.48-.77,1.15-1.54,1.35l-.77,.87v.1Zm0,.48v-.48c0,.19,.29,.19,.38,.19-.1,.19-.38,.19-.38,.29Zm3.84-.87h.1c-.1,.58-.1,.87-.48,1.15-.1,.19-.38,0-.67,0h-.38c.58-.38,.77-1.15,1.44-1.15Zm3.27-5.19c-.1,.58-.77,.96-1.15,1.25h-.48c-.1,0-.1-.1,0-.29,.29-.58,.87-1.15,1.63-.96Zm.67,0h-.67c.29-.77,1.06-1.54,1.63-1.83,.67-.38,1.15-.96,1.63-1.35,.19-.19,.29-.19,.29,.1,.19,.29,.19,.38,0,.38,0,.38-.1,.48-.29,.77l-2.6,1.92Zm1.63,1.54c-.19,.38-.67,.77-1.15,1.25h-.48q-.19-.19,0-.29c.48-.77,.77-1.25,1.63-.96Zm1.92-1.54c-.48,.87-.96,1.25-1.92,1.25,.48-.67,.77-1.25,1.92-1.25Zm2.59-4.8c0,.38-.1,.48-.38,.58l-.87,.67c-.38,.19-.48,.38-.1,.87,0,0-.29,.38-.38,.48-.38,.38-.38-.1-.48-.19,0-.29-.19-.38-.29-.67,0-.29,0-.38,.1-.48,.38-.87,1.25-1.44,2.02-1.54h.29c.1,.1,.38,.29,.1,.29Zm4.71-2.69c-.48,0-1.06,.77-1.73,1.06-.19,0-.29,.19-.29,.19-.1-.19-.38-.19-.38-.38-.1-.1-.1-.19,0-.38,0,0,.29-.19,.29-.48,2.11-.87,4.23-2.5,6.15-3.75,.67-.48,1.06-.58,1.83-.58-.19,.58-.38,.58-.77,.67-.58,.29-1.34,.77-1.83,1.25-.38,.67-.96,.77-1.44,1.35-.38,.67-.96,.96-1.83,1.06Zm6.92-4.9l-1.06,.58c0-.1,0-.77,.1-.87,.48-.1,.96-.67,1.63-.48-.1,.38-.29,.58-.67,.77Z"/><path class="cls-1" d="M375.11,814.66c-.1-.19-4.52,1.06-4.61,1.06-.19,.48-.67,.67-1.15,.67-1.15,0-2.4,.1-3.65,.29-1.63,.19-3.36,.19-5.19,.19-2.88,0-2.79-.38-4.52,2.11l-3.36,3.56c-.19,.29-.19,.38-.38,.58-2.79,1.73-5.09,3.94-7.97,5.48-2.02,1.06-4.04,1.63-6.25,1.63-3.94-.29-6.05-3.36-6.05-6.34,.1-.77,.1-1.73,.58-2.59,.77-3.56,2.31-6.63,4.61-9.32,1.06-1.25,1.92-2.59,3.07-3.84,.96-.77,1.25-1.83,1.25-2.69-.1-1.15,.1-1.92,.67-2.69,.67-.77,1.35-1.44,2.11-2.02,1.25-.67,2.59-1.15,3.84-1.63,.48-.38,1.15-.38,1.83-.38,.87-.19,1.73-.19,2.69,0,.77,0,1.44,0,2.11-.29,1.35-.48,2.4,.29,3.56,.67,.48,.1,.48,.87,0,1.15-.19,0-.58,0-.29,.29,.38,.77,.87,1.35,1.35,1.92,2.11,2.21,2.21,4.9,1.54,7.5-.38,1.06-.67,2.21-1.25,3.36,1.54,.38,3.17,.38,4.71,0,2.31-.38,4.61-.87,7.01-1.35,1.35-.48,2.69-.67,4.32-1.06,.77-.29,1.54-.58,2.02-1.15,.87-.38,1.63-.29,2.4-.38,.29-.29,.87,1.35,.87,1.44l-5.86,3.84Zm-23.35,1.54c-.1-.1-.38-.1-.48-.38-3.46-.67-5.96-2.5-8.17-5.09-.48-.48-.87-.48-.96-.1-.77,1.34-1.73,2.4-2.21,4.04-.87,1.83-1.73,3.55-2.79,5.38-.77,1.54-1.25,3.46-2.02,4.9-.29,.58,.29,1.06,.86,1.25h1.54c.67,.19,1.63-.19,2.69-.58,3.56-1.73,6.63-3.94,9.42-6.44,.77-.77,1.35-1.44,2.4-2.31,.1-.19,0-.67-.29-.67Zm3.94-14.7c-.1-.19-.38-.38-.77-.67-.19,0-.48-.1-.58,0-1.44,.77-2.6,1.44-3.75,2.4-1.35,.77-2.5,1.82-3.75,2.79l-2.11,1.92c-.48,.38-.48,.77,0,1.15,.19,.29,.58,.58,.67,.87,.77,.96,2.21,1.34,3.27,1.73,1.73,.77,3.46,.96,5.09,1.25,.96,.1,1.63-.19,1.92-.77,1.06-1.82,1.83-3.55,1.92-5.48,.38-2.11-.48-3.94-1.92-5.19Z"/><path class="cls-1" d="M425.07,810.24c-.96,1.15-2.02,1.92-3.17,2.69-1.15,1.06-2.69,1.92-4.23,2.79-1.25,.77-2.4,1.44-3.56,2.5-.87,.67-1.73,1.15-2.59,1.83-.96,.67-2.02,1.15-2.98,2.02-2.4,1.82-4.71,3.07-7.69,3.55-.58,0-1.06,.29-1.73,.29-1.63,.38-2.69,.29-3.65-1.25-.1-.29-.1-.38-.29-.67-1.25-.86-1.35-1.92-1.35-3.17v-1.15c0-1.15,.1-2.31,.77-3.27,.19-.77,.48-1.44,.77-2.21,0-.1-.19-.1-.19-.19h-.1c-.29,0-.38,.1-.38,.1-1.63,1.54-3.46,2.88-5.09,4.32-1.63,1.15-3.27,2.4-4.9,3.65-.67,.38-1.15,.96-1.73,1.54-1.54,1.54-3.56,2.31-5.57,3.08-.96,.67-1.92,.48-2.69-.29-1.73-1.54-2.21-3.27-1.73-5.28,.48-1.92,1.25-3.75,2.4-5.48,2.02-3.27,4.04-6.63,6.63-9.42,.96-1.06,1.54-1.06,2.5-.19,.19,.19,.38,.29,.38,.58,.29,.29,.38,.77,0,.96-.48,.58-.87,1.15-1.25,1.92-.67,1.15-1.25,2.59-2.21,3.84-.58,.77-1.15,2.02-1.73,3.08-.77,1.25-1.63,2.5-2.31,3.94-.38,.58-.48,1.35-.87,1.83l.48,.29c.48-.29,1.15-.38,1.73-.87,2.88-2.21,5.77-4.42,8.84-6.44l11.72-8.46c.58-.48,1.25-.67,2.02-.77,0-.19,.19,0,.48,.1,.1,.29,.67,.29,.96,.58,.87,.29,1.25,.77,.87,1.63,0,.38-.19,1.15-.29,1.44-.87,.77-1.15,2.02-1.92,2.69-.1,.1-.48,.29-.48,.29-1.15,2.79-2.79,5.48-3.84,8.26-.1,.67,0,.77,.38,.77,1.83,.19,3.17-.1,4.61-.96,3.17-1.83,5.96-3.75,8.84-5.77,3.17-1.92,6.05-3.65,9.22-5.96l1.25-.77c2.21-1.54,2.79-1.83,4.52,0,.29,.77-.29,1.54-.87,2.02Zm-12.97,5.48c-.77,0-1.25,.29-1.34,1.06,.58,0,1.25-.29,1.34-1.06Zm1.15-.77s-.38-.1-.38,0c-.29,.19-.48,.48-.58,.67,.29,0,.58,0,.96-.29v-.38Zm3.17-.77c-.38,0-.77,0-.87,.67,.48,0,.77,0,.87-.67Zm3.07-1.83c-.77-.19-1.25,.1-1.44,.96,.67,0,1.06-.38,1.44-.96Zm-.96-.87c.19,.19,.48,.19,.58,.19,0,.1,.1,0,.38,0,.1-.19,.29-.38,.38-.86-.29,0-.77,0-.87,.48l-.48,.19Z"/><path class="cls-1" d="M489.73,812.93c-1.92,.77-3.75,1.35-5.77,2.02-.67,.48-1.35,.58-1.92,.58-.67,0-.96,.19-.77,.87,0,0-.29,.1-.58,.29l-10.38,4.23c-2.79,1.06-5.86,2.21-8.36,3.07-1.54,.87-2.88,1.25-4.23,1.63-1.54,.58-3.07,.58-4.71,.29-.38-.29-1.15-.67-1.63-.96-.48-.48-1.25-1.25-1.63-1.82-.38-.58-.58-1.15-.58-1.83-.1-3.17,0-6.34,1.06-9.32,.48-.96,.77-2.02,.96-2.88,.19-.48,.29-1.35,.29-2.11,0-.67-.1-.77-.58-.29-2.31,.77-4.52,1.63-6.53,2.4-1.25,.58-2.02,1.25-3.17,1.82-1.54,1.06-3.17,2.02-4.71,3.17-.58,.58-1.83,.58-2.4,1.44-3.17,1.92-5.77,4.52-8.36,7.01-.48,.38-.96,.96-1.34,1.34-.87,1.35-2.11,2.5-3.65,3.27-.38,.38-.58,.77-.96,1.15-.29,.1-1.06,.1-1.44-.29-.77-1.35-1.63-2.79-.77-4.42,.29-.77,.67-1.92,1.15-2.69,.48-1.15,1.06-2.02,1.54-3.17,.1-.29,.29-.86,.77-1.25,2.11-3.17,3.75-6.82,4.8-10.57,.48-1.06,1.15-1.34,2.02-1.06,1.06,.58,1.92,1.15,2.59,2.11,.38,.38,.1,.58,0,.77-.77,.96-1.44,1.92-1.54,3.17-.29,.38-.58,.77-.67,1.25-1.15,2.02-2.4,4.04-3.27,5.96-.19,.38-.58,.87-.58,1.35,.19,0,.38,0,.58-.1,1.92-1.35,3.65-2.5,5.48-3.94,2.02-1.63,3.65-3.27,6.05-4.42,1.15-1.06,2.69-1.54,3.94-2.31,1.25-1.15,2.69-1.73,4.23-2.69,1.15-.29,1.92-.96,2.79-1.44,.77-.58,1.92-.96,2.79-1.35,.96-.58,1.83-.48,2.69-.48,.1,0,.48,.29,.67,.48,.48,.67,1.25,1.44,1.73,2.21,.1,.29,.1,.77,0,1.25-.48,2.31-1.06,4.61-1.63,7.01-.29,1.73-.77,3.65-1.15,5.28-.38,.48-.48,1.15-.48,1.83-.19,1.06,.48,1.35,1.63,1.15,2.69-.1,5.09-.96,7.4-1.54,1.73-1.06,3.84-1.44,5.67-2.31,1.63-.67,3.07-1.44,4.8-2.02,2.31-.67,4.61-1.83,6.73-2.4,2.11-.96,3.94-1.54,6.15-2.4,1.73-.96,3.65-1.34,5.48-2.31,.58-.38,1.63-.19,2.5-.29,.19,0,.29,.1,.29,.29-.1,1.35,.96,2.4-2.98,3.94Zm-28.92,9.03h-1.06l-.1,.19c.1,0,.1,.29,.38,.29s.58,0,.77-.48Zm1.35-.38c-.19,0-1.06-.29-1.25,.29h.67c.38,0,.58,0,.58-.29Zm8.46-3.08c-.19,0-.48-.1-.77-.1s-.38,.1-.67,.58c.58,.19,1.15,.19,1.44-.48Zm2.5-.87c-.87-.19-1.63,.1-2.31,.58v.19c.77,0,1.73,0,2.31-.77Zm1.44-.67h-.67c-.38,0-.77,.38-.77,.67,.67,0,1.25,.1,1.44-.67Zm16.14-5.57c-.19-.1-.29-.38-.29-.1-1.15,.1-2.02,.38-3.17,.87-.1,.1-.48,.48-.77,.29-1.25-.29-2.21,.48-3.46,.87-.38,0,0,.87-.96,.87-.29,0-.67,.1-.96,.29-.48,.19-1.06,.38-1.34,.38-1.54,.58-3.07,.96-4.42,1.54-.29,.1-.67,.29-.67,.58,.67,.38,1.25,0,1.92-.1,2.5-.67,4.71-2.02,7.11-2.4,.1-.19,.29-.19,.58-.29,.48-.77,1.44-.48,1.92-.87,1.83-.29,2.98-1.15,4.32-1.83,.19,0,.19-.1,.19-.1Z"/><path class="cls-1" d="M522.48,814.18c-.38,0-1.15-.1-1.54,.29h.29c0,.1-.1,.19-.19,.19h.58v.29c-.67,.48-1.06,.77-1.92,1.15-.87,.29-1.73,.77-2.69,1.54-.1,0-.48,0-.86,.1-1.35,.77-2.79,1.44-4.23,2.31-.96,0-.1,.96-.96,.96-.38,.19-.86,.67-1.54,.87-1.15,.96-2.31,1.63-3.65,2.5-1.06,0-1.63,.77-2.4,1.25-.96,.38-1.06,.87-1.06,1.73,.1,.96,.1,1.73,.29,2.5,.48,1.73,0,3.27-.58,4.71-.77,2.4-1.73,3.27-3.65,5-1.25,1.25-2.59,2.31-3.84,3.36-.58,.67-1.54,1.15-2.31,1.25-.96,.29-1.73,.29-2.4,.58-1.44,1.25-2.88,.67-4.42,0-1.15-.58-2.31-.87-3.17-1.44-1.25-.38-1.92-1.15-2.21-2.4-.48-1.35-.58-2.6,.19-3.94,.1-.29,.29-.38,.58-.87,1.92-1.82,4.13-3.36,6.44-4.71,.96-.77,2.11-1.44,3.27-2.21,2.5-1.44,4.8-3.17,7.5-4.71,.48-.48,.67-.77,.1-1.34-.48-1.25-1.44-2.31-2.11-3.65-1.25-2.02-2.4-4.52-3.75-6.53-.86-1.25-.86-2.59-.96-3.84-.1-.96,.1-2.02,.96-2.88,.77-.77,2.02-1.63,3.07-1.92,1.63-.1,3.36-.67,5.09-.38,2.4,.1,3.94,1.34,5.48,2.88,.58,.58,.38,1.15-.1,1.54-1.15,.67-2.69,.48-3.84-.58-.29-.29-.29-.38-.48,0-.29,1.06-.67,1.25-1.44,.96-.96-.58-1.63-.1-2.4,.1-.67,.29-1.25,.87-1.83,1.44-.67,.48-1.06,1.15-.67,2.02,.1,1.54,.86,2.88,1.63,4.23,1.25,1.92,2.5,3.65,3.27,5.48,.38,.96,.67,.96,1.63,.48,2.5-1.63,5.29-3.08,8.17-4.42,.29-.29,.48-.38,.86-.38-.1,.38-.38,.58-.38,.77,.96,.1,1.54-.38,2.21-.77,.1,0,.29-.19,.38-.29-.29,0-.67-.38-.77,0-.58,.1-.87,.29-1.44,.29,.19-.29,.29-.67,.58-.77,2.79-1.15,5.67-2.4,8.36-3.84h.96v.67c-.48,.1-.86,0-.96,.48,.38,0,.77,0,1.15-.48,.19-.29,.1-.38,0-.67,0-.1,.1-.29,.19-.38,1.54-.67,3.36-1.25,4.9-1.63,1.15-.1,.96-.1,2.02,.67,.38,.29,.67,.48,.48,.96l-.77,.38c-.58,.29-1.15,.29-1.54,.38-.86,.29-1.25,.29-1.73-.1-.29-.29-.67,0-.77,.38h-.1c-.48,0-.67,0-.96,.48h.96c-.38,.48-.58,.48-.96,0Zm-22.77,13.74c-1.63,.96-3.07,1.73-4.42,2.79-2.02,1.83-4.04,3.17-6.34,4.42-1.92,.96-3.46,2.21-4.71,3.75-.1,.19-.38,.48-.38,.67-.1,.19,0,.29,.29,.29,.58,.29,1.54,.38,2.31,.67,1.06,.29,2.02,.29,3.17,0,.38,0,.87-.29,1.35-.29,1.92-.38,3.46-.87,4.61-2.4,.38-.48,.87-.67,1.35-1.15,2.31-2.4,3.65-5.09,2.79-8.74Zm-2.11-1.92l.1,.19c.29-.19,.67-.29,.96-.58,0,0,0-.1-.19-.1-.38,0-.58,0-.86,.38v.1Zm5.77-3.46c-.77-.1-1.35,.29-1.44,.96,.67,0,1.25-.38,1.44-.96Zm2.4-1.54c-1.15,.29-1.83,.58-2.31,1.44,.87,0,1.73-.48,2.31-1.44Zm2.88-.58h-.87v-.38c-.86,0-1.54,.1-1.92,.96h1.44l.48-.58v.58c.38,0,.87,0,.87-.58Zm2.02-.96h-.77c-.1,.58-.77,.58-1.15,.58,.19-.58,.58-.58,1.06-.58v-.29c-1.06-.19-1.63-.19-2.02,.87h.96v.38c1.06,.38,1.54,0,1.92-.96Zm1.15-.29c-.58-.19-.96-.19-1.15,.29,.58,0,.87,.19,1.15-.29Zm.77-.67c-.38-.1-.67-.1-.77,.48,.29,.19,.77,0,.77-.48Zm2.02-.87c-.48,0-.77-.19-.96,.38,.48,.1,.87,.1,.96-.38Zm1.06-.67c-.38,0-.87,0-1.06,.67,.67,0,.87,0,1.06-.67Zm1.92-.87h-.77c0-.38,.1-.67,.19-.96-.86-.19-1.34,.29-1.73,.96h1.54v.38c.19,0,.58,0,.77-.38Zm2.02-1.92h-.38c-.29,0-.29,.1-.38,.1q.1,.19,.38,.19c.1,.19,.29,.19,.38,.19v.29c.48,0,1.15,.48,1.34-.29v-.19h-1.34v-.29Z"/><path class="cls-1" d="M563.8,813.79c0,.19-.48,.29-.58,.29-1.63,.19-2.98,.96-4.61,1.63-2.4,1.06-4.8,1.92-7.11,2.88-.29,.19-.67,.19-.77,.38-1.92,1.44-4.32,1.83-6.34,2.98-2.11,.87-4.23,1.82-6.24,2.79-2.88,1.63-6.05,2.79-9.42,3.27-.58,.19-.96,.19-1.35,.67-1.92,.77-3.55,.1-5.19-.48-1.06-.29-1.83-.77-2.5-1.44-1.15-.87-1.63-2.11-2.02-3.27-.38-2.11-.38-2.5,0-4.23l.67-1.25c1.54-3.46,3.84-6.25,6.73-8.55,2.69-2.5,5.48-4.71,8.74-6.44,.87-.67,2.21-1.25,3.46-1.44,.87-.38,2.02-.48,2.88-.87,1.25-.87,2.31-1.06,3.46-.29,.19,.29,.48,0,.86,.29,.38,.1,.96,.19,1.06,.38,.77,.67,1.25,1.63,1.54,2.11,.77,1.35,.77,2.69-.19,3.75-1.25,1.54-2.02,3.27-3.94,4.04l-1.35,.87c-2.59,2.11-5.77,3.08-8.94,3.56-.87,.38-1.92,.29-2.79,.29-1.25,0-2.79-.29-4.32-.29-.29,0-.48,0-.87,.38-1.54,2.21-3.46,4.23-4.32,6.73-.29,.96,.1,1.54,.77,1.82,1.06,.29,2.31,.87,3.27,.29,2.11,0,4.23-.67,6.15-1.15,1.63-.29,3.36-1.34,4.9-1.82,1.83-.87,3.27-1.63,4.9-2.5q.48,.58,.96,0c.67-.67,1.54-1.15,2.5-1.54,.19-.38,.67-.38,1.25-.58,3.17-1.35,6.44-2.98,9.42-4.23,.96-.58,1.83-.67,2.79-1.06,.77-.29,1.73-.77,2.4-1.25,1.25-.38,2.02-.29,2.79,.77,.29,.29,.58,.48,.86,.58,.67,.38,1.06,1.44,.48,1.92Zm-37.57,.19c.29,.29,.87,0,1.15,0,.38-.19,.77-.19,1.25-.19v.19c.87-.19,2.02-.29,2.79-.48,1.15-.38,2.02-.67,3.27-1.25,2.59-.77,4.71-1.92,6.73-3.46,1.06-.58,1.92-1.73,2.4-2.88,.29-.29,.29-.87,.29-1.34,.29-.48-.1-.67-.48-1.06-.29-.29-.67,.1-.77,.38-.1,.38-.58,.48-1.15,.48-2.11,.19-4.23,.77-6.05,1.92-2.4,1.15-4.32,2.79-6.25,4.23l-2.59,2.5c-.1,.1-.67,.67-.58,.96Z"/><path class="cls-1" d="M604.15,780.74v-.86c-.77,.38-2.02,.77-2.31,2.02,.67,0,1.25-.1,1.82-.48,.1-.19,.38-.29,.48-.67v.77c-.48,.48-1.06,1.44-1.73,1.73-.29,.29-.29,.67-.38,.87-1.44,1.54-3.75,3.17-4.71,5,0,.29-.19,.38-.29,.38-10.57,10.67-23.45,18.45-32.19,23.73l-2.02,2.21c-.38,1.06-1.25,1.35-1.92,2.21-.29,.67-.77,1.15-.86,1.73-.19,1.06-.96,1.44-1.25,2.4-.19,.67-.58,1.06-.96,1.92-.1,.29-.48,.67-.58,.96-.38,.38-1.15,.67-.19,1.25v.1c-.67,.77-.67,1.73-.67,2.69,0,.77,.48,1.73,1.44,1.82,2.02,.29,3.75,.58,5.57,.19,3.07-.77,6.05-1.92,8.55-3.46,3.46-1.92,6.92-4.04,10.28-6.25,2.5-1.63,4.61-3.65,6.92-4.9,.38-.29,.58-.77,.96-.87,.1-.29,.67-.67,.77-.67,.77,.1,1.25-.29,1.44-.77,.38-.77,1.25-1.35,2.02-1.63,1.35-.87,2.88-1.82,4.04-2.98,.96-.67,1.92-.87,2.79-.67,.29,0,.67,.1,.67,.29,.29,.77,.77,.77,1.25,1.06,.19,0,.38,.48,.19,1.15-.29,.1-.58,.48-.87,.77-.1,.1-.58,.48-.67,.48-1.35-.1-2.31,.77-3.08,1.44-1.44,.87-2.79,1.63-4.04,2.6l-3.75,2.69c-.38,.19-.67,.38-.96,.77-.77,.67-1.44,.38-1.83,.1,0,.19-.38,.29-.38,.58,.38,.58-.1,.96-.58,1.25-1.06,.29-1.73,.87-2.59,1.82-.48,.48-1.35,.96-2.11,1.25-.58,.48-.77,.58-1.06,.96-.87,.67-1.54,1.15-2.4,1.54-.77,.67-1.92,1.44-2.79,2.02-1.25,.96-2.79,1.54-4.23,2.21-.96,.58-2.31,1.15-3.17,1.54-1.15,.48-1.92,.96-3.17,.96-1.15,.19-2.21,.38-3.56,.38-4.71-.38-7.11-2.79-8.45-6.82-.19-.77-.19-1.83,0-2.79,.29-1.25,.67-2.69,1.44-3.75,.38-.87,.67-2.02,1.35-2.69,.19,.29,.29,.29,.48,0,.38-.29,.48-.67,.48-1.06h-.48c-.19-.77,.38-1.15,.87-1.54,.1-.29,.1-.67,.58-.77-.1,0-.1-.29-.1-.29l.29,.29c.1,.29,.29,.29,.38,0h-.1l.1-.29v.29c.38-.38,.38-.87,.38-1.15h-.38c.48-1.54,1.25-2.79,2.4-3.94q.29,.29,.29,.38,.19-.1,.19-.38h-.48c0-.67,.48-1.25,1.15-1.35l-.29-.19h.29v.29c.1,0,.29-.1,.29-.29h-.29c0-.38,0-.67,.29-.77v.77h.1l-.1,.19c.48-.29,.48-.67,.48-1.06h-.38c0-.38,.1-.48,.38-.48v.48c.19,0,.38-.38,.58-.48h-.58c0-.87,.38-1.15,1.06-1.54,.19,.48,.29,.38,.48,0h-.48c0-.38,.19-.67,.48-.86v.86c.48-.29,.58-.58,.58-.86,.29-.19,.48-.29,.48-.67l.29-.38h-.29v-.38c.67-1.63,1.73-3.46,3.36-4.61,.1-.96,.48-1.54,1.54-2.11,.1-.77,.58-1.54,1.54-1.83v.67l.1,.1,.19-.1c.19-.38,.19-.48,.19-.67h-.48c0-.38,.1-.48,.48-.48v.48c.1-.19,.1-.38,.29-.48h-.29v-.38c.67-1.06,1.35-2.02,2.31-2.5q.1,.1,.1,.19,.29-.1,.29-.19h-.38v-.58c.96-1.06,1.73-2.4,2.79-3.46,3.55-3.36,6.92-6.92,10.38-10.09,1.35-1.63,2.98-3.08,4.71-4.32,3.46-2.31,6.92-5,11.05-6.92,1.83-.58,4.81-.58,6.15,.38,.77,.29,1.15,.77,1.54,1.15,.38,.58,.48,1.25,.19,1.92-.38,.77-.58,1.73-1.35,2.31l-1.73,2.4c-.19,.77-1.25,.77-1.54,1.25-.19,0-.19,.19-.19,.48h.48c.19,0,.48-.48,.58,.19,.1,0,0,.1-.1,.38,0,.1-.48,.38-.67,.38-.77-.38-1.25,0-1.63,.77v.38h.29q.1,0,.48-.19,.1,0,.29,.19c0,.1-.19,.19-.19,.19-.48,.19-.77,.19-1.15,.19-.77-.19-.77,.48-.87,1.25q0,.1-.38,.38h1.15c-.1,.38-.48,.77-1.15,.86Zm-46.89,42.76c-.19-.19-.38-.19-.58-.29h-.29v-1.44c-.38,0-.58,.29-.38,.38v1.06c-.67,.1-.58,.58-.58,.87h.38c.19,0,.19,.29,.29,.38,0-.1,.29-.38,.29-.38,.19-.1,.29-.1,.48-.29,.19-.1,.19-.29,.38-.29Zm.96-4.32v-.87c-.38,.19-.38,.48-.38,.96-.77,0-.96,.77-.96,1.25,.38,0,.67-.1,.96-.38,0,.29,.29,.29,.29,.38q.1-.1,.1-.38c.67-.38,.67-.77,0-.96Zm1.63-3.36c-.77,0-1.06,.77-.96,1.44,.48-.29,1.15-.67,.96-1.44Zm4.23-5.28s-.1-.19-.29-.19v-.87c-.87,.1-1.06,.67-.96,1.15h.38c0-.1,.19-.29,.58-.29v.29c.19,0,.29-.1,.29-.1Zm.67-2.69c.48-.19,.77-.29,.87-.29,0-.48,0-.77,.19-1.15-.96,.38-1.06,.58-1.06,1.44Zm1.35-2.4c-.29,.19-.48,.48-.29,.96,.48-.1,.48-.48,.29-.96Zm.77-.58c.48-.09,.77-.58,.77-1.34-.48,.1-.96,.77-.77,1.34Zm41.99-37.57c-.29-.77-1.35-.87-1.83-.29-.96,1.06-2.31,1.92-3.65,2.69-1.63,1.06-3.55,1.92-5.09,3.27-.38,.19-.48,.67-.87,.67-1.82,.77-2.98,2.31-4.52,3.46-1.63,.96-2.69,2.79-4.32,4.04-.96,1.63-2.5,2.69-3.84,4.04-.19,.29-.58,.48-.67,.77-.58,.77-1.06,1.44-1.83,2.21-.58,.77-1.54,1.73-2.11,2.5,0,1.06-.96,1.54-1.63,2.21-.29,.58-.77,.87-.96,1.35-.48,.38-.48,.67-.77,1.15-.48,.29-.77,.77-1.25,1.15-.38,.48-.58,1.06-.87,1.35s-.38,.48-.38,.67c0,.86-.77,1.15-1.25,1.92-1.44,1.44-2.79,3.17-4.13,5-.58,.67-.67,1.63-1.35,2.21-.19,.67-.58,.67-.58,1.44,.87,.29,1.73-1.06,2.21-1.44,3.08-2.02,5.28-3.27,9.23-6.25,3.75-2.98,7.3-5.86,10.57-9.32,3.07-3.46,7.4-6.63,10.38-10.09,2.11-2.4,4.04-4.9,6.05-7.3,1.06-1.25,1.25-2.31,2.02-3.65,.67-.96,1.06-1.83,1.44-2.69,.29-.38,0-.67,0-1.06Zm-41.22,35.94c.87-.1,1.15-.48,1.15-1.35-.77,.48-1.15,.96-1.15,1.35Zm1.15-1.35c.77-.29,1.15-.96,1.25-1.83-.77,.38-1.15,1.06-1.25,1.83Zm2.4-2.31v-1.06c-.38,.29-.48,.58-.48,1.06h.48Zm0-1.06q.77-.19,1.06-.96c-.77,.1-.96,.48-1.06,.96Zm.38,30.36h.77c3.17-.96,5.67-3.17,8.74-4.81,1.92-1.54,4.32-2.4,6.15-4.23,.19,0,.38-.1,.87-.1,.1-.38,.1-.58,.38-.77,1.44-.87,2.69-1.92,4.13-2.88,.96-.67,1.73-1.44,2.69-2.02,1.06-.29,1.83-.96,2.59-1.63,.1-.19,.1-.29,.38-.67-.67,0-1.15,.38-1.73,.48-1.44,1.25-3.27,2.4-4.9,3.56-1.15,.77-2.11,1.44-3.07,1.92-2.31,1.54-4.8,2.79-6.82,4.42-2.02,1.63-4.23,2.88-6.34,4.32-.38,.38-.77,.67-1.35,.77-.87,.29-1.82,.67-2.5,1.63Zm2.5-33.63c-.58,.1-.87,.19-.87,.77,.77,0,.87,0,.87-.77Zm2.4-1.92v-1.15c-.67,.48-1.44,.77-1.44,1.92,.48-.38,1.15-.67,1.44-.77Zm1.06-2.69c-.48,.19-.58,.58-.48,1.06,.48-.29,.67-.48,.48-1.06Zm15.85,1.54l-.38-.48c-.58,.38-1.15,.86-1.44,1.25,.87,.38,1.54,0,1.83-.77Zm3.56-3.46c-.29-.1-.38-.19-.58-.48-.38,.29-.96,.38-.96,1.06,.38,.1,.48,.1,.48,.29,.48-.19,1.06-.29,1.06-.87Zm.48-1.06v-.29c-.19,0-.19,.1-.38,.29h.38v.48c.19,0,.38-.29,.48-.48h-.48Zm1.92-2.02s-.29-.19-.38-.29l-1.54,.87v-.29h-.19l.19,.29v.96c.19,.19,.38,.29,.48,.48,.58-.67,1.06-1.35,1.44-2.02Zm-1.06,26.13c.48,.1,.87,0,1.15-.48l.19-.19c-.19,0-.29-.1-.48-.1-.38,.1-.87,.29-.87,.77Zm3.08-29.02c-.1,.48-.38,.48-.87,.48q-.48,.29-.38,.87c0,.1,.19,.48,.19,.58,.19,0,.29-.1,.67-.48,.29-.38,.77-.77,1.44-.96-.29-.29,0-.96-.58-.96-.1,0-.38,.29-.48,.48v-.48c-.1,0-.1,.29-.29,.29,.19,0,.19,.19,.29,.19Z"/><path class="cls-1" d="M630.28,815.24v-.58c-.29,0-.87,0-1.15,.58-.29,0-.48,0-.77,.19-.77,.29-1.25,.38-1.54,1.15-.38,.19-.87,.19-1.06,.48-.67,0-1.06,.29-1.44,1.06h.96v.38c-1.25,.87-2.88,1.63-3.75,2.69-1.54,.48-2.69,1.63-3.94,2.5-1.44,.67-2.69,1.54-3.94,2.31-2.31,1.25-4.61,2.79-7.3,3.84-1.25,.38-2.4,.87-3.65,1.35-2.4,.87-5.09,.87-7.59,.19-.19,0-.67-.19-.77-.29-.67-1.15-1.54-1.92-2.02-3.36-.67-1.54-1.06-3.27-.87-5,.29-1.54,.67-2.98,1.06-4.42,1.44-3.65,3.36-6.82,5.86-9.8,.77-.96,1.92-1.92,2.69-2.88,.87-.86,2.02-1.06,3.08-.58,.86,.58,1.63,1.25,2.4,1.92,.29,.48,0,1.25-.38,1.25h-.29c-1.34-.29-2.4,.58-2.88,1.63-.96,1.63-1.92,2.79-2.69,4.13-1.54,2.11-3.07,4.52-3.84,6.82-.19,.87-.58,1.63-1.15,2.5-.38,1.15-.48,2.21-.19,3.56,.87,.67,2.31,.67,3.56,.38,1.15-.38,2.4-.77,3.65-1.25,1.15-.29,2.31-.77,3.55-1.35,.96-.67,2.31-.96,3.46-1.82,2.4-1.06,4.32-2.4,6.82-3.84,1.82-.96,3.46-2.21,5.48-3.17,.48-.1,1.25-.48,1.63-.87,1.06-1.15,2.69-1.83,3.84-2.5,1.15-.58,2.02-1.15,3.07-1.82,.48-.29,2.79-1.44,3.36-1.35,.48,.19-.48,1.06-.1,2.02-1.35,2.11-2.69,3.75-3.17,3.94Zm-22.77-22.87c.96-.67,1.92-1.06,3.17-.96,.19,0,.38,.29,.58,.29,.48,.67,1.25,1.15,1.35,2.02,0,.48,.29,1.06-.1,1.63-.67,.38-1.25,.96-2.31,1.06h-.87c-.29-.1-.87-.1-1.44-.29-1.54-.48-1.92-2.69-.38-3.75Zm22.68,20.95c-1.44,.38-2.79,.96-4.13,1.73-2.02,1.25-4.04,2.31-6.05,3.55-.38,.19-.96,.58-.96,.77,.96,0,1.73-.38,2.6-.87,2.59-1.44,5.19-3.17,7.88-4.52,.19,0,.48-.48,.67-.67Z"/><path class="cls-1" d="M698.49,812.93c-1.92,.77-3.75,1.35-5.77,2.02-.67,.48-1.35,.58-1.92,.58-.67,0-.96,.19-.77,.87,0,0-.29,.1-.58,.29l-10.38,4.23c-2.79,1.06-5.86,2.21-8.36,3.07-1.54,.87-2.88,1.25-4.23,1.63-1.54,.58-3.07,.58-4.71,.29-.38-.29-1.15-.67-1.63-.96-.48-.48-1.25-1.25-1.63-1.82-.38-.58-.58-1.15-.58-1.83-.1-3.17,0-6.34,1.06-9.32,.48-.96,.77-2.02,.96-2.88,.19-.48,.29-1.35,.29-2.11,0-.67-.1-.77-.58-.29-2.31,.77-4.52,1.63-6.53,2.4-1.25,.58-2.02,1.25-3.17,1.82-1.54,1.06-3.17,2.02-4.71,3.17-.58,.58-1.82,.58-2.4,1.44-3.17,1.92-5.77,4.52-8.36,7.01-.48,.38-.96,.96-1.35,1.34-.86,1.35-2.11,2.5-3.65,3.27-.38,.38-.58,.77-.96,1.15-.29,.1-1.06,.1-1.44-.29-.77-1.35-1.63-2.79-.77-4.42,.29-.77,.67-1.92,1.15-2.69,.48-1.15,1.06-2.02,1.54-3.17,.1-.29,.29-.86,.77-1.25,2.11-3.17,3.75-6.82,4.8-10.57,.48-1.06,1.15-1.34,2.02-1.06,1.06,.58,1.92,1.15,2.59,2.11,.38,.38,.1,.58,0,.77-.77,.96-1.44,1.92-1.54,3.17-.29,.38-.58,.77-.67,1.25-1.15,2.02-2.4,4.04-3.27,5.96-.19,.38-.58,.87-.58,1.35,.19,0,.38,0,.58-.1,1.92-1.35,3.65-2.5,5.48-3.94,2.02-1.63,3.65-3.27,6.05-4.42,1.15-1.06,2.69-1.54,3.94-2.31,1.25-1.15,2.69-1.73,4.23-2.69,1.15-.29,1.92-.96,2.79-1.44,.77-.58,1.92-.96,2.79-1.35,.96-.58,1.83-.48,2.69-.48,.1,0,.48,.29,.67,.48,.48,.67,1.25,1.44,1.73,2.21,.1,.29,.1,.77,0,1.25-.48,2.31-1.06,4.61-1.63,7.01-.29,1.73-.77,3.65-1.15,5.28-.38,.48-.48,1.15-.48,1.83-.19,1.06,.48,1.35,1.63,1.15,2.69-.1,5.09-.96,7.4-1.54,1.73-1.06,3.84-1.44,5.67-2.31,1.63-.67,3.07-1.44,4.8-2.02,2.31-.67,4.61-1.83,6.73-2.4,2.11-.96,3.94-1.54,6.15-2.4,1.73-.96,3.65-1.34,5.48-2.31,.58-.38,1.63-.19,2.5-.29,.19,0,.29,.1,.29,.29-.1,1.35,.96,2.4-2.98,3.94Zm-28.92,9.03h-1.06l-.1,.19c.1,0,.1,.29,.38,.29s.58,0,.77-.48Zm1.34-.38c-.19,0-1.06-.29-1.25,.29h.67c.38,0,.58,0,.58-.29Zm8.46-3.08c-.19,0-.48-.1-.77-.1s-.38,.1-.67,.58c.58,.19,1.15,.19,1.44-.48Zm2.5-.87c-.87-.19-1.63,.1-2.31,.58v.19c.77,0,1.73,0,2.31-.77Zm1.44-.67h-.67c-.38,0-.77,.38-.77,.67,.67,0,1.25,.1,1.44-.67Zm16.14-5.57c-.19-.1-.29-.38-.29-.1-1.15,.1-2.02,.38-3.17,.87-.1,.1-.48,.48-.77,.29-1.25-.29-2.21,.48-3.46,.87-.38,0,0,.87-.96,.87-.29,0-.67,.1-.96,.29-.48,.19-1.06,.38-1.35,.38-1.54,.58-3.07,.96-4.42,1.54-.29,.1-.67,.29-.67,.58,.67,.38,1.25,0,1.92-.1,2.5-.67,4.71-2.02,7.11-2.4,.1-.19,.29-.19,.58-.29,.48-.77,1.44-.48,1.92-.87,1.83-.29,2.98-1.15,4.33-1.83,.19,0,.19-.1,.19-.1Z"/><path class="cls-1" d="M713.47,830.22c-.29,0-.38,.19-.58,.29,0,.67,0,1.54-1.06,1.83-.29,.29-.48,.67-.19,1.15l-.09,.48c-.58,0-1.15,.19-.87,.77-.38,.19-.67,.58-.67,1.15,0,.67-.67,.1-.87,.38-.77,1.44-1.54,2.69-2.31,3.94-.67,1.44-1.73,2.69-2.69,3.55-.77,1.06-1.35,1.63-2.11,2.6-.38,.58-.67,.96-1.35,.96,0,.77-.48,1.44-.96,1.82-.96,1.15-1.92,2.11-3.07,3.17-.77,.48-1.25,1.35-2.11,1.63-.29,.29-.38,.38-.67,.48-1.92,1.15-3.27,.77-4.71-1.15-1.35-1.73-2.02-4.13-1.73-6.34,.1-1.63,.48-3.27,1.63-4.61,1.54-1.92,2.88-4.13,4.52-5.77,1.06-.87,1.92-1.82,2.98-2.69,2.79-2.69,6.05-4.71,9.13-7.01,.1-.1,.48-.1,.77-.1-.1,.67-.77,.77-1.15,1.15-1.06,.77-1.92,1.35-2.69,2.02-.38,.29-.58,.77-.58,1.15,.77-.58,1.54-.87,2.21-1.54,1.92-1.54,3.84-3.07,6.05-4.04l.67-.87c1.25-.19,2.11-.87,3.07-1.44,.38-.38,.38-.48,.67-.67,.29-.38,.1-.58-.29-.77,.29-.1,.29-.58,.38-.77,.96-.58,1.63-1.73,2.21-2.69,.29-.67,.58-1.34,1.25-1.82,0-.38,.29-.67,.38-.77,.29-1.15,.48-2.21,1.63-2.88,0,.19,0,.29,.1,.48,0,0,0,.19,.19,.38,0-.19,0-.38,.1-.38v-.48h-.38c.29-1.73,1.25-3.07,1.92-4.61,.77-1.83,1.63-3.46,2.4-5.09,0-.1-.1-.29-.1-.38h-.19c-.1,.1-.29,.1-.48,.29-.1,.1-.29,.19-.48,.48-1.44,1.63-3.08,3.07-4.81,4.42-1.25,.87-2.21,1.92-3.46,2.69l-3.94,3.46c-1.54,1.63-3.46,2.88-4.81,4.42-1.54,1.54-3.55,2.5-5.48,3.56-.87,.48-1.82,.67-2.4,1.25-.96,.38-1.54,.38-2.4,.38-1.92,.1-2.98-.96-3.65-2.5-.48-1.44-.87-3.08,0-4.61,.48-1.25,1.44-2.5,2.21-3.27,2.31-2.69,4.8-5.09,7.78-7.01,2.69-1.92,5.57-3.55,8.36-5.09,1.63-.48,3.46-1.63,5.09-2.11,.48-.19,.87-.29,1.15-.19,1.54,.29,3.27,.48,4.71,1.92,.19,.29,.48,.29,.87-.1,1.15-1.15,2.31-2.21,3.46-3.07,.19-.1,.48-.48,.87-.67,.87-1.25,2.02-.96,2.79,.38,0,.19,.1,.48,.1,.67-1.15,2.88-2.11,6.25-3.56,8.94-.48,.96-.96,2.11-1.73,3.17-.77,1.15-1.54,2.5-1.92,3.94,0,.48-.1,.87-.38,.96-.38,.67-.96,1.44-.96,2.21,1.25,0,1.83-.77,2.98-1.15,.87-.38,1.54-.87,2.31-.77v.1c-1.25,.87-2.69,1.54-4.04,2.21-.29,.1-.77,0-1.25,.1v-.48c-.29,.1-.29,.38,0,.48-.19,.77-.87,.77-1.06,1.25,0,.19-.38,.29,0,.38,0,.38,.19,.38,.19,0,1.35-.58,2.5-1.06,3.65-1.73,1.35-.67,2.88-1.34,4.33-1.92,1.73-.67,3.65-1.73,5.48-2.6,.19,0,.19-.1,.19-.29-.87,0-1.63,.19-2.4,.48-.48,.38-1.15,.67-1.92,.48,.1-.1,.1-.29,.29-.48,2.11-1.06,4.13-1.73,6.24-2.21,1.73-.58,3.36-1.25,5.29-1.34,1.63-.96,2.79,0,3.84,1.25,.29,.29,1.25,.48,1.25,1.25,0,.58-.38,1.06-.77,1.06h-.38c-1.92-.87-3.65-.19-5.57,.48-.29,0-.58,0-.77,.19-.87,.58-1.54,.1-2.02-.19,0-.29,.38-.29,.77-.48,.1,0,.19-.29,.58-.48-.87,0-1.73,.19-2.5,.48-.19,.19-.19,.38-.38,.48h1.25c0,.29,0,.77-.1,.77-.67,.1-1.44,.1-2.02,.1l.38-.38c.1-.19,.19-.29,.48-.48-1.44,0-2.79,.48-3.94,1.25v.19c-1.06,0-1.92,.19-2.4,1.06,.77,.19,1.54,0,2.4-.48,0,.48-.29,.77-.38,.96-.29,.29-.48,.29-.77,.19-.48-.19-.77,0-.86,.1-.58,.19-.96,0-1.54,.19v-.48c-.38,0-.77,0-.96,.48h.96c0,1.06-.67,1.54-1.15,1.73-.67,.19-1.25,0-1.83,.19l-.19-.19s0-.19,.19-.19l.96-.48c.48-.19,1.06-.29,1.06-1.06-.87,0-1.44,.48-2.5,.87-.86,.38-2.02,1.06-2.88,1.63-.19,.1-.48,.29-.48,.38,.96,.29,1.63-.29,2.31-.38,.19-.38,.29-.38,.67-.38,0,0,.1,0,.1,.38l.19,.29c-.67,.38-1.44,.67-2.02,.96-.58,.38-.67-.19-1.25-.29v-.58c-.87,.29-1.44,.67-2.21,1.06-.67,.58-.38,.96-.38,1.35h.29v.19s.1,0,.1,.1c-.1,.38-.1,0-.1-.1h-.29v-.19c-.29,.29-.67,.67-1.06,.77,0,0-.1,0-.1,.19l.1,.29c-.58,.87-1.25,1.73-1.73,2.6-.29,.48-.38,1.06-.87,1.15,0,.67-.29,1.25-1.15,1.63-.38,.1-.38,.38-.38,.77v.29q.1,0,.19,.19c-.19,.1-.19,0-.19-.19Zm-1.63,.29v-.96c-.29,.29-.48,.38-.86,.38,0,.58,0,.87-.58,1.15,0-.38,0-.87,.38-1.15,.19-.67,.38-1.15,1.06-1.25,.19-.67,.38-.96,.48-1.44,0,0,0-.38-.1-.38h-.38c-.86,1.06-1.82,1.92-2.98,2.4-.48,.29-.87,.67-1.54,1.15-2.02,1.44-4.04,2.98-6.05,4.52-1.54,1.25-2.5,2.5-3.75,3.65-.58,.48-1.25,1.15-1.63,1.63-.96,.77-1.63,1.44-2.02,2.5l-.77,.96c-1.73,1.73-2.31,3.94-3.08,6.05-.1,.19-.1,.38-.1,.38,0,.67,0,.96,.48,1.44,.38,.29,.96,.58,1.63,.29,.87-.19,1.44-.29,2.11-.77,1.35-.77,2.5-1.92,3.65-2.88,.38-.67,1.15-1.25,1.63-1.82,.67-1.35,1.44-2.31,2.6-2.98,0,1.25-1.06,1.63-1.83,2.69-.1,.1-.48,.1-.58,.29-.19,.29-.19,.77-.58,.96-.87,1.06-1.54,2.02-2.5,2.98-.38,.1-.48,.48-.38,.96,.96,0,1.25-.77,1.73-1.15,.77-1.06,1.54-2.02,2.69-2.79,.67-.96,1.44-1.92,2.21-2.88,1.35-1.83,2.88-3.55,3.94-5.86l.19-1.15-.87,.48c0-.87,.1-1.25,.87-1.35-.1-.58,0-.87,.38-1.06,.29-.48,.38-.58,.67-.58,.1-.29,0-.77,.38-.96,0,.38,0,.77-.29,.96-.1,.38-.1,.58-.48,.58,0,.48-.29,.77-.67,1.06v.87c.19-.38,.67-.38,.77-.48,1.06-1.25,1.92-2.69,2.69-4.23,.58-.67,.96-1.54,1.44-2.21Zm-15.76,20.76c-.87,0-1.44,.58-1.83,1.35,1.15,.19,1.54-.67,1.83-1.35Zm-.19-15.09c-.1,0-.1,.38-.1,.67,1.35-.87,2.4-1.92,3.27-3.36-.1-.1-.29-.1-.38,0-.87,.77-2.02,1.54-2.79,2.69Zm23.25-32.67h-.77c.29-.48,.67-1.06,.77-1.35,.19-.38,0-.67,0-1.06-.1-.19-.77-.29-1.15,0l-.67,.48c-.29,.29-.48,.58-.87,.77-1.35,.38-2.4,1.54-3.65,2.02-1.44,.67-2.69,1.92-4.04,2.59-1.44,.67-2.6,1.54-3.46,2.88q-.19,0-.19,.29c-2.69,1.73-5,4.13-7.21,6.63-.58,.58-.96,1.54-1.25,2.4,1.15,.19,2.02-.38,2.79-.67,1.25-.48,2.31-1.44,3.56-2.02l1.15-.67,6.15-4.52c2.79-2.21,5.48-4.52,8.07-6.72,.29-.19,.77-.48,.77-1.06Zm-19.51,29.4c1.25,0,1.83-.87,2.4-1.83-1.15,0-1.83,.77-2.4,1.54v.29Zm5.29,6.53c0,.67-.29,1.15-.77,1.54-.48,1.06-1.15,1.92-2.11,2.4,.38-1.25,.96-1.92,2.02-2.5,0-.77,.19-1.15,.87-1.44Zm1.15-1.54c0,.38,0,.77-.58,1.06,0-.38,0-.87,.58-1.06Zm4.71-13.26c-.48-.19-1.06,.1-1.44,.58-.58,.1-.96,.48-1.25,.48v-.48c1.54-.87,2.88-1.92,4.71-2.5h.1c-.1,.58-.58,.77-.87,.96-.48,.1-1.06,.38-1.25,.96Zm-1.25,7.98c0,.58-.38,1.25-1.15,1.35,0-.77,.38-1.25,1.15-1.35Zm.87-1.54c0,.48-.29,1.15-.87,1.54,0-.77,.19-1.25,.87-1.54Zm2.5-3.07c-.48,.19-.67,.48-.87,.67v.77c.77-.19,.87-.67,.87-1.44Zm-.1-2.5l.1,.19c.29-.38,.58-.48,.77-.96-.1,0-.1-.1-.1,0-.38,.29-.67,.48-1.15,.58,0,0,0,.19,.38,.19Zm.67,1.63c-.67,.1-.58,.38-.58,.87,.58-.1,.58-.48,.58-.87Zm-.58-4.61c.19-.48,.58-.38,.96-.38-.19,.58-.38,.58-.96,.38Zm1.15,3.17l-.19,.19c-.29,.29-.38,.58-.38,1.25,.38,0,.58-.67,.77-.96,0-.19,0-.29-.19-.48Zm12.88-10.47c-.38-.29,.1-.58,.38-.58,.38-.1,.77-.38,1.25-.38-.48,.77-1.15,.96-1.63,.96Zm2.11,1.06c-.48,0-.77,.1-.96,.48,.48,0,.96,.19,1.15-.48h-.19Zm5.48-1.35c0,.38-.38,.48-.67,.87-.58,.29-.87,.48-1.35,.29-.38,0-.48-.29-.87-.38v-.38c.48-.1,.96,0,1.35-.1,.48-.29,1.06-.29,1.54-.29Zm.58-2.69c-.38,.19-.96,0-1.06,.58,.48,0,.77,.19,1.06-.58Zm1.34-.38c-.48,0-1.15-.1-1.34,.38h.87c.29,0,.48-.1,.48-.38Zm1.44-.29s-.29-.1-.38-.1c-.38-.19-.77,0-.96,.29h1.06c.29,0,.29-.19,.29-.19Zm3.94,.29c-1.25,0-2.31,.29-3.17,.77-.19,0-.19,.19-.19,.19,1.15,.19,2.21-.19,3.36-.96Zm-1.83-1.25h1.44q.1,0,.19-.1c-.19,0-.29-.19-.38-.19-.38,0-.96,0-1.25,.29Z"/></g><g><path class="cls-1" d="M304.36,590.83h-7.45l.1-55-24.56,40.94h-5.04l-24.77-41.25,.21,55.32h-7.45v-71.38h5.77l28.76,48.29,28.76-48.29h5.67v71.38Z"/><path class="cls-1" d="M343.52,590.83h-7.45v-71.38h7.45v71.38Z"/><path class="cls-1" d="M435.58,590.83h-6.4l-46.61-57.94v57.94h-7.45v-71.38h6.19l46.82,58.57v-58.57h7.45v71.38Z"/><path class="cls-1" d="M492.07,519.45c22.15,0,37.58,14.59,37.58,35.17s-15.43,36.21-37.58,36.21h-24.77v-71.38h24.77Zm0,64.56c17.53,0,29.92-12.18,29.92-29.39s-12.39-28.34-29.92-28.34h-17.32v57.73h17.32Z"/><path class="cls-1" d="M565.13,553.67h36.84v6.93h-36.84v30.23h-7.45v-71.38h48.71v6.82h-41.25v27.4Z"/><path class="cls-1" d="M691.62,560.49c0,18.79-12.18,31.91-30.44,31.91s-30.34-13.12-30.34-31.91v-41.04h7.45v41.04c0,14.28,9.13,24.98,22.88,24.98s22.99-10.71,22.99-24.98v-41.04h7.45v41.04Z"/><path class="cls-1" d="M769.42,590.83h-47.24v-71.38h7.45v64.66h39.78v6.72Z"/></g><g><path class="cls-1" d="M235.04,726.97h-6.4l-46.61-57.94v57.94h-7.45v-71.38h6.19l46.82,58.57v-58.57h7.45v71.38Z"/><path class="cls-1" d="M326.48,696.63c0,18.79-12.18,31.91-30.44,31.91s-30.34-13.12-30.34-31.91v-41.04h7.45v41.04c0,14.28,9.13,24.98,22.88,24.98s22.99-10.71,22.99-24.98v-41.04h7.45v41.04Z"/><path class="cls-1" d="M382.43,662.41v64.56h-7.45v-64.56h-26.56v-6.82h60.57v6.82h-26.56Z"/><path class="cls-1" d="M440.07,701.04v25.93h-7.45v-71.38h26.56c16.06,0,27.19,8.71,27.19,22.78,0,11.65-7.77,19.73-19.73,22.04l22.88,26.56h-9.34l-22.36-25.93h-17.74Zm18.9-6.82c11.65,0,19.94-5.98,19.94-15.85s-8.29-15.96-19.94-15.96h-18.9v31.81h18.9Z"/><path class="cls-1" d="M521.32,726.97h-7.45v-71.38h7.45v71.38Z"/><path class="cls-1" d="M578.85,662.41v64.56h-7.45v-64.56h-26.56v-6.82h60.57v6.82h-26.56Z"/><path class="cls-1" d="M636.49,726.97h-7.45v-71.38h7.45v71.38Z"/><path class="cls-1" d="M739.25,691.28c0,20.57-16.59,37.16-37.16,37.16s-37.16-16.59-37.16-37.16,16.59-37.16,37.16-37.16,37.16,16.59,37.16,37.16Zm-7.56,0c0-16.59-13.02-30.23-29.71-30.23s-29.6,13.65-29.6,30.23,13.02,30.23,29.6,30.23,29.71-13.65,29.71-30.23Z"/><path class="cls-1" d="M828.17,726.97h-6.4l-46.61-57.94v57.94h-7.45v-71.38h6.19l46.82,58.57v-58.57h7.45v71.38Z"/></g></g><path class="cls-1" d="M660.3,259.7c0-81.11-61.08-148.22-139.67-157.76q-.07,0-.15,0c-6.2-.68-14.34-1.04-20.04-.93-42.4,0-82.15,16.53-111.92,46.56-29.71,29.96-46.07,69.87-46.07,112.37s16.36,82.41,46.07,112.37c29.39,29.63,68.5,46.12,110.28,46.54l24.42,12.39,2.32-4.58-16.21-8.22c83.95-4.17,150.96-73.77,150.96-158.73Zm-151.68,10.83c-10.73-23.02-21.63-46.43-22.91-72.37,5.01-1.28,10.26-1.98,15.67-1.98,35.02,0,63.52,28.49,63.52,63.52,0,25.78-15.44,48-37.56,57.94-4.33-16.24-11.56-31.77-18.71-47.11Zm14.34,50.39c-17.33,30.63-45.02,54.15-61.18,66.2-19.83-18.64-35.73-42.57-45.93-68.68,36.18-26.74,61.17-50.5,76.22-72.49,3.64,9.05,7.78,17.93,11.89,26.75,7.51,16.13,14.87,31.93,18.99,48.22Zm-33.15-80.82c-14.29,22.08-39.13,46.1-75.84,73.35-3.18-8.86-5.68-17.95-7.48-27.13,23.01-16.52,55.47-44.55,75.8-72.35,1.7,8.94,4.35,17.63,7.52,26.14Zm-8.68-33.38c-17.91,26.16-50.28,55.46-75.66,73.99-2.04-12.5-2.73-25.15-1.89-37.64,2.46-36.29,20.23-101.01,110.55-132.83-29.92,36.88-36.64,68.08-33.01,96.47Zm19.36-100.58c.46,0,.93-.01,1.41-.01,2.36,0,5.04,.1,7.77,.27-70.58,25.77-97.12,71.47-106.61,108-15.18-5.62-32.14-19.9-35.63-30.16,26.3-46.59,76.08-78.09,133.07-78.09Zm-136.13,83.78c6.51,11.92,23.48,24.46,37.48,29.49-1.9,8.5-2.91,16.41-3.38,23.32-.04,.52-.04,1.04-.07,1.56-19.45-5.9-37.5-19.52-43.11-32.58,2.48-7.54,5.52-14.82,9.08-21.79Zm-16.78,70.02c0-14.28,1.95-28.11,5.59-41.25,8.95,14.34,28.59,26.15,44.98,30.88-.76,30.58,7.15,61.74,21.4,89.43-18.9,.3-38.04-3.97-57.01-12.72-9.59-20.1-14.97-42.61-14.97-66.35Zm35.63,98.57c-6.43-7.73-12.12-16.09-16.96-24.99,17.11,7.08,34.35,10.65,51.44,10.65,1.53,0,3.05-.04,4.58-.1,4.12,7.46,8.7,14.64,13.7,21.46-17.91,2.28-36.78-.2-52.77-7.02Zm7.27,8.14c10.29,3.2,21.36,4.86,32.41,4.86,5.58,0,11.15-.45,16.62-1.3,13.7,17.54,30.23,32.39,48.73,43.03-38.26-3.06-72.59-20.35-97.76-46.6Zm75.17,24c15.73-11.82,41.4-33.8,58.94-62.38,4.85,25.85,.57,53.23-24.78,85.31-12.24-5.89-23.7-13.69-34.17-22.93Zm40.78,22.74c25.53-33.95,28.32-63.37,22.16-90.68,24.35-10.56,41.44-34.82,41.44-63.01,0-37.86-30.8-68.65-68.65-68.65-5.43,0-10.72,.64-15.79,1.84,.05-25.35,9.66-53.18,37.61-85.43,74.5,10.63,131.97,74.84,131.97,152.24,0,83.11-66.27,151.01-148.74,153.69Z"/></svg>