<?xml version="1.0" encoding="UTF-8"?><svg id="Layer_1" xmlns="http://www.w3.org/2000/svg" viewBox="0 0 1000 1000"><defs><style>.cls-1{fill:#fff;}.cls-2{fill:#ef9050;}</style></defs><g id="text_orange_modif"><path class="cls-2" d="M794.85,415.23h-40.68v96.34c0,26.64-21.67,48.3-48.3,48.3s-48.3-21.67-48.3-48.3v-96.34h-40.68v96.34c0,49.07,39.92,88.98,88.98,88.98,17.8,0,34.38-5.25,48.3-14.29v13.39c0,26.64-21.67,48.3-48.3,48.3-.11,0-.23,0-.34,0v40.68c.11,0,.23,0,.34,0,49.06,0,88.98-39.91,88.98-88.97h0v-184.43Z"/><polygon class="cls-2" points="434.95 383.61 434.95 506.1 434.95 600.53 475.53 600.53 475.53 383.6 434.95 383.61"/><polygon class="cls-2" points="527.32 383.6 527.32 506.1 527.32 600.53 567.9 600.53 567.9 383.6 527.32 383.6"/><g><path class="cls-2" d="M340.89,522.07c-6.11,22.07-26.37,38.31-50.36,38.31s-44.24-16.25-50.35-38.31h-41.03c6.74,44.38,45.15,78.51,91.38,78.51,19.71,0,38-6.21,53.02-16.76v16.93h39.57v-78.67h-42.24Z"/><rect class="cls-1" x="269.86" y="487.52" width="41.2" height="41.2" transform="translate(444.37 -56.56) rotate(45)"/><path class="cls-2" d="M240.18,494.19c6.12-22.07,26.37-38.31,50.35-38.31s44.24,16.25,50.35,38.31h42.24v-78.46h-39.57v16.72c-15.02-10.55-33.31-16.76-53.02-16.76-46.24,0-84.64,34.12-91.38,78.51h41.03Z"/></g></g></svg>