<?xml version="1.0" encoding="UTF-8"?><svg id="Layer_1" xmlns="http://www.w3.org/2000/svg" viewBox="0 0 1000 1000"><defs><style>.cls-1{fill:#fff;}.cls-2{fill:#bc7784;}.cls-3{fill:#d8c7b6;}.cls-4{fill:#8a2066;}.cls-5{fill:#771b40;}</style></defs><g><path class="cls-5" d="M913.06,514.19c-17.44,20.81-43.62,34.05-72.9,34.05-34.89,0-65.39-18.8-81.93-46.82-.02-.02-.05-.06-.05-.09-1.2-2.04-2.32-4.13-3.37-6.26l-29.94,14.71,5.26,8.19c22.2,37.62,63.16,62.87,110.02,62.87,39.32,0,74.47-17.77,97.89-45.72l-24.99-20.93Z"/><path class="cls-2" d="M745.08,453.14c0-52.51,42.57-95.09,95.09-95.09v-33.3c-75.29,5.98-127.69,57.87-127.69,128.39,0,23.62,12.41,56.65,12.41,56.65l29.94-14.71c-6.24-12.65-9.74-26.89-9.74-41.94Z"/><path class="cls-4" d="M840.17,358.05c8.76,0,17.26,1.19,25.31,3.41,18.55,5.11,34.83,15.7,46.97,29.92l24.78-21.18c-36.21-41.69-65.54-45.45-97.07-44.11v31.97h0Z"/><path class="cls-3" d="M917.39,513.77c13.54-17.22,20.97-38.62,20.97-60.63s-7.63-43.97-21.53-61.31l24.93-21.13c-1.47-1.72-1.96-2.3-2.16-2.52h0c-17.07-19.98-39.41-34.21-64.62-41.15-11.29-3.11-23-4.69-34.81-4.69-72.12,0-130.8,58.68-130.8,130.8,0,23.39,6.24,46.32,18.04,66.31l.19-.11,.05,.12-.18,.1c23.44,39.72,66.62,64.4,112.69,64.4,38.78,0,75.33-17.07,100.27-46.83h-.01s.09-.12,.09-.12h.01c.09-.09,.33-.43,.64-.86,.34-.49,.81-1.17,1.13-1.55l-24.91-20.82Zm-6.64-1.65l-.07,.08c-17.54,20.93-43.24,32.93-70.51,32.93-32.4,0-62.77-17.35-79.25-45.29l-.04-.05v-.03c-8.31-14.05-12.69-30.17-12.69-46.62,0-50.72,41.26-91.98,91.98-91.98,8.31,0,16.54,1.11,24.48,3.3,17.72,4.88,33.43,14.89,45.44,28.94l.05,.06c14.19,16.6,22.01,37.79,22.01,59.69s-7.6,42.5-21.4,58.97Zm22.22-142.05l-20.16,17.03c-12.54-13.81-28.55-23.69-46.51-28.63-7.48-2.06-15.21-3.22-23.03-3.47v-26.39c10.2,.25,20.29,1.72,30.05,4.41,23.09,6.36,43.64,19.15,59.65,37.05Zm-95.91-41.44v26.39c-52.71,1.65-95.09,45.01-95.09,98.12,0,14.02,2.99,27.81,8.7,40.44l-23.68,11.7c-7.49-16.24-11.41-34.05-11.41-52.15,0-67.65,54.22-122.85,121.48-124.51Zm3.11,249.11c-43.88,0-85.02-23.5-107.34-61.34l-.07-.12c-1.05-1.78-2.05-3.6-3.01-5.43l23.67-11.7c.67,1.27,1.37,2.53,2.1,3.76l.19-.11,.04,.09-.18,.1c17.6,29.82,50.01,48.34,84.6,48.34,28.08,0,54.57-11.94,73.22-32.83l20.26,16.97c-23.69,26.89-57.58,42.25-93.48,42.25Z"/><path class="cls-1" d="M858.3,481.97l-12.63-17.99c-1.17,.08-2.43,.17-3.68,.17h-14.48v17.82h-8.37v-58.57h22.84c15.23,0,24.43,7.7,24.43,20.42,0,9.04-4.69,15.56-12.89,18.49l13.89,19.66h-9.12Zm-.25-38.16c0-8.37-5.61-13.14-16.32-13.14h-14.22v26.36h14.22c10.71,0,16.32-4.85,16.32-13.22Z"/></g><g><path class="cls-1" d="M121.86,366.14c0-18.71-13.54-30.04-35.95-30.04H52.3v86.19h12.31v-26.23h21.3c1.85,0,3.69-.12,5.42-.25l19.02,26.47h13.42l-20.87-28.93c12.07-4.31,18.96-13.91,18.96-27.21Zm-36.32,19.45h-20.93v-38.78h20.93c15.76,0,24.01,7.02,24.01,19.33s-8.25,19.45-24.01,19.45Z"/><path class="cls-1" d="M186.87,336.1l-39.03,86.19h12.68l9.48-21.55h45.8l9.48,21.55h12.93l-39.15-86.19h-12.19Zm-12.56,54.79l18.59-42.23,18.59,42.23h-37.18Z"/><polygon class="cls-1" points="277.69 336.1 265.38 336.1 265.38 422.28 324.35 422.28 324.35 411.57 277.69 411.57 277.69 336.1"/><path class="cls-1" d="M407.96,384.61c0,19.08-8.86,27.7-24.38,27.7s-24.26-8.62-24.26-27.7v-48.51h-12.31v49c0,24.99,13.79,38.17,36.44,38.17s36.44-13.17,36.44-38.17v-49h-11.94v48.51Z"/><path class="cls-1" d="M491.72,346.07c9.48,0,17.61,3.2,24.26,10.22l8-7.76c-7.88-8.86-19.45-13.42-32.75-13.42-26.23,0-45.68,18.59-45.68,44.08s19.45,44.08,45.56,44.08c13.42,0,24.99-4.68,32.87-13.54l-8-7.76c-6.65,7.02-14.78,10.34-24.26,10.34-19.45,0-33.86-14.04-33.86-33.12s14.41-33.12,33.86-33.12Z"/><path class="cls-1" d="M581.64,336.1l-39.03,86.19h12.68l9.48-21.55h45.8l9.48,21.55h12.93l-39.15-86.19h-12.19Zm-12.56,54.79l18.59-42.23,18.59,42.23h-37.18Z"/></g><g><path class="cls-1" d="M96.38,495.84c9.52,0,17.67,3.21,24.35,10.26l8.03-7.79c-7.91-8.9-19.53-13.47-32.87-13.47-26.32,0-45.85,18.66-45.85,44.24s19.53,44.24,45.73,44.24c13.47,0,25.09-4.7,33-13.59l-8.03-7.79c-6.67,7.04-14.83,10.38-24.35,10.38-19.53,0-33.99-14.09-33.99-33.25s14.46-33.25,33.99-33.25Z"/><path class="cls-1" d="M287.62,515.99c0-18.79-13.59-30.16-36.09-30.16h-33.74v86.51h12.36v-26.32h21.38c1.85,0,3.71-.12,5.44-.25l18.66,26.57h13.47l-20.52-29.04c12.11-4.33,19.03-13.97,19.03-27.31Zm-36.46,19.53h-21.01v-38.93h21.01c15.82,0,24.1,7.04,24.1,19.4s-8.28,19.53-24.1,19.53Z"/><path class="cls-1" d="M324.2,496.58h31.27v48.57c0,11.62-5.07,17.55-14.83,17.55-7.29,0-13.35-3.58-18.04-10.26l-7.17,8.4c5.56,8.03,14.95,12.48,25.21,12.48,17.67,0,27.07-9.52,27.07-28.8v-58.7h-43.5v10.75Z"/><path class="cls-1" d="M465.79,485.83v48.69c0,19.16-8.9,27.81-24.47,27.81s-24.35-8.65-24.35-27.81v-48.69h-12.36v49.19c0,25.09,13.84,38.31,36.58,38.31s36.58-13.22,36.58-38.31v-49.19h-11.99Z"/><g><rect class="cls-1" x="164.49" y="485.83" width="12.36" height="86.51"/><polygon class="cls-1" points="170.77 466.65 175.18 470.06 185.89 470.06 175.72 458.45 165.81 458.45 155.64 470.06 166.35 470.06 170.77 466.65"/></g></g><g><path class="cls-2" d="M51.64,640.27h5.8v34.59h-5.8v-34.59Z"/><path class="cls-2" d="M106,640.27v34.59l-5.09,.05-18.67-25.84,.41,11.9v13.89h-5.8v-34.59h5.14l18.62,25.84-.41-12.92v-12.92h5.8Z"/><path class="cls-2" d="M155.28,657.51c0,9.97-5.9,17.34-17.19,17.34h-12.67v-34.59h12.67c11.29,0,17.19,7.53,17.19,17.24Zm-5.85,.05c0-7.68-4.02-13.02-11.34-13.02h-6.87v26.04h6.87c7.32,0,11.34-5.19,11.34-13.02Z"/><path class="cls-2" d="M193.78,670.63v4.22h-21.77v-34.59h20.75v4.22h-14.95v9.97h12.92v4.22h-12.92v11.95h15.97Z"/><path class="cls-2" d="M235.83,650.74c0,6.71-4.07,10.53-12.82,10.53h-6.61v13.58h-5.8v-34.59h12.41c8.75,0,12.82,3.92,12.82,10.48Zm-5.8,0c0-3.97-2.34-6.26-7.02-6.26h-6.61v12.56h6.61c4.68-.05,7.02-2.03,7.02-6.31Z"/><path class="cls-2" d="M273.16,670.63v4.22h-21.77v-34.59h20.75v4.22h-14.95v9.97h12.92v4.22h-12.92v11.95h15.97Z"/><path class="cls-2" d="M319.13,640.27v34.59l-5.09,.05-18.67-25.84,.41,11.9v13.89h-5.8v-34.59h5.14l18.62,25.84-.41-12.92v-12.92h5.8Z"/><path class="cls-2" d="M368.41,657.51c0,9.97-5.9,17.34-17.19,17.34h-12.67v-34.59h12.67c11.29,0,17.19,7.53,17.19,17.24Zm-5.85,.05c0-7.68-4.02-13.02-11.34-13.02h-6.87v26.04h6.87c7.32,0,11.34-5.19,11.34-13.02Z"/><path class="cls-2" d="M406.9,670.63v4.22h-21.77v-34.59h20.75v4.22h-14.95v9.97h12.92v4.22h-12.92v11.95h15.97Z"/><path class="cls-2" d="M452.88,640.27v34.59l-5.09,.05-18.67-25.84,.41,11.9v13.89h-5.8v-34.59h5.14l18.62,25.84-.41-12.92v-12.92h5.8Z"/><path class="cls-2" d="M496.46,644.54h-11.14v30.31h-5.8v-30.31h-11.04v-4.27h27.98v4.27Z"/><path class="cls-2" d="M530.67,657.51c0-9.41,6.1-17.9,18.52-17.9,4.42,0,8.44,1.42,11.14,3.71l-1.88,3.97c-2.09-1.93-5.49-3.31-9.26-3.31-8.29,0-12.72,6-12.72,13.58s4.17,13.68,12.1,13.68c4.58,0,8.04-1.93,10.43-4.12l1.73,3.87c-2.75,2.44-6.92,4.58-12.16,4.58-12.15,0-17.9-8.6-17.9-18.06Z"/><path class="cls-2" d="M574.66,657.61c0-9.71,5.9-18.01,17.4-18.01s17.4,8.29,17.4,17.95-5.9,18.06-17.4,18.06-17.4-8.29-17.4-18.01Zm28.94,0c0-7.68-4.07-13.63-11.54-13.63s-11.6,5.95-11.6,13.63,4.12,13.63,11.6,13.63,11.54-5.9,11.54-13.63Z"/><path class="cls-2" d="M655.32,640.27v34.59l-5.09,.05-18.67-25.84,.41,11.9v13.89h-5.8v-34.59h5.14l18.62,25.84-.41-12.92v-12.92h5.8Z"/><path class="cls-2" d="M671.89,672.56l1.63-4.12c3.1,1.88,6.36,2.8,10.27,2.8,4.17,0,7.63-1.93,7.63-5.6,0-7.68-18.26-4.93-18.26-16.17,0-6.46,5.19-9.87,12.31-9.87,4.07,0,7.58,1.07,10.53,3l-1.68,4.07c-2.65-1.68-5.49-2.7-8.7-2.7-3.76,0-6.76,1.68-6.76,5.19,0,7.32,18.26,4.88,18.26,16.17,0,6.36-5.14,10.27-13.33,10.27-5.09,0-8.85-1.12-11.9-3.05Z"/><path class="cls-2" d="M713.24,661.68v-21.41h5.8v21.36c0,6.31,3.15,9.61,8.8,9.61s8.75-3.31,8.75-9.61v-21.36h5.8v21.31c0,8.39-4.93,14.04-14.55,14.04s-14.6-5.65-14.6-13.94Z"/><path class="cls-2" d="M783.06,670.63v4.22h-21.77v-34.59h5.8v30.37h15.97Z"/><path class="cls-2" d="M819.32,644.54h-11.14v30.31h-5.8v-30.31h-11.04v-4.27h27.98v4.27Z"/><path class="cls-2" d="M850.9,664.78h-13.33l-3.61,10.07h-5.8l13.38-35.04h5.44l13.48,35.04h-5.95l-3.61-10.07Zm-1.47-4.17l-5.19-14.5-5.19,14.5h10.38Z"/><path class="cls-2" d="M904.4,640.27v34.59l-5.09,.05-18.67-25.84,.41,11.9v13.89h-5.8v-34.59h5.14l18.62,25.84-.41-12.92v-12.92h5.8Z"/><path class="cls-2" d="M947.98,644.54h-11.14v30.31h-5.8v-30.31h-11.04v-4.27h27.98v4.27Z"/></g></svg>