<?xml version="1.0" encoding="UTF-8"?><svg id="Layer_1" xmlns="http://www.w3.org/2000/svg" viewBox="0 0 1000 1000"><defs><style>.cls-1{fill:#fff;}.cls-2{fill:#839678;}.cls-3{fill:#d69e61;}</style></defs><g><path class="cls-2" d="M132.37,335.94h37.4v5.83h-15.41v38.03h-6.58v-38.03h-15.41v-5.83Z"/><path class="cls-2" d="M181.55,335.94h6.58v18.8h23.31v-18.8h6.58v43.85h-6.58v-19.11h-23.31v19.11h-6.58v-43.85Z"/><path class="cls-2" d="M233.24,335.94h32.33v5.76h-25.75v13.16h16.91v5.64h-16.91v13.53h26v5.76h-32.58v-43.85Z"/></g><g><path class="cls-3" d="M499.52,709.54l6.62,6.71c-6.62,7.19-16.59,11.6-26.85,11.6-19.85,0-35.2-15.25-35.2-34.62s15.35-34.62,35.2-34.62c10.55,0,20.71,4.41,27.04,11.6l-6.71,6.91c-5.08-5.95-12.56-9.21-20.33-9.21-14.19,0-24.94,10.93-24.94,25.32s10.84,25.32,25.22,25.32c7.77,0,15.06-3.26,19.95-9.02Z"/><path class="cls-3" d="M525.61,659.67h49.49v8.82h-39.42v20.14h25.9v8.63h-25.9v20.72h39.8v8.82h-49.87v-67.13Z"/><path class="cls-3" d="M605.31,659.67l37.4,49.78v-49.78h9.5v67.13h-8.82l-38.46-51.4v51.4h-9.49v-67.13h9.88Z"/><path class="cls-3" d="M670.34,659.67h57.25v8.92h-23.59v58.21h-10.07v-58.21h-23.59v-8.92Z"/><path class="cls-3" d="M745.63,659.67h49.49v8.82h-39.42v20.14h25.9v8.63h-25.9v20.72h39.8v8.82h-49.87v-67.13Z"/><path class="cls-3" d="M815.45,659.67h30.5c13.33,0,22.35,8.06,22.35,19.85,0,8.82-5.37,15.63-13.81,18.41l14.96,28.87h-11.12l-13.91-27.52h-18.89v27.52h-10.07v-67.13Zm10.07,8.82v22.44h19.57c7.86,0,13.04-4.51,13.04-11.22s-5.18-11.22-13.04-11.22h-19.57Z"/></g><g><path class="cls-3" d="M447.7,272.15c0,.99-.45,1.74-1.35,2.24-.9,.5-2.04,.92-3.4,1.26-1.37,.34-2.84,.67-4.43,.98s-3.06,.81-4.43,1.49c-1.37,.68-2.5,1.62-3.41,2.8-.9,1.18-1.35,2.77-1.35,4.76l-2.24,94.12c-.06,1-.81,1.49-2.24,1.49-1.8,0-3.17-.5-4.1-1.49l-83.95-88.8,2.61,74.81c0,2.11,.53,3.72,1.59,4.8,1.06,1.09,2.39,1.9,4.01,2.43,1.62,.53,3.34,.84,5.18,.93,1.83,.09,3.56,.25,5.18,.47,1.62,.22,2.95,.56,4.01,1.03,1.06,.47,1.59,1.29,1.59,2.47,0,.19-.03,.4-.09,.65-.06,.25-.22,.65-.47,1.21h-50c-.25-.56-.37-1.24-.37-2.05-.06-1.06,.37-1.83,1.31-2.33,.93-.5,2.15-.89,3.64-1.17s3.12-.56,4.9-.84c1.77-.28,3.4-.72,4.9-1.31s2.75-1.41,3.78-2.47,1.57-2.55,1.63-4.48l2.33-80.5c.06-1.62-.34-2.94-1.21-3.97-.87-1.03-1.99-1.88-3.36-2.56-1.37-.68-2.89-1.23-4.57-1.63l-4.9-1.21c-1.59-.4-3.02-.87-4.29-1.4-1.28-.53-2.19-1.23-2.75-2.1l.37-1.68h34.7l75.74,79.94-1.4-64.37c0-2.05-.5-3.67-1.49-4.85-1-1.18-2.22-2.1-3.68-2.75-1.46-.65-3.06-1.13-4.8-1.45s-3.34-.62-4.8-.93c-1.46-.31-2.69-.73-3.68-1.26-.99-.53-1.49-1.35-1.49-2.47,0-.12,.03-.29,.09-.51,.06-.22,.22-.67,.47-1.35h45.89c.25,.56,.37,1.24,.37,2.05Z"/><path class="cls-3" d="M483.2,301.33c-1.74,.34-3.41,.84-4.99,1.49-1.59,.65-2.94,1.46-4.06,2.43-1.12,.96-1.68,2.04-1.68,3.22,0,1.12,.31,2.39,.93,3.82,.62,1.43,.93,2.95,.93,4.57,0,3.05-.84,5.29-2.52,6.72-1.68,1.43-3.58,2.15-5.69,2.15-1.24,0-2.46-.22-3.64-.65-1.18-.44-2.24-1.09-3.17-1.96-.93-.87-1.69-1.94-2.29-3.22-.59-1.28-.89-2.75-.89-4.43,0-2.8,.61-5.24,1.82-7.32s2.78-3.86,4.71-5.32c1.93-1.46,4.12-2.66,6.58-3.59,2.46-.93,4.93-1.66,7.42-2.19,2.49-.53,4.87-.9,7.14-1.12,2.27-.22,4.24-.33,5.92-.33,5.47,0,10.31,.61,14.51,1.82,4.2,1.21,7.7,3.19,10.49,5.92,2.8,2.74,4.91,6.33,6.34,10.77,1.43,4.45,2.15,9.9,2.15,16.37v37.03c0,1.31,.34,2.3,1.03,2.99,.68,.68,1.54,1.18,2.56,1.49s2.15,.51,3.36,.61c1.21,.09,2.33,.19,3.36,.28,1.03,.09,1.88,.26,2.57,.51,.68,.25,1.03,.72,1.03,1.4,0,1.06-.61,1.99-1.82,2.8-1.21,.81-2.8,1.49-4.76,2.05-1.96,.56-4.15,.98-6.58,1.26-2.43,.28-4.85,.42-7.28,.42-2.05,0-3.84-.42-5.36-1.26-1.52-.84-2.78-1.94-3.78-3.31-1-1.37-1.74-2.89-2.24-4.57-.5-1.68-.75-3.36-.75-5.04-1.31,2.18-3.06,4.15-5.27,5.92-2.21,1.77-4.66,3.27-7.37,4.48-2.71,1.21-5.58,2.15-8.63,2.8-3.05,.65-6.03,.98-8.96,.98-3.73,0-6.95-.42-9.65-1.26-2.71-.84-4.93-1.99-6.67-3.45-1.74-1.46-3.03-3.14-3.87-5.04-.84-1.9-1.26-3.93-1.26-6.11,0-4.41,1.03-8.16,3.08-11.24,2.05-3.08,5.18-5.69,9.37-7.84,4.2-2.15,9.5-3.95,15.9-5.41,6.41-1.46,13.99-2.81,22.76-4.06v-12.03c0-3.05-.14-6.02-.42-8.91-.28-2.89-.96-5.46-2.05-7.7-1.09-2.24-2.72-4.04-4.9-5.41-2.18-1.37-5.19-2.05-9.05-2.05-1.18,0-2.64,.17-4.38,.51Zm6.02,43.66c-3.95,1.65-7.1,3.37-9.47,5.18-2.36,1.8-4.06,3.73-5.08,5.78-1.03,2.05-1.54,4.29-1.54,6.72,0,4.1,.87,6.98,2.61,8.63,1.74,1.65,3.95,2.47,6.62,2.47,1.62,0,3.36-.26,5.22-.79,1.87-.53,3.76-1.24,5.69-2.15,1.93-.9,3.81-1.96,5.64-3.17,1.84-1.21,3.53-2.5,5.08-3.87v-23.79c-5.91,1.68-10.84,3.34-14.79,4.99Z"/><path class="cls-3" d="M549.52,297.29c2.58-1.71,4.87-3.5,6.86-5.36,1.99-1.87,3.73-3.72,5.22-5.55l3.87-4.9c1.09-1.43,2.02-2.6,2.8-3.5,.78-.9,1.51-1.35,2.19-1.35,.19,0,.42,.06,.7,.19,.28,.12,.53,.37,.75,.75,.22,.37,.4,.9,.56,1.59,.16,.68,.23,1.59,.23,2.71v16.98h20.15v5.5h-19.68v44.4c0,4.97,.16,9.08,.47,12.31,.31,3.23,.87,5.8,1.68,7.7,.81,1.9,1.93,3.22,3.36,3.97,1.43,.75,3.27,1.12,5.5,1.12,1.87,0,3.54-.19,5.04-.56,1.49-.37,2.77-.76,3.82-1.17s1.88-.79,2.47-1.17c.59-.37,.95-.56,1.07-.56,.44,0,.76,.14,.98,.42,.22,.28,.39,.61,.51,.98,.12,.37,.2,.73,.23,1.07s.05,.61,.05,.79c0,.06-.31,.5-.93,1.31-.62,.81-1.62,1.69-2.99,2.66-1.37,.96-3.16,1.83-5.36,2.61-2.21,.78-4.93,1.17-8.16,1.17-3.86,0-7.43-.48-10.73-1.45-3.3-.96-6.14-2.69-8.54-5.18-2.39-2.49-4.28-5.85-5.64-10.07-1.37-4.23-2.05-9.58-2.05-16.05v-44.31h-13.34v-2.71c3.36-1.18,6.33-2.63,8.91-4.34Z"/><path class="cls-3" d="M697.12,366.55c.84,1,1.88,1.82,3.13,2.47,1.24,.65,2.61,1.18,4.1,1.59,1.49,.4,2.86,.81,4.1,1.21,1.24,.4,2.29,.89,3.12,1.45,.84,.56,1.26,1.31,1.26,2.24,0,.5-.16,1.06-.47,1.68l-32.65,3.08-1.87-15.21c-1.99,2.92-4.2,5.43-6.62,7.51-2.43,2.08-4.93,3.78-7.51,5.08-2.58,1.31-5.19,2.25-7.84,2.84-2.64,.59-5.15,.89-7.51,.89-4.1,0-8.01-.62-11.71-1.87-3.7-1.24-6.93-3.39-9.7-6.44-2.77-3.05-4.97-7.09-6.62-12.13-1.65-5.04-2.47-11.38-2.47-19.03v-29.38c0-1.37-.39-2.49-1.17-3.36-.78-.87-1.76-1.57-2.94-2.1-1.18-.53-2.47-.95-3.87-1.26l-3.87-.89c-1.18-.28-2.16-.62-2.94-1.03-.78-.4-1.17-.98-1.17-1.73,0-.31,.02-.53,.05-.65l.23-.93c1.74-.12,3.58-.28,5.5-.47,1.62-.12,3.47-.28,5.55-.47l6.39-.56c5.1-.44,10.91-.9,17.44-1.4v44.03c0,6.41,.39,11.68,1.17,15.81,.78,4.14,1.85,7.42,3.22,9.84,1.37,2.43,2.97,4.1,4.8,5.04,1.83,.93,3.78,1.4,5.83,1.4s4.18-.26,6.39-.79c2.21-.53,4.38-1.35,6.53-2.47,2.15-1.12,4.23-2.52,6.25-4.2,2.02-1.68,3.87-3.67,5.55-5.97v-48.13c0-1.31-.4-2.36-1.21-3.17-.81-.81-1.8-1.46-2.99-1.96-1.18-.5-2.49-.89-3.92-1.17-1.43-.28-2.74-.58-3.92-.89-1.18-.31-2.18-.7-2.99-1.17-.81-.47-1.21-1.1-1.21-1.91v-.56c0-.06,.09-.34,.28-.84l1.54-.14c1.03-.09,2.36-.2,4.01-.33,1.65-.12,3.53-.28,5.64-.47l6.44-.56c5.16-.44,11.01-.9,17.54-1.4l-.19,64.92c0,1.62,.42,2.92,1.26,3.92Z"/><path class="cls-3" d="M758.95,309.18c-1.31,1.37-2.36,2.75-3.17,4.15-.81,1.4-1.4,2.74-1.77,4.01-.37,1.28-.56,2.32-.56,3.13v48.13c0,1.43,.42,2.55,1.26,3.36,.84,.81,1.88,1.45,3.12,1.91,1.24,.47,2.58,.81,4.01,1.03,1.43,.22,2.77,.44,4.01,.65,1.24,.22,2.29,.51,3.12,.89,.84,.37,1.26,.93,1.26,1.68,0,.56-.12,1.12-.37,1.68h-50.37l-.19-.56c-.12-.5-.19-.84-.19-1.03,0-.5,.12-.84,.37-1.03,1.68-1,3.41-1.65,5.18-1.96,1.77-.31,3.36-.65,4.76-1.03,1.4-.37,2.55-.98,3.45-1.82,.9-.84,1.35-2.29,1.35-4.34v-57.09c0-1.31-.37-2.33-1.12-3.08-.75-.75-1.69-1.32-2.84-1.73-1.15-.4-2.39-.7-3.73-.89-1.34-.19-2.58-.37-3.73-.56-1.15-.19-2.1-.45-2.85-.79s-1.12-.85-1.12-1.54c0-.37,.16-.93,.47-1.68l30.04-3.54,2.89,15.39c1.37-2.92,3.03-5.44,4.99-7.56,1.96-2.11,4.03-3.87,6.2-5.27,2.18-1.4,4.41-2.43,6.72-3.08,2.3-.65,4.51-.98,6.62-.98,3.42,0,6.3,.82,8.63,2.47,2.33,1.65,3.5,3.96,3.5,6.95,0,1.24-.19,2.43-.56,3.54-.37,1.12-.9,2.11-1.59,2.99-.68,.87-1.54,1.57-2.57,2.1-1.03,.53-2.22,.79-3.59,.79-1.74,0-3.16-.25-4.24-.75-1.09-.5-1.96-1.13-2.61-1.91-.65-.78-1.15-1.62-1.49-2.52-.34-.9-.68-1.74-1.03-2.52-.34-.78-.75-1.41-1.21-1.91s-1.1-.75-1.91-.75c-.5,0-1.1,.11-1.82,.33-.72,.22-1.54,.57-2.47,1.07-1.93,1.06-3.54,2.27-4.85,3.64Z"/><path class="cls-3" d="M812.72,341.08c0,5.6,.79,10.29,2.38,14.09,1.59,3.79,3.73,6.86,6.44,9.19,2.71,2.33,5.88,4.01,9.51,5.04,3.64,1.03,7.48,1.54,11.52,1.54,3.36,0,6.78-.3,10.26-.89,3.48-.59,6.97-1.41,10.45-2.47,.31-.12,.61-.06,.89,.19,.28,.25,.42,.62,.42,1.12v1.59c0,.31-.16,.62-.47,.93-3.54,3.3-7.62,5.78-12.22,7.46-4.6,1.68-9.76,2.52-15.49,2.52-6.16,0-11.83-1-17.02-2.99-5.19-1.99-9.69-4.84-13.48-8.54-3.79-3.7-6.76-8.19-8.91-13.48-2.15-5.29-3.22-11.22-3.22-17.82s1.28-13.01,3.82-18.33c2.55-5.32,5.85-9.79,9.89-13.43,4.04-3.64,8.61-6.4,13.71-8.3,5.1-1.9,10.2-2.85,15.3-2.85,4.29,0,8.44,.7,12.45,2.1,4.01,1.4,7.56,3.51,10.63,6.34,3.08,2.83,5.53,6.42,7.37,10.77,1.83,4.35,2.75,9.48,2.75,15.39,0,.93-.03,1.85-.09,2.75-.06,.9-.16,1.82-.28,2.75h-56.34c-.19,1.87-.28,3.64-.28,5.32Zm39.41-24.95c-.59-3.2-1.54-5.94-2.85-8.21-1.31-2.27-3.02-4.01-5.13-5.22-2.11-1.21-4.73-1.82-7.84-1.82-3.61,0-6.78,.92-9.52,2.75-2.74,1.83-5.05,4.21-6.95,7.14-1.9,2.92-3.4,6.27-4.52,10.03-1.12,3.76-1.87,7.54-2.24,11.33l37.13-1.96c.75,0,1.4-.31,1.96-.93,.56-.62,.84-1.43,.84-2.43,0-3.92-.29-7.48-.89-10.68Z"/></g><g><path class="cls-3" d="M130.07,444.8c.41,0,.82-.02,1.23-.05,.41-.03,.68-.05,.82-.05,2.11,0,4.06,.2,5.83,.61,1.77,.41,3.79,.61,6.04,.61l36.42,.31,40.72-.31c.68,0,1.48-.07,2.4-.2,.92-.14,1.84-.31,2.76-.51,.92-.21,1.77-.38,2.56-.51,.78-.14,1.38-.21,1.79-.21h2.87l4.6,32.84c-.61,.27-1.23,.41-1.84,.41-.48,0-.97-.32-1.48-.97s-1.01-1.48-1.48-2.51c-.48-1.02-.94-2.13-1.38-3.33-.44-1.19-.83-2.37-1.18-3.53-.68-2.25-1.36-4.26-2.05-6.04-.68-1.77-1.47-3.29-2.35-4.55-.89-1.26-1.93-2.23-3.12-2.92-1.19-.68-2.61-1.06-4.25-1.13l-27.93-.82v101.9c0,1.77,.6,3.12,1.79,4.04,1.19,.92,2.68,1.62,4.45,2.1,1.77,.48,3.68,.8,5.73,.97,2.05,.17,3.96,.36,5.73,.56,1.77,.21,3.26,.55,4.45,1.02,1.19,.48,1.79,1.23,1.79,2.25,0,.27-.14,.85-.41,1.74h-68.54c-.27-.55-.41-1.16-.41-1.84,0-1.16,.58-1.96,1.74-2.4,1.16-.44,2.61-.75,4.35-.92,1.74-.17,3.62-.32,5.63-.46,2.01-.14,3.89-.43,5.63-.87,1.74-.44,3.19-1.18,4.35-2.2,1.16-1.02,1.74-2.56,1.74-4.6v-101.28l-23.63,.82c-1.71,.07-3.17,.46-4.4,1.18-1.23,.72-2.32,1.7-3.27,2.97-.96,1.26-1.81,2.78-2.56,4.55s-1.5,3.75-2.25,5.93c-.41,1.16-.87,2.35-1.38,3.58-.51,1.23-1.02,2.34-1.53,3.33s-1.04,1.81-1.59,2.46c-.55,.65-1.09,.97-1.64,.97-.27,0-.85-.14-1.74-.41l3.38-32.43c.61,0,1.16-.03,1.64-.1Z"/><path class="cls-3" d="M260.05,448.74c-.99-.85-2.23-1.59-3.73-2.2-1.5-.61-3.1-1.14-4.81-1.59l-4.81-1.28c-1.5-.41-2.74-.82-3.73-1.23-.99-.41-1.48-.89-1.48-1.43s.14-1.13,.41-1.74l40.51-7.16,.31,59.03c2.25-3.14,4.98-5.93,8.18-8.39,2.73-2.11,6.1-4.06,10.13-5.83,4.02-1.77,8.73-2.66,14.12-2.66s10.15,.9,14.48,2.71c4.33,1.81,8.01,4.55,11.05,8.24,3.03,3.68,5.39,8.35,7.06,14.02,1.67,5.66,2.51,12.34,2.51,20.05v34.78c0,1.57,.39,2.8,1.18,3.68,.78,.89,1.76,1.57,2.92,2.05,1.16,.48,2.44,.83,3.84,1.07,1.4,.24,2.68,.51,3.84,.82,1.16,.31,2.13,.68,2.92,1.13,.78,.44,1.18,1.11,1.18,1.99,0,.27-.14,.85-.41,1.74h-52.79c-.34-.68-.51-1.3-.51-1.84,0-.75,.41-1.33,1.23-1.74,.82-.41,1.86-.75,3.12-1.02l4.04-.87c1.43-.31,2.78-.73,4.04-1.28,1.26-.55,2.3-1.26,3.12-2.15,.82-.89,1.23-2.08,1.23-3.58v-31.51c0-3.07,.03-6.24,.1-9.51,.07-3.27,0-6.43-.2-9.46-.2-3.04-.63-5.9-1.28-8.59-.65-2.69-1.65-5.06-3.02-7.11-1.36-2.05-3.21-3.65-5.52-4.81-2.32-1.16-5.25-1.74-8.8-1.74-1.98,0-3.89,.27-5.73,.82-1.84,.55-3.6,1.28-5.27,2.2-1.67,.92-3.24,1.94-4.71,3.07-1.47,1.13-2.81,2.3-4.04,3.53-2.93,2.8-5.59,6-7.98,9.62v53.71c0,1.5,.48,2.68,1.43,3.53,.96,.85,2.15,1.52,3.58,2,1.43,.48,2.98,.85,4.65,1.13,1.67,.27,3.22,.55,4.65,.82,1.43,.27,2.63,.63,3.58,1.07,.95,.44,1.43,1.11,1.43,1.99,0,.27-.14,.85-.41,1.74h-60.36c-.34-.68-.51-1.3-.51-1.84,0-.89,.51-1.57,1.53-2.05,1.02-.48,2.32-.87,3.89-1.18,1.57-.31,3.24-.58,5.01-.82,1.77-.24,3.44-.61,5.01-1.13,1.57-.51,2.87-1.23,3.89-2.15,1.02-.92,1.53-2.17,1.53-3.73l-.1-101.89c0-1.16-.5-2.17-1.48-3.02Z"/><path class="cls-3" d="M395.74,524.09c0,6.14,.87,11.29,2.61,15.45,1.74,4.16,4.09,7.52,7.06,10.08,2.97,2.56,6.44,4.4,10.43,5.52,3.99,1.13,8.2,1.69,12.63,1.69,3.68,0,7.43-.32,11.25-.97s7.64-1.55,11.46-2.71c.34-.14,.66-.07,.97,.2,.31,.27,.46,.68,.46,1.23v1.74c0,.34-.17,.68-.51,1.02-3.89,3.61-8.35,6.34-13.4,8.18-5.05,1.84-10.71,2.76-16.98,2.76-6.75,0-12.98-1.09-18.67-3.27-5.69-2.18-10.62-5.3-14.78-9.36-4.16-4.06-7.42-8.99-9.77-14.78-2.35-5.8-3.53-12.31-3.53-19.54s1.4-14.27,4.19-20.1c2.8-5.83,6.41-10.74,10.84-14.73,4.43-3.99,9.45-7.02,15.04-9.1,5.59-2.08,11.18-3.12,16.78-3.12,4.71,0,9.26,.77,13.66,2.3,4.4,1.53,8.29,3.85,11.66,6.96,3.38,3.1,6.07,7.04,8.08,11.82,2.01,4.77,3.02,10.4,3.02,16.88,0,1.02-.03,2.03-.1,3.02-.07,.99-.17,2-.31,3.02h-61.79c-.2,2.05-.31,3.99-.31,5.83Zm43.22-27.37c-.65-3.51-1.69-6.51-3.12-9-1.43-2.49-3.31-4.4-5.63-5.73-2.32-1.33-5.18-2-8.59-2-3.96,0-7.43,1.01-10.44,3.02-3,2.01-5.54,4.62-7.62,7.83-2.08,3.21-3.73,6.87-4.96,11-1.23,4.13-2.05,8.27-2.46,12.43l40.72-2.15c.82,0,1.54-.34,2.15-1.02,.61-.68,.92-1.57,.92-2.66,0-4.3-.32-8.2-.97-11.71Z"/><path class="cls-3" d="M514.3,489.1c-1.43,1.5-2.59,3.02-3.48,4.55-.89,1.54-1.53,3-1.94,4.4-.41,1.4-.61,2.54-.61,3.43v52.79c0,1.57,.46,2.8,1.38,3.68,.92,.89,2.06,1.59,3.43,2.1,1.36,.51,2.83,.89,4.4,1.13,1.57,.24,3.04,.48,4.4,.72,1.36,.24,2.51,.56,3.43,.97,.92,.41,1.38,1.02,1.38,1.84,0,.61-.14,1.23-.41,1.84h-55.24l-.2-.61c-.14-.55-.2-.92-.2-1.13,0-.55,.14-.92,.41-1.12,1.84-1.09,3.73-1.81,5.68-2.15,1.94-.34,3.68-.72,5.22-1.12,1.54-.41,2.8-1.08,3.79-2,.99-.92,1.48-2.51,1.48-4.76v-62.61c0-1.43-.41-2.56-1.23-3.38-.82-.82-1.86-1.45-3.12-1.89-1.26-.44-2.63-.77-4.09-.97-1.47-.21-2.83-.41-4.09-.61-1.26-.2-2.3-.5-3.12-.87s-1.23-.94-1.23-1.69c0-.41,.17-1.02,.51-1.84l32.94-3.89,3.17,16.88c1.5-3.2,3.32-5.97,5.47-8.29,2.15-2.32,4.42-4.25,6.8-5.78,2.39-1.53,4.84-2.66,7.37-3.38,2.52-.72,4.94-1.07,7.26-1.07,3.75,0,6.91,.9,9.46,2.71,2.56,1.81,3.84,4.35,3.84,7.62,0,1.36-.2,2.66-.61,3.89-.41,1.23-.99,2.32-1.74,3.27-.75,.96-1.69,1.72-2.81,2.3-1.13,.58-2.44,.87-3.94,.87-1.91,0-3.46-.27-4.65-.82-1.19-.55-2.15-1.24-2.87-2.1-.72-.85-1.26-1.77-1.64-2.76-.37-.99-.75-1.91-1.13-2.76-.37-.85-.82-1.55-1.33-2.1-.51-.55-1.21-.82-2.1-.82-.55,0-1.21,.12-2,.36-.78,.24-1.69,.63-2.71,1.18-2.11,1.16-3.89,2.49-5.32,3.99Z"/><path class="cls-3" d="M592.6,480.74c-1.91,.37-3.73,.92-5.47,1.64-1.74,.72-3.22,1.6-4.45,2.66-1.23,1.06-1.84,2.23-1.84,3.53,0,1.23,.34,2.63,1.02,4.19,.68,1.57,1.02,3.24,1.02,5.01,0,3.34-.92,5.8-2.76,7.37-1.84,1.57-3.92,2.35-6.24,2.35-1.36,0-2.69-.24-3.99-.72-1.3-.48-2.46-1.19-3.48-2.15-1.02-.96-1.86-2.13-2.51-3.53-.65-1.4-.97-3.02-.97-4.86,0-3.07,.67-5.75,2-8.03,1.33-2.28,3.05-4.23,5.17-5.83,2.11-1.6,4.52-2.92,7.21-3.94,2.69-1.02,5.4-1.82,8.13-2.41,2.73-.58,5.34-.99,7.83-1.23,2.49-.24,4.65-.36,6.5-.36,6,0,11.31,.67,15.91,2,4.6,1.33,8.44,3.5,11.51,6.5,3.07,3,5.39,6.94,6.96,11.82,1.57,4.88,2.35,10.86,2.35,17.95v40.61c0,1.43,.37,2.52,1.13,3.27,.75,.75,1.69,1.3,2.81,1.64s2.35,.56,3.68,.67c1.33,.1,2.56,.2,3.68,.31,1.13,.1,2.06,.29,2.81,.56,.75,.27,1.13,.78,1.13,1.54,0,1.16-.67,2.18-2,3.07-1.33,.89-3.07,1.64-5.22,2.25-2.15,.61-4.55,1.07-7.21,1.38-2.66,.31-5.32,.46-7.98,.46-2.25,0-4.21-.46-5.88-1.38-1.67-.92-3.05-2.13-4.14-3.63-1.09-1.5-1.91-3.17-2.46-5.01-.55-1.84-.82-3.68-.82-5.52-1.43,2.39-3.36,4.55-5.78,6.5-2.42,1.94-5.11,3.58-8.08,4.91-2.97,1.33-6.12,2.35-9.46,3.07-3.34,.72-6.62,1.07-9.82,1.07-4.09,0-7.62-.46-10.59-1.38-2.97-.92-5.4-2.18-7.31-3.79-1.91-1.6-3.33-3.44-4.25-5.52-.92-2.08-1.38-4.31-1.38-6.7,0-4.84,1.13-8.95,3.38-12.33,2.25-3.38,5.68-6.24,10.28-8.59,4.6-2.35,10.42-4.33,17.44-5.93,7.02-1.6,15.35-3.09,24.96-4.45v-13.2c0-3.34-.15-6.6-.46-9.77-.31-3.17-1.06-5.98-2.25-8.44-1.19-2.46-2.98-4.43-5.37-5.93-2.39-1.5-5.7-2.25-9.92-2.25-1.3,0-2.9,.19-4.81,.56Zm6.6,47.88c-4.33,1.81-7.79,3.7-10.38,5.68-2.59,1.98-4.45,4.09-5.57,6.34-1.13,2.25-1.69,4.71-1.69,7.37,0,4.5,.96,7.66,2.87,9.46,1.91,1.81,4.33,2.71,7.26,2.71,1.77,0,3.68-.29,5.73-.87,2.05-.58,4.13-1.36,6.24-2.35,2.11-.99,4.18-2.15,6.19-3.48,2.01-1.33,3.87-2.75,5.58-4.25v-26.09c-6.48,1.84-11.88,3.67-16.22,5.47Z"/><path class="cls-3" d="M673.48,490.12c-1.06-1.02-2.34-1.86-3.84-2.51-1.5-.65-3.12-1.19-4.86-1.64-1.74-.44-3.33-.87-4.76-1.28-1.43-.41-2.64-.9-3.63-1.48-.99-.58-1.48-1.35-1.48-2.3,0-.14,.14-.72,.41-1.74l37.44-3.07,1.84,18.42c2.32-3.75,5.01-7.13,8.08-10.13,1.3-1.23,2.74-2.46,4.35-3.68,1.6-1.23,3.36-2.32,5.27-3.27,1.91-.96,3.97-1.72,6.19-2.3,2.22-.58,4.55-.87,7.01-.87,5.93,0,11.41,1.01,16.42,3.02,5.01,2.01,9.33,5.01,12.94,9,3.61,3.99,6.44,8.97,8.49,14.94,2.05,5.97,3.07,12.94,3.07,20.92,0,7.5-1.06,14.14-3.17,19.9-2.11,5.76-5.06,10.59-8.85,14.48-3.79,3.89-8.3,6.82-13.55,8.8-5.25,1.98-10.98,2.97-17.19,2.97s-11.85-1.14-16.32-3.43c-4.47-2.28-8.3-6.02-11.51-11.2l.1,36.22c0,1.64,.51,2.93,1.53,3.89,1.02,.96,2.27,1.71,3.73,2.25,1.47,.55,3.07,.97,4.81,1.28,1.74,.31,3.36,.61,4.86,.92s2.74,.72,3.73,1.23c.99,.51,1.48,1.25,1.48,2.2,0,.27-.14,.85-.41,1.74h-57.9c-.34-.68-.51-1.3-.51-1.84,0-.89,.44-1.55,1.33-2,.89-.44,1.98-.84,3.27-1.18,1.3-.34,2.73-.68,4.3-1.02,1.57-.34,3-.78,4.3-1.33,1.3-.55,2.39-1.3,3.27-2.25,.89-.96,1.33-2.25,1.33-3.89l.1-95.76c-.07-1.64-.63-2.97-1.69-3.99Zm60.46,66.86c2.83-2.01,5.08-4.77,6.75-8.29,1.67-3.51,2.87-7.62,3.58-12.33,.72-4.71,1.07-9.79,1.07-15.24s-.49-10.16-1.48-14.53c-.99-4.37-2.49-8.1-4.5-11.2-2.01-3.1-4.57-5.49-7.67-7.16-3.1-1.67-6.8-2.51-11.1-2.51-3.55,0-6.8,.8-9.77,2.4-2.97,1.6-5.54,3.39-7.72,5.37-2.59,2.25-4.94,4.84-7.06,7.77v38.88c1.5,3.75,3.48,7.06,5.93,9.92,1.02,1.23,2.23,2.44,3.63,3.63,1.4,1.19,2.97,2.25,4.71,3.17,1.74,.92,3.68,1.67,5.83,2.25,2.15,.58,4.52,.87,7.11,.87,4.3,0,7.86-1.01,10.69-3.02Z"/><path class="cls-3" d="M785.75,487.16c-.68-1.5-1.57-2.54-2.66-3.12-1.09-.58-2.28-1.01-3.58-1.28l-3.99-.82c-1.36-.27-2.63-.89-3.79-1.84l.41-2.35h50.95c.14,.34,.37,.85,.72,1.54s.51,1.06,.51,1.13c0,.61-.48,1.13-1.43,1.53-.96,.41-2.11,.73-3.48,.97-1.36,.24-2.76,.46-4.19,.66-1.43,.2-2.59,.41-3.48,.61-1.57,.34-2.54,.9-2.92,1.69-.37,.78-.32,1.76,.15,2.92l20.56,52.18,16.37-46.04c.82-2.11,1.23-3.85,1.23-5.22,0-1.23-.31-2.23-.92-3.02-.61-.78-1.5-1.48-2.66-2.1-1.16-.61-2.57-1.19-4.25-1.74l-5.68-1.94c-.34-.14-.51-.55-.51-1.23,0-.41,.17-1.06,.51-1.94h39.28c.2,.34,.32,.67,.36,.97,.03,.31,.05,.63,.05,.97,0,.55-.31,1.04-.92,1.48-.61,.44-1.38,.84-2.3,1.18-.92,.34-1.93,.61-3.02,.82-1.09,.2-2.11,.31-3.07,.31-1.16,0-2.13,.15-2.92,.46-.78,.31-1.47,.78-2.05,1.43-.58,.65-1.11,1.5-1.59,2.56-.48,1.06-.99,2.3-1.54,3.73l-17.29,44.3-19.03,45.12-3.94,9.21c-1.4,3.14-3.05,5.98-4.96,8.54-1.91,2.56-4.23,4.65-6.96,6.29-2.73,1.64-6.04,2.46-9.92,2.46-1.98,0-3.82-.26-5.52-.77-1.7-.51-3.22-1.28-4.55-2.3-1.33-1.02-2.37-2.27-3.12-3.73-.75-1.47-1.13-3.15-1.13-5.06,0-1.7,.31-3.2,.92-4.5,.61-1.3,1.47-2.41,2.56-3.33,1.09-.92,2.32-1.62,3.68-2.1,1.36-.48,2.83-.72,4.4-.72,2.05,0,3.63,.41,4.76,1.23,1.13,.82,2.1,1.74,2.92,2.76,.82,1.02,1.62,1.94,2.4,2.76,.78,.82,1.82,1.23,3.12,1.23,1.64,0,3-.5,4.09-1.48,1.09-.99,2.03-2.18,2.81-3.58,.78-1.4,1.43-2.88,1.94-4.45,.51-1.57,1.01-2.97,1.48-4.19l5.22-14.12-34.07-78.06Z"/></g><g><path class="cls-1" d="M310.94,726.54c8.87,0,22.46-1.45,34.65-8.73,19.78-11.82,27.78-34.19,28.11-35.13l1.27-3.63-3.8-.6c-.99-.16-24.48-3.71-44.26,8.1-19.78,11.82-27.78,34.18-28.11,35.13l-1.27,3.63,3.8,.6c.38,.06,4.08,.62,9.61,.62Zm19.27-34.47c11.41-6.82,24.58-7.89,32.59-7.77,1.52,.02,2.49,1.64,1.79,2.99-3.7,7.1-10.88,18.2-22.29,25.01-11.41,6.82-24.6,7.89-32.6,7.77-1.52-.02-2.49-1.64-1.79-2.99,3.68-7.09,10.85-18.17,22.3-25.01Z"/><path class="cls-1" d="M195.68,717.82c12.19,7.28,25.78,8.73,34.65,8.73,5.53,0,9.23-.56,9.61-.62l3.8-.6-1.27-3.63c-.33-.95-8.33-23.31-28.11-35.13-19.78-11.82-43.27-8.26-44.26-8.1l-3.8,.6,1.27,3.63c.33,.95,8.33,23.31,28.11,35.13Zm15.38-25.74c11.41,6.81,18.59,17.9,22.29,25.01,.7,1.35-.26,2.98-1.79,3-8,.11-21.17-.96-32.58-7.77-11.41-6.82-18.6-17.91-22.29-25.02-.7-1.35,.26-2.98,1.79-3,7.99-.12,21.14,.95,32.59,7.78Z"/><path class="cls-1" d="M270.64,724.1l2.54-3.3c.71-.92,17.45-22.96,17.45-50.59s-16.74-49.67-17.45-50.59l-2.54-3.3-2.54,3.3c-.71,.92-17.45,22.96-17.45,50.59s16.74,49.67,17.45,50.59l2.54,3.3Zm-2.26-93.04c1-1.76,3.53-1.76,4.53,0,4.75,8.37,11.31,22.87,11.31,39.15s-6.56,30.78-11.31,39.15c-1,1.76-3.53,1.76-4.53,0-4.75-8.37-11.31-22.87-11.31-39.15s6.56-30.78,11.31-39.15Z"/></g></svg>