<?xml version="1.0" encoding="UTF-8"?><svg id="a" xmlns="http://www.w3.org/2000/svg" viewBox="0 0 469.5 500"><defs><style>.b{fill:#bfb5ac;}</style></defs><path class="b" d="M440.66,221.16c-49.65,0-177.07-138.4-177.07-192.32,0-15.93-12.91-28.84-28.84-28.84s-28.84,12.91-28.84,28.84c0,53.92-127.42,192.32-177.07,192.32-15.93,0-28.84,12.91-28.84,28.84s12.91,28.84,28.84,28.84c49.65,0,177.07,138.4,177.07,192.32,0,15.93,12.91,28.84,28.84,28.84s28.84-12.91,28.84-28.84c0-53.92,127.42-192.32,177.07-192.32,15.93,0,28.84-12.91,28.84-28.84s-12.91-28.84-28.84-28.84Z"/></svg>