<?xml version="1.0" encoding="UTF-8"?><svg id="Layer_1" xmlns="http://www.w3.org/2000/svg" viewBox="0 0 1000 1000"><defs><style>.cls-1{fill:#fff;}.cls-2{fill:#0e4c4f;}.cls-3{fill:#b5f2f4;}.cls-4{fill:#9d5e40;}.cls-5{fill:#a9d7db;}.cls-6{fill:#c66f18;}.cls-7{fill:#84c1c1;}.cls-8{fill:#a83f39;}.cls-9{fill:#fcfbfa;}</style></defs><g><g><path class="cls-3" d="M208.13,701.52c-91.37,0-110.45-100.64-114.58-129.8-4.3-30.37-21.94-70.31-26.94-120.67,46.42,0,104.76-.51,148.42,0-3.82,42.73-10.87,65.7-19.37,89.52-12.53,35.16-43.08,102.93,12.46,160.94Z"/><path class="cls-3" d="M83.64,543.13l7.32-2.59-2.22-89.62-21.94-.21c-4.19,0-7.64,3.12-7.68,7.05-.32,31.69,7.36,65.4,24.52,85.38Z"/><path class="cls-3" d="M196.59,543.13l-7.32-2.59,2.22-89.64,22.29-.18c4,0,7.28,2.96,7.33,6.72,.37,31.79-7.3,65.66-24.52,85.7Z"/><path class="cls-6" d="M113.17,450.83l-47.17-.15,25.06,123.86h38.6v-100.29c-9.69-3.88-16.49-12.9-16.49-23.42Z"/><path class="cls-6" d="M167.43,450.83c0,10.58-6.88,19.65-16.67,23.49v100.22h38.6l25.06-123.86-46.99,.15Z"/><g><polygon class="cls-4" points="167.21 550.75 180.41 450.68 191.47 450.68 178.28 550.75 167.21 550.75"/><polygon class="cls-4" points="113.38 550.87 100.19 450.81 89.12 450.76 102.32 550.87 113.38 550.87"/><polygon class="cls-4" points="129.68 561.13 88.26 561.13 86.22 550.75 129.68 550.75 129.68 561.13"/><polygon class="cls-4" points="150.77 561.13 192.23 561.13 194.28 550.75 150.77 550.75 150.77 561.13"/></g><path class="cls-7" d="M64.26,502.7c4.2,15.98,10.28,29.88,19.37,40.43l119.18-40.44H64.26Z"/><polygon class="cls-3" points="213.16 502.7 196.59 543.13 80.38 502.69 213.16 502.7"/><polygon class="cls-3" points="80.38 502.72 88.36 493.05 110.98 502.63 80.38 502.72"/><polygon class="cls-7" points="199.4 502.72 191.42 493.05 168.8 502.63 199.4 502.72"/></g><g><ellipse class="cls-3" cx="141.29" cy="389.74" rx="35.24" ry="45.48"/><g><polygon class="cls-2" points="136.9 414.2 128.1 411.14 132.82 395.98 115.04 395.98 116.99 392.07 138.12 392.07 132.95 408.69 150.08 414.64 136.9 414.2"/><polygon class="cls-2" points="165.16 395.98 147.24 395.98 149.2 392.07 167.14 392.07 165.16 395.98"/></g><path class="cls-9" d="M140.3,322.88c-22.82,.02-33.39,10.95-47.88,27.84-3.15,19.56-.53,34.71,4.8,47.44,20.28-2.87,32.01-11.04,43.09-29.26,11.08,18.22,22.8,26.39,43.09,29.26,7.11-15.76,9.74-32.75,4.8-47.44-14.49-16.89-27.01-27.85-47.88-27.84Z"/><path class="cls-8" d="M143.44,372.21c-13.86-9.65-17.51-56.18-1.04-75.91h24.45c-22.19,18.85-29.22,60.76-23.41,75.91Z"/><path class="cls-6" d="M142.09,365.2h-4.94c0,2.08-4.66,6.73-6.73,6.73v4.94c2.08,0,6.73,4.65,6.73,6.73h4.94c0-2.08,4.66-6.73,6.73-6.73v-4.94c-2.08,0-6.73-4.66-6.73-6.73Z"/><polygon class="cls-6" points="169.19 431.38 140.29 414.13 111.38 431.38 111.38 414.13 169.19 414.13 169.19 431.38"/></g></g><g><path class="cls-5" d="M269.37,682.13c0-11.8,7.78-19.52,18.5-19.52,3.91,0,7.94,.86,10.67,2.2l-.75,6.54c-3.11-1.23-6.01-2.14-9.92-2.14-7.29,0-10.99,5.42-10.99,12.92s3.7,12.92,10.99,12.92c3.91,0,6.81-.91,9.92-2.15l.75,6.54c-2.73,1.34-6.76,2.2-10.67,2.2-10.72,0-18.5-7.72-18.5-19.52Z"/><path class="cls-5" d="M314.95,682.13c0-11.8,7.78-19.52,18.5-19.52s18.5,7.72,18.5,19.52-7.78,19.52-18.5,19.52-18.5-7.72-18.5-19.52Zm7.51,0c0,7.51,3.7,12.92,10.99,12.92s10.99-5.42,10.99-12.92-3.7-12.92-10.99-12.92-10.99,5.42-10.99,12.92Z"/><path class="cls-5" d="M395.39,700.9l-17.16-25.74v25.74h-6.86v-37.53h6.76l16.03,24.24v-24.24h6.86v37.53h-5.63Z"/><path class="cls-5" d="M420.43,682.13c0-11.8,7.78-19.52,18.5-19.52,3.91,0,7.94,.86,10.67,2.2l-.75,6.54c-3.11-1.23-6.01-2.14-9.92-2.14-7.29,0-10.99,5.42-10.99,12.92s3.7,12.92,10.99,12.92c3.91,0,6.81-.91,9.92-2.15l.75,6.54c-2.73,1.34-6.76,2.2-10.67,2.2-10.72,0-18.5-7.72-18.5-19.52Z"/><path class="cls-5" d="M490.36,700.9l-7.78-13.94h-6.97v13.94h-6.86v-37.53h13.73c7.24,0,12.92,2.68,12.92,10.83,0,5.79-2.84,8.74-6.38,10.94l8.47,15.77h-7.13Zm-14.75-31.8v11.42h5.04c6.22,0,7.56-2.47,7.56-5.84s-1.39-5.58-7.29-5.58h-5.31Z"/><path class="cls-5" d="M515.72,700.9v-37.53h24.02v6.65h-17v7.99h13.19v6.65h-13.19v9.6h17.54v6.65h-24.56Z"/><path class="cls-5" d="M573.74,670.01v30.89h-6.86v-30.89h-10.62v-6.65h28.1v6.65h-10.62Z"/><path class="cls-5" d="M602.7,700.9v-37.53h24.02v6.65h-17v7.99h13.19v6.65h-13.19v9.6h17.54v6.65h-24.56Z"/><path class="cls-5" d="M678.9,670.01v7.99h12.55v6.65h-12.55v16.25h-6.86v-37.53h23.11v6.65h-16.25Z"/><path class="cls-5" d="M713.59,700.9v-37.53h6.86v30.89h15.44v6.65h-22.31Z"/><path class="cls-5" d="M750.86,682.13c0-11.8,7.78-19.52,18.5-19.52s18.5,7.72,18.5,19.52-7.78,19.52-18.5,19.52-18.5-7.72-18.5-19.52Zm7.51,0c0,7.51,3.7,12.92,10.99,12.92s10.99-5.42,10.99-12.92-3.7-12.92-10.99-12.92-10.99,5.42-10.99,12.92Z"/><path class="cls-5" d="M805.02,682.13c0-11.8,7.78-19.52,18.5-19.52s18.5,7.72,18.5,19.52-7.78,19.52-18.5,19.52-18.5-7.72-18.5-19.52Zm7.51,0c0,7.51,3.7,12.92,10.99,12.92s10.99-5.42,10.99-12.92-3.7-12.92-10.99-12.92-10.99,5.42-10.99,12.92Z"/><path class="cls-5" d="M883.04,700.9l-7.78-13.94h-6.97v13.94h-6.86v-37.53h13.73c7.24,0,12.92,2.68,12.92,10.83,0,5.79-2.84,8.74-6.38,10.94l8.47,15.77h-7.13Zm-14.75-31.8v11.42h5.04c6.22,0,7.56-2.47,7.56-5.84s-1.39-5.58-7.29-5.58h-5.31Z"/><path class="cls-5" d="M906.85,698.91l.8-7.83c2.04,1.98,6.17,3.97,11.8,3.97,4.02,0,6.7-1.02,6.7-4.08,0-3.81-4.18-5.15-8.74-6.7-5.31-1.82-11.1-3.7-11.1-10.4,0-4.99,3.43-11.26,13.57-11.26,5.15,0,10.03,1.61,11.96,2.9l-.7,7.02c-4.02-2.2-7.4-3.38-10.99-3.38-2.9,0-6.86,.75-6.86,3.97,0,3,3.48,4.18,7.56,5.42,5.84,1.77,12.98,3.91,12.98,12.17,0,4.29-1.88,10.94-14.53,10.94-5.68,0-10.3-1.34-12.44-2.73Z"/></g><path class="cls-6" d="M373.55,524.91c3.37,6.14,8.26,11.81,12.67,16.21,4.41,4.41,10.08,9.31,16.21,12.67v4.37c-6.14,3.37-11.8,8.26-16.21,12.67-4.41,4.41-9.31,10.08-12.67,16.21h-4.37c-3.37-6.14-8.26-11.8-12.67-16.21-4.41-4.41-10.08-9.3-16.21-12.67v-4.37c6.14-3.37,11.81-8.26,16.21-12.67,4.41-4.41,9.31-10.08,12.67-16.21h4.37m9.94-14.09h-24.25c0,10.19-22.85,33.04-33.04,33.04v24.25c10.19,0,33.04,22.85,33.04,33.04h24.25c0-10.19,22.85-33.04,33.04-33.04v-24.25c-10.19,0-33.04-22.85-33.04-33.04h0Z"/><g><path class="cls-1" d="M347.51,337.13l-11.07,12.89c-5.91-4.85-11.98-7.43-19.1-7.43-14.1,0-24.41,10.61-24.41,37.91s10.01,37.45,24.56,37.45c8.64,0,14.86-3.79,20.92-8.49l10.31,12.89c-6.67,6.82-17.74,13.19-32.14,13.19-28.05,0-47.15-19.26-47.15-55.04s20.32-54.74,46.7-54.74c13.64,0,22.59,4.09,31.39,11.37Z"/><path class="cls-1" d="M440.1,392.93c0,25.47-14.4,42.61-38.51,42.61s-38.51-15.92-38.51-42.61,14.4-42.61,38.66-42.61,38.36,15.92,38.36,42.61Zm-54.58,0c0,18.5,5.46,26.53,16.07,26.53s16.07-8.19,16.07-26.53-5.46-26.53-15.92-26.53-16.22,8.19-16.22,26.53Z"/><path class="cls-1" d="M530.97,374.37v58.53h-21.53v-54.89c0-9.25-3.34-11.83-8.79-11.83-6.22,0-11.07,4.09-15.47,11.22v55.49h-21.53v-80.36h18.65l1.67,10.16c6.52-8.04,14.25-12.58,24.56-12.58,14.1,0,22.44,9.1,22.44,24.26Z"/><path class="cls-1" d="M619.4,360.03l-9.4,12.74c-5.15-3.94-9.86-5.76-15.77-5.76-10.77,0-17.13,7.73-17.13,26.38s6.82,24.87,16.98,24.87c5.91,0,10.01-1.82,15.92-5.61l9.4,13.49c-7.28,5.91-15.77,9.4-26.38,9.4-23.96,0-38.66-16.37-38.66-42s14.86-43.21,38.36-43.21c10.77,0,19.1,3.18,26.69,9.7Z"/><path class="cls-1" d="M691.87,351.69l-3.64,20.77c-2.43-.61-4.4-1.06-7.13-1.06-9.86,0-14.4,7.28-17.28,20.17v41.54h-21.53v-80.36h18.65l1.97,15.62c3.79-11.22,11.52-17.89,20.92-17.89,2.88,0,5.31,.45,8.04,1.21Z"/><path class="cls-1" d="M776.61,399.45h-50.19c1.52,15.47,8.79,20.01,19.1,20.01,6.82,0,12.59-2.12,19.56-6.97l8.95,12.13c-7.88,6.37-17.89,10.92-30.47,10.92-25.78,0-39.27-16.98-39.27-42.15s13.04-43.06,36.54-43.06,36.24,15.16,36.24,40.79c0,2.73-.3,6.06-.45,8.34Zm-20.92-14.4c0-12.13-4.09-20.01-14.4-20.01-8.49,0-13.8,5.76-14.86,20.92h29.26v-.91Z"/><path class="cls-1" d="M849.83,429.32c-5.91,4.09-13.8,6.22-20.92,6.22-16.68-.15-25.17-9.7-25.17-27.59v-40.03h-11.98v-15.16h11.98v-17.59l21.53-2.58v20.17h18.5l-2.12,15.16h-16.38v39.57c0,7.88,2.58,10.92,8.04,10.92,2.88,0,5.76-.91,9.1-2.73l7.43,13.65Z"/><path class="cls-1" d="M933.37,399.45h-50.19c1.52,15.47,8.79,20.01,19.1,20.01,6.82,0,12.59-2.12,19.56-6.97l8.95,12.13c-7.88,6.37-17.89,10.92-30.47,10.92-25.78,0-39.27-16.98-39.27-42.15s13.04-43.06,36.54-43.06,36.24,15.16,36.24,40.79c0,2.73-.3,6.06-.45,8.34Zm-20.92-14.4c0-12.13-4.09-20.01-14.4-20.01-8.49,0-13.8,5.76-14.86,20.92h29.26v-.91Z"/></g><g><path class="cls-1" d="M597.55,501.4l-11.67,12.13c-7.13-5.46-13.04-8.19-21.68-8.19-14.86,0-26.69,11.07-26.69,38.36s7.88,38.21,23.35,38.21c5.61,0,10.92-1.21,15.62-3.79v-25.62h-14.71l-2.27-16.22h38.66v51.7c-10.61,6.52-23.5,10.61-36.84,10.61-30.93,0-47.15-18.95-47.15-55.04s21.98-54.74,49.13-54.74c15.01,0,25.47,5.16,34.27,12.58Z"/><path class="cls-1" d="M693.73,562.5h-50.19c1.52,15.47,8.79,20.01,19.1,20.01,6.82,0,12.59-2.12,19.56-6.97l8.95,12.13c-7.88,6.37-17.89,10.92-30.47,10.92-25.78,0-39.27-16.98-39.27-42.15s13.04-43.06,36.54-43.06,36.24,15.16,36.24,40.79c0,2.73-.3,6.06-.45,8.34Zm-20.92-14.4c0-12.13-4.09-20.01-14.4-20.01-8.49,0-13.8,5.76-14.86,20.92h29.26v-.91Z"/><path class="cls-1" d="M786.97,537.64v58.53h-21.53v-54.89c0-9.25-3.34-11.83-8.79-11.83-6.22,0-11.07,4.09-15.47,11.22v55.49h-21.53v-80.36h18.65l1.67,10.16c6.52-8.04,14.25-12.58,24.56-12.58,14.1,0,22.44,9.1,22.44,24.26Z"/><path class="cls-1" d="M838.4,486.99c0,7.13-5.46,12.58-13.19,12.58s-13.04-5.46-13.04-12.58,5.31-12.58,13.04-12.58,13.19,5.46,13.19,12.58Zm-2.27,109.17h-21.53v-80.36h21.53v80.36Z"/><path class="cls-1" d="M933.19,562.5h-50.19c1.52,15.47,8.79,20.01,19.1,20.01,6.82,0,12.59-2.12,19.56-6.97l8.95,12.13c-7.88,6.37-17.89,10.92-30.47,10.92-25.78,0-39.27-16.98-39.27-42.15s13.04-43.06,36.54-43.06,36.24,15.16,36.24,40.79c0,2.73-.3,6.06-.45,8.34Zm-20.92-14.4c0-12.13-4.09-20.01-14.4-20.01-8.49,0-13.8,5.76-14.86,20.92h29.26v-.91Z"/></g></svg>